%TF.GenerationSoftware,KiCad,Pcbnew,(6.0.5-0)*%
%TF.CreationDate,2022-06-06T17:24:23+02:00*%
%TF.ProjectId,BlackPanda,426c6163-6b50-4616-9e64-612e6b696361,rev?*%
%TF.SameCoordinates,Original*%
%TF.FileFunction,Copper,L2,Bot*%
%TF.FilePolarity,Positive*%
%FSLAX46Y46*%
G04 Gerber Fmt 4.6, Leading zero omitted, Abs format (unit mm)*
G04 Created by KiCad (PCBNEW (6.0.5-0)) date 2022-06-06 17:24:23*
%MOMM*%
%LPD*%
G01*
G04 APERTURE LIST*
%TA.AperFunction,ComponentPad*%
%ADD10C,0.500000*%
%TD*%
%TA.AperFunction,SMDPad,CuDef*%
%ADD11R,1.800000X3.100000*%
%TD*%
%TA.AperFunction,ComponentPad*%
%ADD12O,1.800000X0.950000*%
%TD*%
%TA.AperFunction,ComponentPad*%
%ADD13O,1.400000X0.800000*%
%TD*%
%TA.AperFunction,ComponentPad*%
%ADD14C,0.650000*%
%TD*%
%TA.AperFunction,ComponentPad*%
%ADD15C,3.000000*%
%TD*%
%TA.AperFunction,SMDPad,CuDef*%
%ADD16R,1.100000X1.800000*%
%TD*%
%TA.AperFunction,SMDPad,CuDef*%
%ADD17R,3.300000X2.500000*%
%TD*%
%TA.AperFunction,SMDPad,CuDef*%
%ADD18R,1.500000X2.120000*%
%TD*%
%TA.AperFunction,ViaPad*%
%ADD19C,0.800000*%
%TD*%
%TA.AperFunction,Conductor*%
%ADD20C,0.200000*%
%TD*%
%TA.AperFunction,Conductor*%
%ADD21C,0.600000*%
%TD*%
%TA.AperFunction,Conductor*%
%ADD22C,0.500000*%
%TD*%
%TA.AperFunction,Conductor*%
%ADD23C,0.400000*%
%TD*%
%TA.AperFunction,Conductor*%
%ADD24C,0.800000*%
%TD*%
%TA.AperFunction,Conductor*%
%ADD25C,0.700000*%
%TD*%
%TA.AperFunction,Conductor*%
%ADD26C,0.250000*%
%TD*%
G04 APERTURE END LIST*
D10*
%TO.P,U5,9,GND*%
%TO.N,GND*%
X187160000Y-66050000D03*
X185860000Y-68650000D03*
X185860000Y-67350000D03*
X185860000Y-66050000D03*
X187160000Y-68650000D03*
X187160000Y-67350000D03*
D11*
X186510000Y-67350000D03*
%TD*%
D12*
%TO.P,P1,31,SHIELD*%
%TO.N,GND*%
X214770000Y-83450000D03*
D13*
%TO.P,P1,32,SHIELD*%
X210260000Y-83810000D03*
%TO.P,P1,33,SHIELD*%
X210260000Y-92070000D03*
D12*
%TO.P,P1,34,SHIELD*%
X214770000Y-92430000D03*
D14*
%TO.P,P1,B1,GND*%
X209660000Y-85140000D03*
%TO.P,P1,B2,TX2+*%
%TO.N,CAN2_H*%
X210360000Y-85540000D03*
%TO.P,P1,B3,TX2-*%
%TO.N,CAN2_L*%
X210360000Y-86340000D03*
%TO.P,P1,B4,VBUS*%
%TO.N,+12V*%
X209660000Y-86740000D03*
%TO.P,P1,B5,VCONN*%
%TO.N,unconnected-(P1-PadB5)*%
X210360000Y-87140000D03*
%TO.P,P1,B6*%
%TO.N,N/C*%
X209660000Y-87540000D03*
%TO.P,P1,B7*%
X209660000Y-88340000D03*
%TO.P,P1,B8,SBU2*%
%TO.N,SBU2*%
X210360000Y-88740000D03*
%TO.P,P1,B9,VBUS*%
%TO.N,+12V*%
X209660000Y-89140000D03*
%TO.P,P1,B10,RX1-*%
%TO.N,CAN3_L*%
X210360000Y-89540000D03*
%TO.P,P1,B11,RX1+*%
%TO.N,CAN3_H*%
X210360000Y-90340000D03*
%TO.P,P1,B12,GND*%
%TO.N,GND*%
X209660000Y-90740000D03*
%TD*%
D15*
%TO.P,J2,5,Shield*%
%TO.N,Net-(J2-Pad5)*%
X207030000Y-63770000D03*
X207030000Y-76910000D03*
%TD*%
D16*
%TO.P,SW1,1,1*%
%TO.N,USB_PWR*%
X209450000Y-74450000D03*
X209450000Y-68250000D03*
%TO.P,SW1,2,2*%
%TO.N,Net-(J2-Pad5)*%
X213150000Y-68250000D03*
X213150000Y-74450000D03*
%TD*%
D17*
%TO.P,D3,1,K*%
%TO.N,Net-(C22-Pad1)*%
X195900000Y-62800000D03*
%TO.P,D3,2,A*%
%TO.N,GND*%
X195900000Y-69600000D03*
%TD*%
D18*
%TO.P,D1,1*%
%TO.N,GND*%
X213100000Y-90215000D03*
%TO.P,D1,2*%
%TO.N,+12V*%
X213100000Y-85985000D03*
%TD*%
D19*
%TO.N,GND*%
X189000000Y-99500000D03*
X208163190Y-92636813D03*
X196825000Y-103950000D03*
X197450000Y-85750000D03*
X191475000Y-78100000D03*
X177450000Y-64775000D03*
X177075000Y-63750000D03*
X173675000Y-89250000D03*
X185150000Y-75950000D03*
X175650000Y-83000000D03*
X196825000Y-73775000D03*
X171650000Y-84000000D03*
X192950000Y-86500000D03*
X198650000Y-67750000D03*
X178080000Y-106200000D03*
X197675000Y-104675000D03*
X211900000Y-96300000D03*
X172400000Y-77150000D03*
X208150000Y-69550000D03*
X176775000Y-100100000D03*
X186900000Y-101775000D03*
X193200000Y-95950000D03*
X208150000Y-73250000D03*
X171550000Y-88900000D03*
X187400000Y-79750000D03*
X194875000Y-88600000D03*
X174350000Y-82800000D03*
X205400000Y-100050000D03*
X215750000Y-96400000D03*
X186850000Y-99400000D03*
X198275000Y-94025000D03*
X208150000Y-67700000D03*
X193450000Y-78100000D03*
X186850000Y-106200000D03*
X196000000Y-96100000D03*
X215150000Y-87400000D03*
X173725000Y-90650000D03*
X180250000Y-78400000D03*
X195500000Y-77250000D03*
X209250000Y-81250000D03*
X205250000Y-84800000D03*
X193350000Y-79800000D03*
X208000000Y-84300000D03*
X184800498Y-77387600D03*
X182900000Y-64000000D03*
X207900000Y-81250000D03*
X173550000Y-86750000D03*
X180970000Y-106200000D03*
X175190000Y-106200000D03*
X212225000Y-102900000D03*
X172300000Y-106200000D03*
X179975000Y-88525000D03*
X200550000Y-87050000D03*
X215700000Y-95600000D03*
X199050000Y-99650000D03*
X194225000Y-97000000D03*
X205675000Y-102050000D03*
X189550000Y-79800000D03*
X172400000Y-75500000D03*
X206300000Y-67600000D03*
X197725000Y-97325000D03*
X175650000Y-96300000D03*
X183860000Y-106200000D03*
X211500000Y-88250000D03*
X211700000Y-102175000D03*
X186705175Y-85355175D03*
X214650000Y-104750000D03*
X199650000Y-95900000D03*
X184950000Y-101775000D03*
X211600000Y-84700000D03*
X186850000Y-104850000D03*
X208150000Y-71400000D03*
X185924500Y-90399500D03*
X191400000Y-79800000D03*
X206800000Y-100050000D03*
X215200000Y-85150000D03*
X203600000Y-82800000D03*
X175700000Y-101750000D03*
X188900000Y-101850000D03*
X182250000Y-64600000D03*
X189675000Y-78100000D03*
X193250000Y-70200000D03*
X200850000Y-88686200D03*
%TO.N,+5V*%
X209805378Y-102300500D03*
X197700000Y-79850000D03*
X205818500Y-87871400D03*
X201250000Y-79350000D03*
X191900000Y-100600000D03*
X214900000Y-102150000D03*
X182917800Y-100612800D03*
X181500000Y-72550000D03*
X200825000Y-101300000D03*
%TO.N,12V_Protected*%
X181100000Y-69300000D03*
X182450000Y-76350000D03*
X208630000Y-79580000D03*
%TO.N,COMP*%
X190549763Y-64525248D03*
X190450000Y-68550000D03*
%TO.N,Net-(C22-Pad1)*%
X193400000Y-65200000D03*
X194105000Y-64505000D03*
X192425000Y-65525000D03*
%TO.N,SBU1*%
X178800000Y-102050000D03*
X207291000Y-87706000D03*
%TO.N,SBU2*%
X173699992Y-101900011D03*
X212399000Y-91874500D03*
%TO.N,CAN0_L*%
X206500000Y-90850000D03*
X205650000Y-89065500D03*
%TO.N,CAN2_H*%
X213344000Y-92821700D03*
X215384000Y-89915600D03*
%TO.N,Net-(J2-Pad2)*%
X199800000Y-72200000D03*
X201400000Y-72000000D03*
%TO.N,+12V*%
X212150000Y-83050000D03*
X210850000Y-82550000D03*
X206700000Y-86900000D03*
%TO.N,relay_SBU2*%
X186399500Y-91376530D03*
X172800500Y-93950000D03*
%TO.N,USB_LOAD*%
X179254500Y-83763700D03*
X200672844Y-81303210D03*
%TO.N,BOOT0*%
X186725008Y-88024992D03*
X204250000Y-80600000D03*
%TO.N,GPS_BOOT*%
X204000000Y-99000000D03*
X195025000Y-98325000D03*
X191688100Y-90009700D03*
X178674400Y-85550000D03*
%TO.N,GPS_TIMEPULSE*%
X201000000Y-96200000D03*
X174550000Y-93675000D03*
%TO.N,GPS_RESET*%
X183305900Y-87059500D03*
X192663300Y-89125200D03*
%TO.N,GPS_TX*%
X184903000Y-95565500D03*
X201600000Y-103499500D03*
%TO.N,GPS_RX*%
X202730378Y-103519622D03*
X184880000Y-96564800D03*
%TO.N,CAN2_EN*%
X185367700Y-84044700D03*
X210087500Y-96735700D03*
%TO.N,CAN3_EN*%
X197907400Y-87686100D03*
X182500500Y-83400000D03*
X195533400Y-85060500D03*
X206600000Y-98950000D03*
%TO.N,CAN1_EN*%
X189120000Y-82919600D03*
X179764000Y-80440500D03*
%TO.N,CAN0_EN*%
X178628249Y-89482978D03*
X192514400Y-71860700D03*
X204580300Y-88933700D03*
X191990500Y-67068000D03*
%TO.N,CAN0_RX*%
X198881000Y-91464500D03*
X178515000Y-94771900D03*
%TO.N,CAN0_TX*%
X198911000Y-88804400D03*
X179306000Y-95381900D03*
%TO.N,CAN1_RX*%
X183598000Y-91791100D03*
X199111000Y-86332600D03*
%TO.N,CAN1_TX*%
X199150000Y-83700000D03*
X189938471Y-90691815D03*
%TO.N,CAN2_RX*%
X213958091Y-103195757D03*
X191600000Y-86800000D03*
%TO.N,CAN2_TX*%
X211950000Y-100550000D03*
X190119000Y-86585400D03*
%TO.N,USB_PWR*%
X201600000Y-75300000D03*
X198300000Y-75500000D03*
X198855000Y-75255400D03*
X202300000Y-74900000D03*
%TO.N,CS*%
X200015000Y-80470800D03*
X187715700Y-72100008D03*
%TO.N,+3V3*%
X188980000Y-98273900D03*
X207180872Y-93519128D03*
X184000000Y-76550000D03*
X184750000Y-99000000D03*
X211800000Y-97550000D03*
X173259900Y-98989300D03*
X180310900Y-77110900D03*
X215900000Y-106650000D03*
X199387937Y-92355281D03*
X203865500Y-87286400D03*
X173135646Y-70916086D03*
X190481900Y-94382800D03*
%TO.N,Net-(D11-Pad1)*%
X178200000Y-70350000D03*
X179025000Y-73425000D03*
%TD*%
D20*
%TO.N,GND*%
X216260480Y-92430000D02*
X214770000Y-92430000D01*
X191850000Y-87600000D02*
X188900000Y-87600000D01*
X215150000Y-87400000D02*
X216330480Y-88580480D01*
D21*
X210710000Y-83810000D02*
X211600000Y-84700000D01*
D20*
X216330480Y-92360000D02*
X216260480Y-92430000D01*
D22*
X205250000Y-84450000D02*
X203600000Y-82800000D01*
X205250000Y-84800000D02*
X205250000Y-84450000D01*
D20*
X187450000Y-79800000D02*
X187400000Y-79750000D01*
X188900000Y-87600000D02*
X186700000Y-85400000D01*
X210260000Y-83810000D02*
X210710000Y-83810000D01*
D23*
X210260000Y-84540000D02*
X210260000Y-83810000D01*
D20*
X208163190Y-92636813D02*
X208236813Y-92636813D01*
D22*
X208236813Y-92636813D02*
X211900000Y-96300000D01*
D24*
X189550000Y-79800000D02*
X187450000Y-79800000D01*
D20*
X192950000Y-86500000D02*
X191850000Y-87600000D01*
D22*
X212115000Y-90215000D02*
X213100000Y-90215000D01*
D23*
X209660000Y-85140000D02*
X210260000Y-84540000D01*
D22*
X210260000Y-92070000D02*
X212115000Y-90215000D01*
D20*
X216330480Y-88580480D02*
X216330480Y-92360000D01*
%TO.N,+5V*%
X201729794Y-79350000D02*
X201250000Y-79350000D01*
X215299600Y-102549600D02*
X214900000Y-102150000D01*
X191900000Y-100600000D02*
X191887200Y-100612800D01*
X203399520Y-80999520D02*
X203379313Y-80999519D01*
X214848089Y-103909011D02*
X215299600Y-103457500D01*
X205818500Y-87871400D02*
X205950000Y-87739900D01*
X211413889Y-103909011D02*
X214848089Y-103909011D01*
X215299600Y-103457500D02*
X215299600Y-102549600D01*
X205950000Y-87739900D02*
X205950000Y-83550000D01*
X200825000Y-101300000D02*
X200925000Y-101200000D01*
X203379313Y-80999519D02*
X201729794Y-79350000D01*
X200925000Y-101200000D02*
X208704878Y-101200000D01*
X208704878Y-101200000D02*
X209805378Y-102300500D01*
X205950000Y-83550000D02*
X203399520Y-80999520D01*
X191887200Y-100612800D02*
X182917800Y-100612800D01*
X209805378Y-102300500D02*
X211413889Y-103909011D01*
%TO.N,12V_Protected*%
X182450000Y-76350000D02*
X182500000Y-76300000D01*
D24*
X208630000Y-79580000D02*
X211420000Y-79580000D01*
D21*
X182500000Y-70700000D02*
X182500000Y-76300000D01*
D24*
X214770000Y-76230000D02*
X214770000Y-67420000D01*
D23*
X181744000Y-70050000D02*
X181100000Y-69405800D01*
X181100000Y-69405800D02*
X181100000Y-69300000D01*
D24*
X214770000Y-67420000D02*
X213600000Y-66250000D01*
D21*
X181100000Y-69300000D02*
X181850000Y-70050000D01*
D24*
X194300000Y-66250000D02*
X190500000Y-70050000D01*
D21*
X181850000Y-70050000D02*
X182500000Y-70700000D01*
D24*
X181850000Y-70050000D02*
X181744000Y-70050000D01*
X190500000Y-70050000D02*
X181850000Y-70050000D01*
X213600000Y-66250000D02*
X194300000Y-66250000D01*
X211420000Y-79580000D02*
X214770000Y-76230000D01*
D20*
%TO.N,COMP*%
X190650000Y-68350000D02*
X190450000Y-68550000D01*
X190650000Y-64625485D02*
X190650000Y-68350000D01*
X190549763Y-64525248D02*
X190650000Y-64625485D01*
D25*
%TO.N,Net-(C22-Pad1)*%
X195800000Y-62800000D02*
X195900000Y-62800000D01*
X192425000Y-65525000D02*
X193075000Y-65525000D01*
X193075000Y-65525000D02*
X193400000Y-65200000D01*
X193400000Y-65200000D02*
X195800000Y-62800000D01*
D20*
%TO.N,SBU1*%
X194015000Y-102950000D02*
X197065000Y-106000000D01*
X214500000Y-106000000D02*
X215700000Y-104800000D01*
X208964521Y-92214521D02*
X208730221Y-92214521D01*
X215700000Y-104800000D02*
X215700000Y-98950000D01*
X179699000Y-102949000D02*
X189249000Y-102949000D01*
X197065000Y-106000000D02*
X214500000Y-106000000D01*
X208335000Y-91819300D02*
X207291000Y-90775000D01*
X189250000Y-102950000D02*
X194015000Y-102950000D01*
X208730221Y-92214521D02*
X208335000Y-91819300D01*
X207291000Y-90775000D02*
X207291000Y-87706000D01*
X215700000Y-98950000D02*
X208964521Y-92214521D01*
X189249000Y-102949000D02*
X189250000Y-102950000D01*
X178800000Y-102050000D02*
X179699000Y-102949000D01*
%TO.N,SBU2*%
X212399000Y-94949000D02*
X216100000Y-98650000D01*
X188299000Y-103349000D02*
X188300000Y-103350000D01*
X193850000Y-103350000D02*
X196900000Y-106400000D01*
X188300000Y-103350000D02*
X193850000Y-103350000D01*
X214900000Y-106400000D02*
X216100000Y-105200000D01*
X175148981Y-103349000D02*
X188299000Y-103349000D01*
X196900000Y-106400000D02*
X214900000Y-106400000D01*
X173699992Y-101900011D02*
X175148981Y-103349000D01*
X216100000Y-105200000D02*
X216100000Y-99450500D01*
X212399000Y-91874500D02*
X212399000Y-94949000D01*
X216100000Y-98650000D02*
X216100000Y-99450000D01*
%TO.N,CAN0_L*%
X206500000Y-89915500D02*
X205650000Y-89065500D01*
X206500000Y-90850000D02*
X206500000Y-89915500D01*
%TO.N,CAN2_H*%
X213344000Y-92306000D02*
X213344000Y-92821700D01*
X215384000Y-89915600D02*
X215384000Y-90266000D01*
X215384000Y-90266000D02*
X213344000Y-92306000D01*
%TO.N,Net-(J2-Pad2)*%
X199800000Y-72200000D02*
X201200000Y-72200000D01*
X201200000Y-72200000D02*
X201400000Y-72000000D01*
D26*
%TO.N,+12V*%
X209200000Y-86740000D02*
X209660000Y-86740000D01*
X208550000Y-88800000D02*
X208890000Y-89140000D01*
D21*
X212150000Y-83050000D02*
X213100000Y-84000000D01*
D23*
X206700000Y-86900000D02*
X206860000Y-86740000D01*
D21*
X213100000Y-84000000D02*
X213100000Y-85985000D01*
X206700000Y-86900000D02*
X206700000Y-84200000D01*
D23*
X206860000Y-86740000D02*
X209200000Y-86740000D01*
D21*
X206700000Y-84200000D02*
X208350000Y-82550000D01*
D26*
X209200000Y-86740000D02*
X208550000Y-87390400D01*
D21*
X208350000Y-82550000D02*
X210850000Y-82550000D01*
D26*
X208890000Y-89140000D02*
X209660000Y-89140000D01*
D23*
X209200000Y-86740000D02*
X209660000Y-86740000D01*
D26*
X208550000Y-87390400D02*
X208550000Y-88800000D01*
D20*
%TO.N,relay_SBU2*%
X184446159Y-91650000D02*
X183887748Y-91091589D01*
X183308252Y-91091589D02*
X182599841Y-91800000D01*
X173696100Y-91800000D02*
X172800500Y-92695600D01*
X186399500Y-91376530D02*
X186126030Y-91650000D01*
X172800500Y-92695600D02*
X172800500Y-93950000D01*
X182599841Y-91800000D02*
X173696100Y-91800000D01*
X186126030Y-91650000D02*
X184446159Y-91650000D01*
X183887748Y-91091589D02*
X183308252Y-91091589D01*
%TO.N,USB_LOAD*%
X179037800Y-83547000D02*
X179254500Y-83763700D01*
X179495700Y-79700800D02*
X179037800Y-80158700D01*
X200671754Y-81304300D02*
X181628100Y-81304300D01*
X180024600Y-79700800D02*
X179495700Y-79700800D01*
X181628100Y-81304300D02*
X180024600Y-79700800D01*
X179037800Y-80158700D02*
X179037800Y-83547000D01*
X200672844Y-81303210D02*
X200671754Y-81304300D01*
%TO.N,BOOT0*%
X192919200Y-71139400D02*
X187016200Y-71139400D01*
X183963600Y-85628300D02*
X186360292Y-88024992D01*
X187016200Y-72455459D02*
X187200000Y-72639259D01*
X180123000Y-85628300D02*
X183963600Y-85628300D01*
X187016200Y-71139400D02*
X187016200Y-72455459D01*
X178548300Y-84053600D02*
X180123000Y-85628300D01*
X199104800Y-77325000D02*
X192919200Y-71139400D01*
X179266700Y-79300000D02*
X178548300Y-80018400D01*
X204250000Y-80600000D02*
X203544800Y-80600000D01*
X178548300Y-80018400D02*
X178548300Y-84053600D01*
X200269800Y-77325000D02*
X199104800Y-77325000D01*
X187200000Y-72639259D02*
X187200000Y-77900000D01*
X203544800Y-80600000D02*
X200269800Y-77325000D01*
X187200000Y-77900000D02*
X185800000Y-79300000D01*
X186360292Y-88024992D02*
X186725008Y-88024992D01*
X185800000Y-79300000D02*
X179266700Y-79300000D01*
%TO.N,GPS_BOOT*%
X179957514Y-86027820D02*
X180777820Y-86027820D01*
X191077920Y-89399520D02*
X191688100Y-90009700D01*
X178674400Y-85550000D02*
X179479694Y-85550000D01*
X203873900Y-98873900D02*
X195573900Y-98873900D01*
X183440405Y-87759011D02*
X185080914Y-89399520D01*
X182509011Y-87759011D02*
X183440405Y-87759011D01*
X185080914Y-89399520D02*
X191077920Y-89399520D01*
X179479694Y-85550000D02*
X179957514Y-86027820D01*
X180777820Y-86027820D02*
X182509011Y-87759011D01*
X195573900Y-98873900D02*
X195025000Y-98325000D01*
X204000000Y-99000000D02*
X203873900Y-98873900D01*
%TO.N,GPS_TIMEPULSE*%
X182971800Y-94865100D02*
X189973900Y-94865100D01*
X189973900Y-94865100D02*
X190191900Y-95083100D01*
X175739400Y-93675000D02*
X178582000Y-96517600D01*
X174550000Y-93675000D02*
X175739400Y-93675000D01*
X200344000Y-95083100D02*
X201000000Y-95739100D01*
X181319300Y-96517600D02*
X182971800Y-94865100D01*
X178582000Y-96517600D02*
X181319300Y-96517600D01*
X190191900Y-95083100D02*
X200344000Y-95083100D01*
X201000000Y-95739100D02*
X201000000Y-96200000D01*
%TO.N,GPS_RESET*%
X192538100Y-89000000D02*
X192663300Y-89125200D01*
X185246400Y-89000000D02*
X192538100Y-89000000D01*
X183305900Y-87059500D02*
X185246400Y-89000000D01*
%TO.N,GPS_TX*%
X201600000Y-103499500D02*
X199099500Y-103499500D01*
X199099500Y-103499500D02*
X191165500Y-95565500D01*
X191165500Y-95565500D02*
X184903000Y-95565500D01*
%TO.N,GPS_RX*%
X191050000Y-96325000D02*
X185119800Y-96325000D01*
X202050989Y-104199011D02*
X201310252Y-104199011D01*
X185119800Y-96325000D02*
X184880000Y-96564800D01*
X202730378Y-103519622D02*
X202050989Y-104199011D01*
X201010261Y-103899020D02*
X198624020Y-103899020D01*
X201310252Y-104199011D02*
X201010261Y-103899020D01*
X198624020Y-103899020D02*
X191050000Y-96325000D01*
%TO.N,CAN2_EN*%
X209408200Y-96735700D02*
X202799300Y-90126800D01*
X191279800Y-81929800D02*
X189164900Y-84044700D01*
X202799300Y-84367200D02*
X200361900Y-81929800D01*
X210087500Y-96735700D02*
X209408200Y-96735700D01*
X200361900Y-81929800D02*
X191279800Y-81929800D01*
X189164900Y-84044700D02*
X185367700Y-84044700D01*
X202799300Y-90126800D02*
X202799300Y-84367200D01*
%TO.N,CAN3_EN*%
X183089259Y-83400000D02*
X188189259Y-88500000D01*
X188189259Y-88500000D02*
X192093900Y-88500000D01*
X198826500Y-87686100D02*
X197907400Y-87686100D01*
X182500500Y-83400000D02*
X183089259Y-83400000D01*
X199623200Y-88482800D02*
X198826500Y-87686100D01*
X199623200Y-91601300D02*
X199623200Y-88482800D01*
X192093900Y-88500000D02*
X195533400Y-85060500D01*
X206600000Y-98950000D02*
X206600000Y-98578100D01*
X206600000Y-98578100D02*
X199623200Y-91601300D01*
%TO.N,CAN1_EN*%
X179764000Y-80440500D02*
X181073000Y-81750000D01*
X187950000Y-81750000D02*
X189120000Y-82919600D01*
X181073000Y-81750000D02*
X187950000Y-81750000D01*
%TO.N,CAN0_EN*%
X189913759Y-62900000D02*
X191349511Y-64335752D01*
X191349511Y-66427011D02*
X191990500Y-67068000D01*
X178628249Y-89482978D02*
X178628249Y-88971449D01*
X192514400Y-71860700D02*
X201372355Y-80718655D01*
X178628249Y-88971449D02*
X171060000Y-81403200D01*
X201372355Y-80718655D02*
X201372355Y-81972355D01*
X171060000Y-66540000D02*
X174700000Y-62900000D01*
X174700000Y-62900000D02*
X189913759Y-62900000D01*
X171060000Y-81403200D02*
X171060000Y-66540000D01*
X201372355Y-81972355D02*
X204580300Y-85180300D01*
X204580300Y-85180300D02*
X204580300Y-88933700D01*
X191349511Y-64335752D02*
X191349511Y-66427011D01*
%TO.N,CAN0_RX*%
X198881000Y-91464500D02*
X196816036Y-91464500D01*
X178515000Y-95580159D02*
X178515000Y-94771900D01*
X194680613Y-93600000D02*
X182077700Y-93600000D01*
X195390498Y-92890115D02*
X194680613Y-93600000D01*
X179596289Y-96081411D02*
X179016252Y-96081411D01*
X182077700Y-93600000D02*
X179596289Y-96081411D01*
X196816036Y-91464500D02*
X195390498Y-92890115D01*
X179016252Y-96081411D02*
X178515000Y-95580159D01*
%TO.N,CAN0_TX*%
X194615400Y-93100000D02*
X181587900Y-93100000D01*
X198911000Y-88804400D02*
X194615400Y-93100000D01*
X181587900Y-93100000D02*
X179306000Y-95381900D01*
%TO.N,CAN1_RX*%
X197207889Y-87396352D02*
X198271641Y-86332600D01*
X198271641Y-86332600D02*
X199111000Y-86332600D01*
X192550000Y-92550000D02*
X197207889Y-87892111D01*
X197207889Y-87892111D02*
X197207889Y-87396352D01*
X184356900Y-92550000D02*
X192550000Y-92550000D01*
X183598000Y-91791100D02*
X184356900Y-92550000D01*
%TO.N,CAN1_TX*%
X189938471Y-90691815D02*
X191380956Y-90691815D01*
X191380956Y-90691815D02*
X191398352Y-90709211D01*
X191398352Y-90709211D02*
X192068548Y-90709211D01*
X198350000Y-83700000D02*
X199150000Y-83700000D01*
X192068548Y-90709211D02*
X193362811Y-89414948D01*
X193362811Y-89414948D02*
X193362811Y-88687189D01*
X193362811Y-88687189D02*
X198350000Y-83700000D01*
%TO.N,CAN2_RX*%
X201850000Y-91265006D02*
X201850000Y-84550000D01*
X200049500Y-82749500D02*
X195650500Y-82749500D01*
X201850000Y-84550000D02*
X200049500Y-82749500D01*
X213958091Y-102968091D02*
X212239511Y-101249511D01*
X212239511Y-101249511D02*
X211660252Y-101249511D01*
X211250489Y-100665495D02*
X201850000Y-91265006D01*
X211250489Y-100839748D02*
X211250489Y-100665495D01*
X195650500Y-82749500D02*
X191600000Y-86800000D01*
X211660252Y-101249511D02*
X211250489Y-100839748D01*
X213958091Y-103195757D02*
X213958091Y-102968091D01*
%TO.N,CAN2_TX*%
X202250000Y-84385000D02*
X202250000Y-91100000D01*
X190800000Y-86585400D02*
X195035000Y-82350000D01*
X190119000Y-86585400D02*
X190800000Y-86585400D01*
X211700000Y-100550000D02*
X211950000Y-100550000D01*
X200215000Y-82350000D02*
X202250000Y-84385000D01*
X202250000Y-91100000D02*
X211700000Y-100550000D01*
X195035000Y-82350000D02*
X200215000Y-82350000D01*
%TO.N,USB_PWR*%
X209450000Y-74879900D02*
X209450000Y-75650300D01*
D24*
X201600000Y-75300000D02*
X201900000Y-75300000D01*
D20*
X209450000Y-74879900D02*
X209450000Y-74450000D01*
D24*
X198855000Y-75255400D02*
X198900000Y-75300000D01*
D20*
X209450000Y-74450000D02*
X209450000Y-68250000D01*
X202300000Y-74900000D02*
X207849400Y-74900000D01*
D24*
X201900000Y-75300000D02*
X202300000Y-74900000D01*
X198900000Y-75300000D02*
X201600000Y-75300000D01*
D20*
X208599700Y-75650300D02*
X209450000Y-75650300D01*
X207849400Y-74900000D02*
X208599700Y-75650300D01*
%TO.N,CS*%
X187715700Y-72100008D02*
X187965708Y-71850000D01*
X200015000Y-80464500D02*
X200015000Y-80470800D01*
X191400000Y-71850000D02*
X200015000Y-80464500D01*
X187965708Y-71850000D02*
X191400000Y-71850000D01*
%TO.N,+3V3*%
X173997600Y-103800000D02*
X172468100Y-102270500D01*
X196819719Y-92355281D02*
X194792200Y-94382800D01*
X215900000Y-106650000D02*
X215750480Y-106799520D01*
X172468100Y-102270500D02*
X172468100Y-99781100D01*
X183476200Y-77073800D02*
X184000000Y-76550000D01*
X184750000Y-99000000D02*
X184739300Y-98989300D01*
X211800000Y-97300000D02*
X211800000Y-97550000D01*
X193734994Y-103800000D02*
X173997600Y-103800000D01*
X208019128Y-93519128D02*
X211800000Y-97300000D01*
X207180872Y-93519128D02*
X208019128Y-93519128D01*
X196734514Y-106799520D02*
X193734994Y-103800000D01*
X173135646Y-70916086D02*
X173866086Y-70916086D01*
X203865500Y-90156600D02*
X203865500Y-87286400D01*
X180023800Y-77073800D02*
X183476200Y-77073800D01*
X172468100Y-99781100D02*
X173259900Y-98989300D01*
X184750000Y-99000000D02*
X185476100Y-98273900D01*
X194792200Y-94382800D02*
X190481900Y-94382800D01*
X215750480Y-106799520D02*
X196734514Y-106799520D01*
X207180872Y-93471972D02*
X203865500Y-90156600D01*
X207180872Y-93519128D02*
X207180872Y-93471972D01*
X173866086Y-70916086D02*
X180023800Y-77073800D01*
X185476100Y-98273900D02*
X188980000Y-98273900D01*
X199387937Y-92355281D02*
X196819719Y-92355281D01*
X184739300Y-98989300D02*
X173259900Y-98989300D01*
D24*
%TO.N,Net-(D11-Pad1)*%
X179025000Y-73425000D02*
X178200000Y-72600000D01*
X178200000Y-72600000D02*
X178200000Y-70350000D01*
D20*
%TO.N,Net-(J2-Pad5)*%
X213150000Y-75650300D02*
X211890300Y-76910000D01*
X213150000Y-68250000D02*
X213150000Y-74450000D01*
X211890300Y-76910000D02*
X207030000Y-76910000D01*
X213150000Y-74450000D02*
X213150000Y-75650300D01*
%TD*%
%TA.AperFunction,Conductor*%
%TO.N,GND*%
G36*
X189677641Y-63528502D02*
G01*
X189698615Y-63545405D01*
X189882902Y-63729692D01*
X189916928Y-63792004D01*
X189911863Y-63862819D01*
X189887445Y-63903096D01*
X189810723Y-63988304D01*
X189715236Y-64153692D01*
X189656221Y-64335320D01*
X189655531Y-64341881D01*
X189655531Y-64341883D01*
X189639414Y-64495229D01*
X189636259Y-64525248D01*
X189636949Y-64531813D01*
X189650444Y-64660207D01*
X189656221Y-64715176D01*
X189715236Y-64896804D01*
X189810723Y-65062192D01*
X189938510Y-65204114D01*
X189981257Y-65235172D01*
X189989561Y-65241205D01*
X190032915Y-65297428D01*
X190041500Y-65343141D01*
X190041500Y-67659625D01*
X190021498Y-67727746D01*
X189989561Y-67761561D01*
X189853912Y-67860116D01*
X189838747Y-67871134D01*
X189834326Y-67876044D01*
X189834325Y-67876045D01*
X189716695Y-68006687D01*
X189710960Y-68013056D01*
X189615473Y-68178444D01*
X189556458Y-68360072D01*
X189555768Y-68366633D01*
X189555768Y-68366635D01*
X189548699Y-68433891D01*
X189536496Y-68550000D01*
X189537186Y-68556565D01*
X189551693Y-68694588D01*
X189556458Y-68739928D01*
X189615473Y-68921556D01*
X189618777Y-68927278D01*
X189618778Y-68927281D01*
X189633338Y-68952499D01*
X189650077Y-69021494D01*
X189626857Y-69088586D01*
X189571051Y-69132474D01*
X189524220Y-69141500D01*
X188037418Y-69141500D01*
X187969297Y-69121498D01*
X187922804Y-69067842D01*
X187912155Y-69001892D01*
X187917631Y-68951486D01*
X187918000Y-68944672D01*
X187918000Y-68712124D01*
X187919226Y-68694588D01*
X187921948Y-68675222D01*
X187922554Y-68667338D01*
X187922741Y-68653962D01*
X187922354Y-68646062D01*
X187918785Y-68614241D01*
X187918000Y-68600196D01*
X187918000Y-67622115D01*
X187913525Y-67606876D01*
X187912135Y-67605671D01*
X187904452Y-67604000D01*
X187277668Y-67604000D01*
X187252023Y-67611530D01*
X186863553Y-68000000D01*
X186860690Y-67997137D01*
X186859924Y-67997903D01*
X186862685Y-68000868D01*
X186863553Y-68000000D01*
X187424458Y-68560905D01*
X187458484Y-68623217D01*
X187453419Y-68694032D01*
X187424458Y-68739095D01*
X187058958Y-69104595D01*
X186996646Y-69138621D01*
X186969863Y-69141500D01*
X186619137Y-69141500D01*
X186551016Y-69121498D01*
X186508909Y-69072904D01*
X186476372Y-69116368D01*
X186409852Y-69141179D01*
X186400863Y-69141500D01*
X186050137Y-69141500D01*
X185982016Y-69121498D01*
X185961042Y-69104595D01*
X185595542Y-68739095D01*
X185561516Y-68676783D01*
X185563351Y-68651132D01*
X186218751Y-68651132D01*
X186218882Y-68652965D01*
X186223133Y-68659580D01*
X186489958Y-68926405D01*
X186510086Y-68963265D01*
X186523913Y-68932988D01*
X186530042Y-68926405D01*
X186793635Y-68662812D01*
X186801249Y-68648868D01*
X186801118Y-68647035D01*
X186796867Y-68640420D01*
X186510000Y-68353553D01*
X186512863Y-68350690D01*
X186512097Y-68349924D01*
X186509132Y-68352685D01*
X186510000Y-68353553D01*
X186226365Y-68637188D01*
X186218751Y-68651132D01*
X185563351Y-68651132D01*
X185566581Y-68605968D01*
X185595542Y-68560905D01*
X186156447Y-68000000D01*
X186159310Y-68002863D01*
X186160076Y-68002097D01*
X186157315Y-67999132D01*
X186156447Y-68000000D01*
X186154350Y-67997903D01*
X186334913Y-67997903D01*
X186337674Y-68000868D01*
X186338542Y-68000000D01*
X186510000Y-68171458D01*
X186507137Y-68174321D01*
X186507903Y-68175087D01*
X186510868Y-68172326D01*
X186510000Y-68171458D01*
X186681458Y-68000000D01*
X186684321Y-68002863D01*
X186685087Y-68002097D01*
X186682326Y-67999132D01*
X186681458Y-68000000D01*
X186510000Y-67828542D01*
X186512863Y-67825679D01*
X186512097Y-67824913D01*
X186509132Y-67827674D01*
X186510000Y-67828542D01*
X186338542Y-68000000D01*
X186335679Y-67997137D01*
X186334913Y-67997903D01*
X186154350Y-67997903D01*
X185773259Y-67616812D01*
X185755725Y-67607237D01*
X186474643Y-67607237D01*
X186477881Y-67614328D01*
X186510000Y-67646447D01*
X186507137Y-67649310D01*
X186507903Y-67650076D01*
X186510868Y-67647315D01*
X186510000Y-67646447D01*
X186539635Y-67616812D01*
X186545144Y-67606723D01*
X186537843Y-67604000D01*
X186485668Y-67604000D01*
X186474643Y-67607237D01*
X185755725Y-67607237D01*
X185749797Y-67604000D01*
X185120116Y-67604000D01*
X185104877Y-67608475D01*
X185103672Y-67609865D01*
X185102001Y-67617548D01*
X185102001Y-68594040D01*
X185101007Y-68609833D01*
X185098162Y-68632356D01*
X185097966Y-68646362D01*
X185101400Y-68681388D01*
X185102001Y-68693684D01*
X185102001Y-68944669D01*
X185102371Y-68951491D01*
X185107845Y-69001895D01*
X185095316Y-69071777D01*
X185046994Y-69123792D01*
X184982582Y-69141500D01*
X182137082Y-69141500D01*
X182068961Y-69121498D01*
X182047986Y-69104595D01*
X181986091Y-69042699D01*
X181955354Y-68992541D01*
X181936568Y-68934726D01*
X181934527Y-68928444D01*
X181839040Y-68763056D01*
X181818216Y-68739928D01*
X181715675Y-68626045D01*
X181715674Y-68626044D01*
X181711253Y-68621134D01*
X181556752Y-68508882D01*
X181550724Y-68506198D01*
X181550722Y-68506197D01*
X181388319Y-68433891D01*
X181388318Y-68433891D01*
X181382288Y-68431206D01*
X181288887Y-68411353D01*
X181201944Y-68392872D01*
X181201939Y-68392872D01*
X181195487Y-68391500D01*
X181004513Y-68391500D01*
X180998061Y-68392872D01*
X180998056Y-68392872D01*
X180911113Y-68411353D01*
X180817712Y-68431206D01*
X180811682Y-68433891D01*
X180811681Y-68433891D01*
X180649278Y-68506197D01*
X180649276Y-68506198D01*
X180643248Y-68508882D01*
X180488747Y-68621134D01*
X180484326Y-68626044D01*
X180484325Y-68626045D01*
X180381785Y-68739928D01*
X180360960Y-68763056D01*
X180265473Y-68928444D01*
X180206458Y-69110072D01*
X180205768Y-69116633D01*
X180205768Y-69116635D01*
X180197202Y-69198134D01*
X180186496Y-69300000D01*
X180206458Y-69489928D01*
X180265473Y-69671556D01*
X180360960Y-69836944D01*
X180365378Y-69841851D01*
X180365379Y-69841852D01*
X180381598Y-69859865D01*
X180488747Y-69978866D01*
X180643248Y-70091118D01*
X180649276Y-70093802D01*
X180649278Y-70093803D01*
X180713246Y-70122283D01*
X180784022Y-70153794D01*
X180784181Y-70153865D01*
X180838276Y-70199845D01*
X180856178Y-70242775D01*
X180873831Y-70325822D01*
X180873833Y-70325827D01*
X180875206Y-70332288D01*
X180877891Y-70338318D01*
X180877891Y-70338319D01*
X180931004Y-70457612D01*
X180952882Y-70506752D01*
X180956762Y-70512093D01*
X180956763Y-70512094D01*
X180981806Y-70546562D01*
X181065134Y-70661253D01*
X181070044Y-70665674D01*
X181070045Y-70665675D01*
X181149621Y-70737325D01*
X181207056Y-70789040D01*
X181372444Y-70884527D01*
X181378729Y-70886569D01*
X181547793Y-70941502D01*
X181547795Y-70941502D01*
X181554072Y-70943542D01*
X181560637Y-70944232D01*
X181561188Y-70944290D01*
X181561486Y-70944413D01*
X181567100Y-70945606D01*
X181566882Y-70946633D01*
X181626845Y-70971303D01*
X181637113Y-70980505D01*
X181654595Y-70997987D01*
X181688621Y-71060299D01*
X181691500Y-71087082D01*
X181691500Y-71515500D01*
X181671498Y-71583621D01*
X181617842Y-71630114D01*
X181565500Y-71641500D01*
X181404513Y-71641500D01*
X181398061Y-71642872D01*
X181398056Y-71642872D01*
X181314439Y-71660646D01*
X181217712Y-71681206D01*
X181211682Y-71683891D01*
X181211681Y-71683891D01*
X181049278Y-71756197D01*
X181049276Y-71756198D01*
X181043248Y-71758882D01*
X181037907Y-71762762D01*
X181037906Y-71762763D01*
X180987843Y-71799136D01*
X180888747Y-71871134D01*
X180884326Y-71876044D01*
X180884325Y-71876045D01*
X180766805Y-72006565D01*
X180760960Y-72013056D01*
X180665473Y-72178444D01*
X180606458Y-72360072D01*
X180605768Y-72366633D01*
X180605768Y-72366635D01*
X180592234Y-72495402D01*
X180586496Y-72550000D01*
X180587186Y-72556565D01*
X180605629Y-72732036D01*
X180606458Y-72739928D01*
X180665473Y-72921556D01*
X180668776Y-72927278D01*
X180668777Y-72927279D01*
X180693543Y-72970174D01*
X180760960Y-73086944D01*
X180765378Y-73091851D01*
X180765379Y-73091852D01*
X180868318Y-73206177D01*
X180888747Y-73228866D01*
X181043248Y-73341118D01*
X181049276Y-73343802D01*
X181049278Y-73343803D01*
X181211681Y-73416109D01*
X181217712Y-73418794D01*
X181311112Y-73438647D01*
X181398056Y-73457128D01*
X181398061Y-73457128D01*
X181404513Y-73458500D01*
X181565500Y-73458500D01*
X181633621Y-73478502D01*
X181680114Y-73532158D01*
X181691500Y-73584500D01*
X181691500Y-75813001D01*
X181674619Y-75876000D01*
X181669520Y-75884832D01*
X181627845Y-75957016D01*
X181615473Y-75978444D01*
X181556458Y-76160072D01*
X181555768Y-76166633D01*
X181555768Y-76166635D01*
X181543696Y-76281498D01*
X181536496Y-76350000D01*
X181534118Y-76349750D01*
X181517184Y-76407421D01*
X181463528Y-76453914D01*
X181411186Y-76465300D01*
X181006434Y-76465300D01*
X180938313Y-76445298D01*
X180924819Y-76434994D01*
X180922153Y-76432034D01*
X180888277Y-76407421D01*
X180772994Y-76323663D01*
X180772993Y-76323662D01*
X180767652Y-76319782D01*
X180761624Y-76317098D01*
X180761622Y-76317097D01*
X180599219Y-76244791D01*
X180599218Y-76244791D01*
X180593188Y-76242106D01*
X180499787Y-76222253D01*
X180412844Y-76203772D01*
X180412839Y-76203772D01*
X180406387Y-76202400D01*
X180215413Y-76202400D01*
X180208960Y-76203772D01*
X180208947Y-76203773D01*
X180115357Y-76223667D01*
X180044567Y-76218266D01*
X180000065Y-76189516D01*
X174330401Y-70519852D01*
X174319534Y-70507461D01*
X174305099Y-70488649D01*
X174300073Y-70482099D01*
X174268161Y-70457612D01*
X174268158Y-70457609D01*
X174203349Y-70407879D01*
X174179515Y-70389590D01*
X174179513Y-70389589D01*
X174172962Y-70384562D01*
X174089522Y-70350000D01*
X177286496Y-70350000D01*
X177287186Y-70356565D01*
X177290810Y-70391045D01*
X177291500Y-70404216D01*
X177291500Y-72518583D01*
X177289949Y-72538292D01*
X177287748Y-72552190D01*
X177288093Y-72558777D01*
X177288093Y-72558782D01*
X177291327Y-72620480D01*
X177291500Y-72627074D01*
X177291500Y-72647610D01*
X177291844Y-72650882D01*
X177291844Y-72650884D01*
X177293647Y-72668042D01*
X177294164Y-72674616D01*
X177296806Y-72725019D01*
X177297743Y-72742903D01*
X177299453Y-72749284D01*
X177299453Y-72749286D01*
X177301383Y-72756491D01*
X177304985Y-72775925D01*
X177305766Y-72783354D01*
X177305768Y-72783363D01*
X177306458Y-72789928D01*
X177327600Y-72854997D01*
X177329467Y-72861299D01*
X177347171Y-72927370D01*
X177350467Y-72933838D01*
X177353559Y-72939907D01*
X177361125Y-72958173D01*
X177365473Y-72971556D01*
X177368776Y-72977278D01*
X177368777Y-72977279D01*
X177399667Y-73030782D01*
X177402814Y-73036577D01*
X177433871Y-73097530D01*
X177438024Y-73102658D01*
X177438025Y-73102660D01*
X177442727Y-73108466D01*
X177453927Y-73124763D01*
X177457657Y-73131224D01*
X177457660Y-73131228D01*
X177460960Y-73136944D01*
X177465377Y-73141850D01*
X177465381Y-73141855D01*
X177506722Y-73187769D01*
X177511006Y-73192784D01*
X177517888Y-73201282D01*
X177523928Y-73208741D01*
X177538443Y-73223256D01*
X177542984Y-73228041D01*
X177588747Y-73278866D01*
X177594086Y-73282745D01*
X177594087Y-73282746D01*
X177600135Y-73287140D01*
X177615168Y-73299981D01*
X178363443Y-74048256D01*
X178367984Y-74053041D01*
X178413747Y-74103866D01*
X178419089Y-74107747D01*
X178419091Y-74107749D01*
X178469076Y-74144065D01*
X178474309Y-74148081D01*
X178522333Y-74186970D01*
X178522338Y-74186973D01*
X178527470Y-74191129D01*
X178538762Y-74196883D01*
X178540007Y-74197517D01*
X178556864Y-74207847D01*
X178562907Y-74212238D01*
X178562910Y-74212240D01*
X178568248Y-74216118D01*
X178574276Y-74218802D01*
X178574278Y-74218803D01*
X178630751Y-74243946D01*
X178636704Y-74246786D01*
X178691747Y-74274832D01*
X178691751Y-74274834D01*
X178697630Y-74277829D01*
X178704007Y-74279538D01*
X178704008Y-74279538D01*
X178711221Y-74281471D01*
X178729853Y-74288069D01*
X178736677Y-74291107D01*
X178742712Y-74293794D01*
X178809626Y-74308017D01*
X178816034Y-74309556D01*
X178875716Y-74325548D01*
X178875721Y-74325549D01*
X178882096Y-74327257D01*
X178895471Y-74327958D01*
X178896142Y-74327993D01*
X178915747Y-74330574D01*
X178923046Y-74332126D01*
X178923053Y-74332127D01*
X178929513Y-74333500D01*
X178997925Y-74333500D01*
X179004519Y-74333673D01*
X179066217Y-74336907D01*
X179066222Y-74336907D01*
X179072809Y-74337252D01*
X179086707Y-74335051D01*
X179106416Y-74333500D01*
X179120487Y-74333500D01*
X179134253Y-74330574D01*
X179187399Y-74319278D01*
X179193883Y-74318076D01*
X179247674Y-74309556D01*
X179261432Y-74307377D01*
X179274568Y-74302334D01*
X179293527Y-74296719D01*
X179300830Y-74295167D01*
X179300834Y-74295166D01*
X179307288Y-74293794D01*
X179369794Y-74265965D01*
X179375867Y-74263450D01*
X179433557Y-74241305D01*
X179433561Y-74241303D01*
X179439722Y-74238938D01*
X179451522Y-74231275D01*
X179468894Y-74221843D01*
X179475718Y-74218805D01*
X179475722Y-74218803D01*
X179481752Y-74216118D01*
X179512021Y-74194126D01*
X179537090Y-74175913D01*
X179542525Y-74172178D01*
X179594347Y-74138524D01*
X179594349Y-74138523D01*
X179599887Y-74134926D01*
X179609832Y-74124981D01*
X179624865Y-74112140D01*
X179630913Y-74107746D01*
X179630914Y-74107745D01*
X179636253Y-74103866D01*
X179682016Y-74053041D01*
X179686557Y-74048256D01*
X179734926Y-73999887D01*
X179738524Y-73994347D01*
X179742592Y-73988083D01*
X179754628Y-73972397D01*
X179759621Y-73966852D01*
X179759622Y-73966851D01*
X179764040Y-73961944D01*
X179798234Y-73902719D01*
X179801679Y-73897096D01*
X179835341Y-73845261D01*
X179838938Y-73839722D01*
X179841304Y-73833557D01*
X179841307Y-73833552D01*
X179843981Y-73826586D01*
X179852493Y-73808739D01*
X179852649Y-73808469D01*
X179859527Y-73796556D01*
X179880665Y-73731501D01*
X179882866Y-73725284D01*
X179905011Y-73667595D01*
X179907377Y-73661432D01*
X179909578Y-73647536D01*
X179914195Y-73628307D01*
X179916501Y-73621209D01*
X179918542Y-73614928D01*
X179925694Y-73546885D01*
X179926550Y-73540381D01*
X179937252Y-73472809D01*
X179936516Y-73458759D01*
X179937033Y-73438999D01*
X179937814Y-73431567D01*
X179937814Y-73431566D01*
X179938504Y-73425000D01*
X179931353Y-73356960D01*
X179930836Y-73350385D01*
X179927603Y-73288693D01*
X179927603Y-73288690D01*
X179927257Y-73282096D01*
X179923617Y-73268512D01*
X179920012Y-73249061D01*
X179919233Y-73241643D01*
X179919232Y-73241638D01*
X179918542Y-73235072D01*
X179897402Y-73170009D01*
X179895529Y-73163685D01*
X179879539Y-73104010D01*
X179879538Y-73104006D01*
X179877829Y-73097630D01*
X179871440Y-73085092D01*
X179863875Y-73066826D01*
X179861569Y-73059728D01*
X179861568Y-73059726D01*
X179859527Y-73053444D01*
X179825331Y-72994215D01*
X179822185Y-72988421D01*
X179812888Y-72970174D01*
X179791129Y-72927470D01*
X179785887Y-72920996D01*
X179782273Y-72916534D01*
X179771073Y-72900237D01*
X179767343Y-72893776D01*
X179767340Y-72893772D01*
X179764040Y-72888056D01*
X179759623Y-72883150D01*
X179759619Y-72883145D01*
X179718278Y-72837231D01*
X179713994Y-72832216D01*
X179703148Y-72818823D01*
X179701072Y-72816259D01*
X179686557Y-72801744D01*
X179682016Y-72796959D01*
X179656741Y-72768888D01*
X179636253Y-72746134D01*
X179630360Y-72741852D01*
X179624865Y-72737860D01*
X179609832Y-72725019D01*
X179145405Y-72260592D01*
X179111379Y-72198280D01*
X179108500Y-72171497D01*
X179108500Y-70404216D01*
X179109190Y-70391045D01*
X179112814Y-70356565D01*
X179113504Y-70350000D01*
X179102166Y-70242122D01*
X179094232Y-70166635D01*
X179094232Y-70166633D01*
X179093542Y-70160072D01*
X179034527Y-69978444D01*
X178939040Y-69813056D01*
X178822080Y-69683158D01*
X178815675Y-69676045D01*
X178815674Y-69676044D01*
X178811253Y-69671134D01*
X178656752Y-69558882D01*
X178650724Y-69556198D01*
X178650722Y-69556197D01*
X178488319Y-69483891D01*
X178488318Y-69483891D01*
X178482288Y-69481206D01*
X178388888Y-69461353D01*
X178301944Y-69442872D01*
X178301939Y-69442872D01*
X178295487Y-69441500D01*
X178104513Y-69441500D01*
X178098061Y-69442872D01*
X178098056Y-69442872D01*
X178011112Y-69461353D01*
X177917712Y-69481206D01*
X177911682Y-69483891D01*
X177911681Y-69483891D01*
X177749278Y-69556197D01*
X177749276Y-69556198D01*
X177743248Y-69558882D01*
X177588747Y-69671134D01*
X177584326Y-69676044D01*
X177584325Y-69676045D01*
X177577921Y-69683158D01*
X177460960Y-69813056D01*
X177365473Y-69978444D01*
X177306458Y-70160072D01*
X177305768Y-70166633D01*
X177305768Y-70166635D01*
X177297834Y-70242122D01*
X177286496Y-70350000D01*
X174089522Y-70350000D01*
X174024937Y-70323248D01*
X174016750Y-70322170D01*
X174016749Y-70322170D01*
X174005544Y-70320695D01*
X173968400Y-70315805D01*
X173905971Y-70307586D01*
X173905968Y-70307586D01*
X173905960Y-70307585D01*
X173874275Y-70303414D01*
X173866086Y-70302336D01*
X173861144Y-70302987D01*
X173794478Y-70283412D01*
X173768964Y-70261726D01*
X173746899Y-70237220D01*
X173679029Y-70187909D01*
X173597740Y-70128849D01*
X173597739Y-70128848D01*
X173592398Y-70124968D01*
X173586370Y-70122284D01*
X173586368Y-70122283D01*
X173423965Y-70049977D01*
X173423964Y-70049977D01*
X173417934Y-70047292D01*
X173324534Y-70027439D01*
X173237590Y-70008958D01*
X173237585Y-70008958D01*
X173231133Y-70007586D01*
X173040159Y-70007586D01*
X173033707Y-70008958D01*
X173033702Y-70008958D01*
X172946758Y-70027439D01*
X172853358Y-70047292D01*
X172847328Y-70049977D01*
X172847327Y-70049977D01*
X172684924Y-70122283D01*
X172684922Y-70122284D01*
X172678894Y-70124968D01*
X172673553Y-70128848D01*
X172673552Y-70128849D01*
X172639121Y-70153865D01*
X172524393Y-70237220D01*
X172519972Y-70242130D01*
X172519971Y-70242131D01*
X172412594Y-70361386D01*
X172396606Y-70379142D01*
X172301119Y-70544530D01*
X172242104Y-70726158D01*
X172241414Y-70732719D01*
X172241414Y-70732721D01*
X172222832Y-70909521D01*
X172222142Y-70916086D01*
X172222832Y-70922651D01*
X172240579Y-71091500D01*
X172242104Y-71106014D01*
X172301119Y-71287642D01*
X172304422Y-71293364D01*
X172304423Y-71293365D01*
X172310173Y-71303324D01*
X172396606Y-71453030D01*
X172401024Y-71457937D01*
X172401025Y-71457938D01*
X172519971Y-71590041D01*
X172524393Y-71594952D01*
X172614813Y-71660646D01*
X172665326Y-71697346D01*
X172678894Y-71707204D01*
X172684922Y-71709888D01*
X172684924Y-71709889D01*
X172794965Y-71758882D01*
X172853358Y-71784880D01*
X172942341Y-71803794D01*
X173033702Y-71823214D01*
X173033707Y-71823214D01*
X173040159Y-71824586D01*
X173231133Y-71824586D01*
X173237585Y-71823214D01*
X173237590Y-71823214D01*
X173328951Y-71803794D01*
X173417934Y-71784880D01*
X173476327Y-71758882D01*
X173586368Y-71709889D01*
X173586370Y-71709888D01*
X173592398Y-71707204D01*
X173623642Y-71684504D01*
X173690510Y-71660646D01*
X173759661Y-71676727D01*
X173786797Y-71697346D01*
X179409000Y-77319549D01*
X179439738Y-77369707D01*
X179469525Y-77461379D01*
X179476373Y-77482456D01*
X179571860Y-77647844D01*
X179576278Y-77652751D01*
X179576279Y-77652752D01*
X179662089Y-77748054D01*
X179699647Y-77789766D01*
X179785117Y-77851864D01*
X179840101Y-77891812D01*
X179854148Y-77902018D01*
X179860176Y-77904702D01*
X179860178Y-77904703D01*
X180007748Y-77970405D01*
X180028612Y-77979694D01*
X180122012Y-77999547D01*
X180208956Y-78018028D01*
X180208961Y-78018028D01*
X180215413Y-78019400D01*
X180406387Y-78019400D01*
X180412839Y-78018028D01*
X180412844Y-78018028D01*
X180499788Y-77999547D01*
X180593188Y-77979694D01*
X180614052Y-77970405D01*
X180761622Y-77904703D01*
X180761624Y-77904702D01*
X180767652Y-77902018D01*
X180781700Y-77891812D01*
X180900571Y-77805446D01*
X180922153Y-77789766D01*
X180981379Y-77723989D01*
X181041825Y-77686750D01*
X181075015Y-77682300D01*
X183428064Y-77682300D01*
X183444507Y-77683378D01*
X183476200Y-77687550D01*
X183484389Y-77686472D01*
X183516074Y-77682301D01*
X183516084Y-77682300D01*
X183516085Y-77682300D01*
X183615657Y-77669191D01*
X183626864Y-77667716D01*
X183626866Y-77667715D01*
X183635051Y-77666638D01*
X183783076Y-77605324D01*
X183794798Y-77596330D01*
X183878272Y-77532277D01*
X183878275Y-77532274D01*
X183910187Y-77507787D01*
X183915214Y-77501235D01*
X183921047Y-77495403D01*
X183983360Y-77461379D01*
X184010141Y-77458500D01*
X184095487Y-77458500D01*
X184101939Y-77457128D01*
X184101944Y-77457128D01*
X184205537Y-77435108D01*
X184282288Y-77418794D01*
X184392540Y-77369707D01*
X184450722Y-77343803D01*
X184450724Y-77343802D01*
X184456752Y-77341118D01*
X184496728Y-77312074D01*
X184512157Y-77300864D01*
X184611253Y-77228866D01*
X184739040Y-77086944D01*
X184834527Y-76921556D01*
X184893542Y-76739928D01*
X184896005Y-76716500D01*
X184912814Y-76556565D01*
X184913504Y-76550000D01*
X184901200Y-76432937D01*
X184894232Y-76366635D01*
X184894232Y-76366633D01*
X184893542Y-76360072D01*
X184834527Y-76178444D01*
X184831041Y-76172405D01*
X184794303Y-76108774D01*
X184739040Y-76013056D01*
X184705740Y-75976072D01*
X184615675Y-75876045D01*
X184615674Y-75876044D01*
X184611253Y-75871134D01*
X184492216Y-75784648D01*
X184462094Y-75762763D01*
X184462093Y-75762762D01*
X184456752Y-75758882D01*
X184450724Y-75756198D01*
X184450722Y-75756197D01*
X184288319Y-75683891D01*
X184288318Y-75683891D01*
X184282288Y-75681206D01*
X184188888Y-75661353D01*
X184101944Y-75642872D01*
X184101939Y-75642872D01*
X184095487Y-75641500D01*
X183904513Y-75641500D01*
X183898061Y-75642872D01*
X183898056Y-75642872D01*
X183811113Y-75661353D01*
X183717712Y-75681206D01*
X183711682Y-75683891D01*
X183711681Y-75683891D01*
X183549278Y-75756197D01*
X183549276Y-75756198D01*
X183543248Y-75758882D01*
X183508559Y-75784085D01*
X183441694Y-75807942D01*
X183372543Y-75791862D01*
X183323062Y-75740949D01*
X183308500Y-75682148D01*
X183308500Y-71084500D01*
X183328502Y-71016379D01*
X183382158Y-70969886D01*
X183434500Y-70958500D01*
X186282590Y-70958500D01*
X186350711Y-70978502D01*
X186397204Y-71032158D01*
X186407512Y-71100946D01*
X186402449Y-71139400D01*
X186403527Y-71147588D01*
X186406622Y-71171097D01*
X186407700Y-71187543D01*
X186407700Y-72407323D01*
X186406622Y-72423766D01*
X186402450Y-72455459D01*
X186407700Y-72495339D01*
X186407700Y-72495344D01*
X186417796Y-72572033D01*
X186423362Y-72614310D01*
X186484676Y-72762335D01*
X186489703Y-72768886D01*
X186489704Y-72768888D01*
X186557720Y-72857527D01*
X186557727Y-72857535D01*
X186565463Y-72867617D01*
X186591063Y-72933838D01*
X186591500Y-72944320D01*
X186591500Y-77595761D01*
X186571498Y-77663882D01*
X186554595Y-77684856D01*
X185584856Y-78654595D01*
X185522544Y-78688621D01*
X185495761Y-78691500D01*
X179314836Y-78691500D01*
X179298393Y-78690422D01*
X179266700Y-78686250D01*
X179258511Y-78687328D01*
X179226826Y-78691499D01*
X179226817Y-78691500D01*
X179226815Y-78691500D01*
X179226809Y-78691501D01*
X179226807Y-78691501D01*
X179127243Y-78704609D01*
X179116036Y-78706084D01*
X179116034Y-78706085D01*
X179107849Y-78707162D01*
X178959824Y-78768476D01*
X178953273Y-78773503D01*
X178953271Y-78773504D01*
X178898139Y-78815809D01*
X178864628Y-78841523D01*
X178864625Y-78841526D01*
X178832713Y-78866013D01*
X178827683Y-78872568D01*
X178813248Y-78891379D01*
X178802381Y-78903770D01*
X178152066Y-79554085D01*
X178139675Y-79564952D01*
X178114313Y-79584413D01*
X178089826Y-79616325D01*
X178089823Y-79616328D01*
X178016776Y-79711524D01*
X177955462Y-79859549D01*
X177955034Y-79862801D01*
X177954385Y-79867734D01*
X177954384Y-79867736D01*
X177939800Y-79978515D01*
X177939800Y-79978520D01*
X177937099Y-79999041D01*
X177934550Y-80018400D01*
X177937670Y-80042096D01*
X177938722Y-80050090D01*
X177939800Y-80066536D01*
X177939800Y-84005464D01*
X177938722Y-84021907D01*
X177934550Y-84053600D01*
X177939800Y-84093480D01*
X177939800Y-84093485D01*
X177947776Y-84154063D01*
X177948656Y-84160749D01*
X177948656Y-84160751D01*
X177953511Y-84197628D01*
X177955462Y-84212451D01*
X178016776Y-84360476D01*
X178021803Y-84367027D01*
X178021804Y-84367029D01*
X178089820Y-84455669D01*
X178089826Y-84455675D01*
X178114313Y-84487587D01*
X178120868Y-84492617D01*
X178139679Y-84507052D01*
X178152070Y-84517919D01*
X178214912Y-84580761D01*
X178248938Y-84643073D01*
X178243873Y-84713888D01*
X178199878Y-84771792D01*
X178123264Y-84827456D01*
X178063147Y-84871134D01*
X178058726Y-84876044D01*
X178058725Y-84876045D01*
X177947298Y-84999798D01*
X177935360Y-85013056D01*
X177839873Y-85178444D01*
X177780858Y-85360072D01*
X177780168Y-85366633D01*
X177780168Y-85366635D01*
X177767776Y-85484539D01*
X177760896Y-85550000D01*
X177761586Y-85556565D01*
X177778643Y-85718849D01*
X177780858Y-85739928D01*
X177839873Y-85921556D01*
X177935360Y-86086944D01*
X178063147Y-86228866D01*
X178110212Y-86263061D01*
X178188611Y-86320021D01*
X178217648Y-86341118D01*
X178223676Y-86343802D01*
X178223678Y-86343803D01*
X178354470Y-86402035D01*
X178392112Y-86418794D01*
X178475153Y-86436445D01*
X178572456Y-86457128D01*
X178572461Y-86457128D01*
X178578913Y-86458500D01*
X178769887Y-86458500D01*
X178776339Y-86457128D01*
X178776344Y-86457128D01*
X178873647Y-86436445D01*
X178956688Y-86418794D01*
X178994330Y-86402035D01*
X179125122Y-86343803D01*
X179125124Y-86343802D01*
X179131152Y-86341118D01*
X179188075Y-86299761D01*
X179205751Y-86286919D01*
X179272618Y-86263061D01*
X179341770Y-86279142D01*
X179368906Y-86299761D01*
X179493199Y-86424054D01*
X179504066Y-86436445D01*
X179523527Y-86461807D01*
X179530077Y-86466833D01*
X179555435Y-86486291D01*
X179555451Y-86486305D01*
X179596305Y-86517653D01*
X179650638Y-86559344D01*
X179697694Y-86578835D01*
X179791034Y-86617498D01*
X179791037Y-86617499D01*
X179798664Y-86620658D01*
X179957514Y-86641571D01*
X179989213Y-86637398D01*
X180005658Y-86636320D01*
X180473581Y-86636320D01*
X180541702Y-86656322D01*
X180562676Y-86673225D01*
X182044696Y-88155245D01*
X182055563Y-88167636D01*
X182075024Y-88192998D01*
X182081574Y-88198024D01*
X182106932Y-88217482D01*
X182106948Y-88217496D01*
X182139501Y-88242474D01*
X182202135Y-88290535D01*
X182350160Y-88351849D01*
X182358347Y-88352927D01*
X182358348Y-88352927D01*
X182364456Y-88353731D01*
X182469123Y-88367511D01*
X182469135Y-88367512D01*
X182500821Y-88371683D01*
X182500822Y-88371683D01*
X182509011Y-88372761D01*
X182540704Y-88368589D01*
X182557147Y-88367511D01*
X183136166Y-88367511D01*
X183204287Y-88387513D01*
X183225261Y-88404416D01*
X184616599Y-89795754D01*
X184627466Y-89808145D01*
X184646927Y-89833507D01*
X184653477Y-89838533D01*
X184678839Y-89857994D01*
X184678842Y-89857997D01*
X184688541Y-89865439D01*
X184774038Y-89931044D01*
X184922063Y-89992358D01*
X184930248Y-89993436D01*
X184930250Y-89993436D01*
X184938851Y-89994568D01*
X185041029Y-90008020D01*
X185041030Y-90008020D01*
X185041040Y-90008021D01*
X185072725Y-90012192D01*
X185080914Y-90013270D01*
X185112607Y-90009098D01*
X185129050Y-90008020D01*
X189065977Y-90008020D01*
X189134098Y-90028022D01*
X189180591Y-90081678D01*
X189190695Y-90151952D01*
X189175096Y-90197020D01*
X189107248Y-90314536D01*
X189103944Y-90320259D01*
X189044929Y-90501887D01*
X189044239Y-90508448D01*
X189044239Y-90508450D01*
X189031136Y-90633118D01*
X189024967Y-90691815D01*
X189025657Y-90698380D01*
X189043924Y-90872177D01*
X189044929Y-90881743D01*
X189103944Y-91063371D01*
X189107247Y-91069093D01*
X189107248Y-91069094D01*
X189128233Y-91105441D01*
X189199431Y-91228759D01*
X189203849Y-91233666D01*
X189203850Y-91233667D01*
X189280494Y-91318789D01*
X189327218Y-91370681D01*
X189481719Y-91482933D01*
X189487747Y-91485617D01*
X189487749Y-91485618D01*
X189650152Y-91557924D01*
X189656183Y-91560609D01*
X189749583Y-91580462D01*
X189836527Y-91598943D01*
X189836532Y-91598943D01*
X189842984Y-91600315D01*
X190033958Y-91600315D01*
X190040410Y-91598943D01*
X190040415Y-91598943D01*
X190127359Y-91580462D01*
X190220759Y-91560609D01*
X190226790Y-91557924D01*
X190389193Y-91485618D01*
X190389195Y-91485617D01*
X190395223Y-91482933D01*
X190501177Y-91405953D01*
X190541674Y-91376530D01*
X190549724Y-91370681D01*
X190560390Y-91358836D01*
X190575545Y-91342004D01*
X190635991Y-91304765D01*
X190669181Y-91300315D01*
X191220607Y-91300315D01*
X191239403Y-91302790D01*
X191239501Y-91302049D01*
X191398352Y-91322962D01*
X191430051Y-91318789D01*
X191446496Y-91317711D01*
X192020412Y-91317711D01*
X192036855Y-91318789D01*
X192068548Y-91322961D01*
X192076737Y-91321883D01*
X192108422Y-91317712D01*
X192108432Y-91317711D01*
X192108433Y-91317711D01*
X192208005Y-91304602D01*
X192219212Y-91303127D01*
X192219214Y-91303126D01*
X192227399Y-91302049D01*
X192375424Y-91240735D01*
X192384636Y-91233667D01*
X192470620Y-91167688D01*
X192470623Y-91167685D01*
X192495982Y-91148226D01*
X192502535Y-91143198D01*
X192520250Y-91120112D01*
X192522000Y-91117832D01*
X192532867Y-91105441D01*
X193759045Y-89879263D01*
X193771436Y-89868396D01*
X193790248Y-89853961D01*
X193796798Y-89848935D01*
X193821285Y-89817023D01*
X193821288Y-89817020D01*
X193885658Y-89733131D01*
X193894335Y-89721823D01*
X193955649Y-89573798D01*
X193971311Y-89454833D01*
X193971311Y-89454826D01*
X193976561Y-89414948D01*
X193972389Y-89383255D01*
X193971311Y-89366812D01*
X193971311Y-88991428D01*
X193991313Y-88923307D01*
X194008216Y-88902333D01*
X198458561Y-84451988D01*
X198520873Y-84417962D01*
X198591688Y-84423027D01*
X198621712Y-84439144D01*
X198693248Y-84491118D01*
X198699276Y-84493802D01*
X198699278Y-84493803D01*
X198861681Y-84566109D01*
X198867712Y-84568794D01*
X198936696Y-84583457D01*
X199048056Y-84607128D01*
X199048061Y-84607128D01*
X199054513Y-84608500D01*
X199245487Y-84608500D01*
X199251939Y-84607128D01*
X199251944Y-84607128D01*
X199363304Y-84583457D01*
X199432288Y-84568794D01*
X199438319Y-84566109D01*
X199600722Y-84493803D01*
X199600724Y-84493802D01*
X199606752Y-84491118D01*
X199616942Y-84483715D01*
X199673578Y-84442566D01*
X199761253Y-84378866D01*
X199771911Y-84367029D01*
X199884621Y-84241852D01*
X199884622Y-84241851D01*
X199889040Y-84236944D01*
X199966899Y-84102088D01*
X199981223Y-84077279D01*
X199981224Y-84077278D01*
X199984527Y-84071556D01*
X200043542Y-83889928D01*
X200044233Y-83883355D01*
X200044817Y-83880607D01*
X200078545Y-83818133D01*
X200140694Y-83783812D01*
X200211533Y-83788539D01*
X200257159Y-83817708D01*
X201204595Y-84765144D01*
X201238621Y-84827456D01*
X201241500Y-84854239D01*
X201241500Y-91216870D01*
X201240422Y-91233313D01*
X201236250Y-91265006D01*
X201241500Y-91304886D01*
X201241500Y-91304891D01*
X201252540Y-91388751D01*
X201257162Y-91423857D01*
X201318476Y-91571882D01*
X201323503Y-91578433D01*
X201323504Y-91578435D01*
X201391520Y-91667075D01*
X201391526Y-91667081D01*
X201416013Y-91698993D01*
X201422568Y-91704023D01*
X201441379Y-91718458D01*
X201453770Y-91729325D01*
X210617492Y-100893047D01*
X210651518Y-100955359D01*
X210653319Y-100965695D01*
X210655776Y-100984356D01*
X210657651Y-100998599D01*
X210718965Y-101146624D01*
X210723992Y-101153175D01*
X210723993Y-101153177D01*
X210792009Y-101241817D01*
X210792015Y-101241823D01*
X210816502Y-101273735D01*
X210823057Y-101278765D01*
X210841868Y-101293200D01*
X210854259Y-101304067D01*
X211195937Y-101645745D01*
X211206804Y-101658136D01*
X211226265Y-101683498D01*
X211258177Y-101707985D01*
X211258180Y-101707988D01*
X211309418Y-101747304D01*
X211353377Y-101781035D01*
X211501402Y-101842349D01*
X211620367Y-101858011D01*
X211620372Y-101858011D01*
X211620381Y-101858012D01*
X211652064Y-101862183D01*
X211660252Y-101863261D01*
X211691945Y-101859089D01*
X211708388Y-101858011D01*
X211935272Y-101858011D01*
X212003393Y-101878013D01*
X212024367Y-101894916D01*
X213029155Y-102899704D01*
X213063181Y-102962016D01*
X213063282Y-103005696D01*
X213064549Y-103005829D01*
X213047369Y-103169294D01*
X213045436Y-103187681D01*
X213018423Y-103253338D01*
X212960201Y-103293968D01*
X212920126Y-103300511D01*
X211718128Y-103300511D01*
X211650007Y-103280509D01*
X211629033Y-103263606D01*
X210755097Y-102389670D01*
X210721071Y-102327358D01*
X210718537Y-102303784D01*
X210718882Y-102300500D01*
X210698920Y-102110572D01*
X210639905Y-101928944D01*
X210623201Y-101900011D01*
X210570366Y-101808500D01*
X210544418Y-101763556D01*
X210494385Y-101707988D01*
X210421053Y-101626545D01*
X210421052Y-101626544D01*
X210416631Y-101621634D01*
X210262130Y-101509382D01*
X210256102Y-101506698D01*
X210256100Y-101506697D01*
X210093697Y-101434391D01*
X210093696Y-101434391D01*
X210087666Y-101431706D01*
X209994266Y-101411853D01*
X209907322Y-101393372D01*
X209907317Y-101393372D01*
X209900865Y-101392000D01*
X209809617Y-101392000D01*
X209741496Y-101371998D01*
X209720522Y-101355095D01*
X209169193Y-100803766D01*
X209158326Y-100791375D01*
X209143891Y-100772563D01*
X209138865Y-100766013D01*
X209106953Y-100741526D01*
X209106950Y-100741523D01*
X209011754Y-100668476D01*
X208863729Y-100607162D01*
X208855542Y-100606084D01*
X208855541Y-100606084D01*
X208844336Y-100604609D01*
X208809326Y-100600000D01*
X208744763Y-100591500D01*
X208744760Y-100591500D01*
X208744752Y-100591499D01*
X208713067Y-100587328D01*
X208704878Y-100586250D01*
X208673185Y-100590422D01*
X208656742Y-100591500D01*
X201436405Y-100591500D01*
X201368284Y-100571498D01*
X201362344Y-100567436D01*
X201287094Y-100512763D01*
X201287093Y-100512762D01*
X201281752Y-100508882D01*
X201275724Y-100506198D01*
X201275722Y-100506197D01*
X201113319Y-100433891D01*
X201113318Y-100433891D01*
X201107288Y-100431206D01*
X201007861Y-100410072D01*
X200926944Y-100392872D01*
X200926939Y-100392872D01*
X200920487Y-100391500D01*
X200729513Y-100391500D01*
X200723061Y-100392872D01*
X200723056Y-100392872D01*
X200642139Y-100410072D01*
X200542712Y-100431206D01*
X200536682Y-100433891D01*
X200536681Y-100433891D01*
X200374278Y-100506197D01*
X200374276Y-100506198D01*
X200368248Y-100508882D01*
X200213747Y-100621134D01*
X200209326Y-100626044D01*
X200209325Y-100626045D01*
X200106785Y-100739928D01*
X200085960Y-100763056D01*
X200062456Y-100803766D01*
X200010910Y-100893047D01*
X199990473Y-100928444D01*
X199931458Y-101110072D01*
X199930768Y-101116633D01*
X199930768Y-101116635D01*
X199913471Y-101281206D01*
X199911496Y-101300000D01*
X199912186Y-101306565D01*
X199929483Y-101471134D01*
X199931458Y-101489928D01*
X199990473Y-101671556D01*
X199993776Y-101677278D01*
X199993777Y-101677279D01*
X200012717Y-101710083D01*
X200085960Y-101836944D01*
X200090378Y-101841851D01*
X200090379Y-101841852D01*
X200209325Y-101973955D01*
X200213747Y-101978866D01*
X200368248Y-102091118D01*
X200374276Y-102093802D01*
X200374278Y-102093803D01*
X200426683Y-102117135D01*
X200542712Y-102168794D01*
X200636112Y-102188647D01*
X200723056Y-102207128D01*
X200723061Y-102207128D01*
X200729513Y-102208500D01*
X200920487Y-102208500D01*
X200926939Y-102207128D01*
X200926944Y-102207128D01*
X201013887Y-102188647D01*
X201107288Y-102168794D01*
X201223317Y-102117135D01*
X201275722Y-102093803D01*
X201275724Y-102093802D01*
X201281752Y-102091118D01*
X201436253Y-101978866D01*
X201443391Y-101970939D01*
X201543215Y-101860072D01*
X201552114Y-101850190D01*
X201612559Y-101812950D01*
X201645749Y-101808500D01*
X208400639Y-101808500D01*
X208468760Y-101828502D01*
X208489734Y-101845405D01*
X208855659Y-102211330D01*
X208889685Y-102273642D01*
X208892219Y-102297216D01*
X208891874Y-102300500D01*
X208892564Y-102307065D01*
X208905417Y-102429351D01*
X208911836Y-102490428D01*
X208970851Y-102672056D01*
X208974154Y-102677778D01*
X208974155Y-102677779D01*
X208998819Y-102720498D01*
X209066338Y-102837444D01*
X209070756Y-102842351D01*
X209070757Y-102842352D01*
X209096550Y-102870998D01*
X209194125Y-102979366D01*
X209348626Y-103091618D01*
X209354654Y-103094302D01*
X209354656Y-103094303D01*
X209489527Y-103154351D01*
X209523090Y-103169294D01*
X209609594Y-103187681D01*
X209703434Y-103207628D01*
X209703439Y-103207628D01*
X209709891Y-103209000D01*
X209801139Y-103209000D01*
X209869260Y-103229002D01*
X209890234Y-103245905D01*
X210949574Y-104305245D01*
X210960441Y-104317636D01*
X210979902Y-104342998D01*
X210986452Y-104348024D01*
X211011814Y-104367485D01*
X211011817Y-104367488D01*
X211098111Y-104433704D01*
X211107013Y-104440535D01*
X211255038Y-104501849D01*
X211263225Y-104502927D01*
X211263226Y-104502927D01*
X211274431Y-104504402D01*
X211298115Y-104507520D01*
X211374004Y-104517511D01*
X211374007Y-104517511D01*
X211374015Y-104517512D01*
X211405700Y-104521683D01*
X211413889Y-104522761D01*
X211445582Y-104518589D01*
X211462025Y-104517511D01*
X214799953Y-104517511D01*
X214816385Y-104518587D01*
X214832125Y-104520659D01*
X214897050Y-104549379D01*
X214936144Y-104608643D01*
X214936991Y-104679634D01*
X214904775Y-104734676D01*
X214284856Y-105354595D01*
X214222544Y-105388621D01*
X214195761Y-105391500D01*
X197369239Y-105391500D01*
X197301118Y-105371498D01*
X197280144Y-105354595D01*
X194479315Y-102553766D01*
X194468448Y-102541375D01*
X194454013Y-102522563D01*
X194448987Y-102516013D01*
X194417075Y-102491526D01*
X194417072Y-102491523D01*
X194345991Y-102436980D01*
X194328429Y-102423504D01*
X194328427Y-102423503D01*
X194321876Y-102418476D01*
X194173851Y-102357162D01*
X194165664Y-102356084D01*
X194165663Y-102356084D01*
X194152415Y-102354340D01*
X194054893Y-102341501D01*
X194054891Y-102341501D01*
X194054885Y-102341500D01*
X194054883Y-102341500D01*
X194054874Y-102341499D01*
X194023189Y-102337328D01*
X194015000Y-102336250D01*
X193983307Y-102340422D01*
X193966864Y-102341500D01*
X189304732Y-102341500D01*
X189288289Y-102340422D01*
X189249000Y-102335250D01*
X189217307Y-102339422D01*
X189200864Y-102340500D01*
X180003239Y-102340500D01*
X179935118Y-102320498D01*
X179914144Y-102303595D01*
X179749719Y-102139170D01*
X179715693Y-102076858D01*
X179713159Y-102053284D01*
X179713504Y-102050000D01*
X179706028Y-101978866D01*
X179694232Y-101866635D01*
X179694232Y-101866633D01*
X179693542Y-101860072D01*
X179634527Y-101678444D01*
X179619021Y-101651586D01*
X179596775Y-101613056D01*
X179539040Y-101513056D01*
X179533703Y-101507128D01*
X179415675Y-101376045D01*
X179415674Y-101376044D01*
X179411253Y-101371134D01*
X179304310Y-101293435D01*
X179262094Y-101262763D01*
X179262093Y-101262762D01*
X179256752Y-101258882D01*
X179250724Y-101256198D01*
X179250722Y-101256197D01*
X179088319Y-101183891D01*
X179088318Y-101183891D01*
X179082288Y-101181206D01*
X178988887Y-101161353D01*
X178901944Y-101142872D01*
X178901939Y-101142872D01*
X178895487Y-101141500D01*
X178704513Y-101141500D01*
X178698061Y-101142872D01*
X178698056Y-101142872D01*
X178611112Y-101161353D01*
X178517712Y-101181206D01*
X178511682Y-101183891D01*
X178511681Y-101183891D01*
X178349278Y-101256197D01*
X178349276Y-101256198D01*
X178343248Y-101258882D01*
X178337907Y-101262762D01*
X178337906Y-101262763D01*
X178295690Y-101293435D01*
X178188747Y-101371134D01*
X178184326Y-101376044D01*
X178184325Y-101376045D01*
X178066298Y-101507128D01*
X178060960Y-101513056D01*
X178003225Y-101613056D01*
X177980980Y-101651586D01*
X177965473Y-101678444D01*
X177906458Y-101860072D01*
X177905768Y-101866633D01*
X177905768Y-101866635D01*
X177893972Y-101978866D01*
X177886496Y-102050000D01*
X177887186Y-102056565D01*
X177905480Y-102230620D01*
X177906458Y-102239928D01*
X177965473Y-102421556D01*
X177968776Y-102427278D01*
X177968777Y-102427279D01*
X178040496Y-102551500D01*
X178057234Y-102620495D01*
X178034013Y-102687587D01*
X177978206Y-102731474D01*
X177931377Y-102740500D01*
X175453220Y-102740500D01*
X175385099Y-102720498D01*
X175364125Y-102703595D01*
X174649711Y-101989181D01*
X174615685Y-101926869D01*
X174613151Y-101903295D01*
X174613496Y-101900011D01*
X174609988Y-101866635D01*
X174594224Y-101716646D01*
X174594224Y-101716644D01*
X174593534Y-101710083D01*
X174534519Y-101528455D01*
X174525629Y-101513056D01*
X174477869Y-101430334D01*
X174439032Y-101363067D01*
X174388158Y-101306565D01*
X174315667Y-101226056D01*
X174315666Y-101226055D01*
X174311245Y-101221145D01*
X174156744Y-101108893D01*
X174150716Y-101106209D01*
X174150714Y-101106208D01*
X173988311Y-101033902D01*
X173988310Y-101033902D01*
X173982280Y-101031217D01*
X173864717Y-101006228D01*
X173801936Y-100992883D01*
X173801931Y-100992883D01*
X173795479Y-100991511D01*
X173604505Y-100991511D01*
X173598053Y-100992883D01*
X173598048Y-100992883D01*
X173535267Y-101006228D01*
X173417704Y-101031217D01*
X173253848Y-101104170D01*
X173183482Y-101113604D01*
X173119185Y-101083498D01*
X173081371Y-101023409D01*
X173076600Y-100989063D01*
X173076600Y-100085339D01*
X173096602Y-100017218D01*
X173113505Y-99996244D01*
X173175044Y-99934705D01*
X173237356Y-99900679D01*
X173264139Y-99897800D01*
X173355387Y-99897800D01*
X173361839Y-99896428D01*
X173361844Y-99896428D01*
X173448788Y-99877947D01*
X173542188Y-99858094D01*
X173548219Y-99855409D01*
X173710622Y-99783103D01*
X173710624Y-99783102D01*
X173716652Y-99780418D01*
X173726985Y-99772911D01*
X173865814Y-99672045D01*
X173871153Y-99668166D01*
X173876015Y-99662767D01*
X173896974Y-99639489D01*
X173957420Y-99602250D01*
X173990610Y-99597800D01*
X182381407Y-99597800D01*
X182449528Y-99617802D01*
X182496021Y-99671458D01*
X182506125Y-99741732D01*
X182476631Y-99806312D01*
X182455468Y-99825736D01*
X182306547Y-99933934D01*
X182302126Y-99938844D01*
X182302125Y-99938845D01*
X182185137Y-100068774D01*
X182178760Y-100075856D01*
X182083273Y-100241244D01*
X182024258Y-100422872D01*
X182004296Y-100612800D01*
X182004986Y-100619365D01*
X182022913Y-100789928D01*
X182024258Y-100802728D01*
X182083273Y-100984356D01*
X182178760Y-101149744D01*
X182183178Y-101154651D01*
X182183179Y-101154652D01*
X182298518Y-101282749D01*
X182306547Y-101291666D01*
X182327054Y-101306565D01*
X182438089Y-101387237D01*
X182461048Y-101403918D01*
X182467076Y-101406602D01*
X182467078Y-101406603D01*
X182629481Y-101478909D01*
X182635512Y-101481594D01*
X182704256Y-101496206D01*
X182815856Y-101519928D01*
X182815861Y-101519928D01*
X182822313Y-101521300D01*
X183013287Y-101521300D01*
X183019739Y-101519928D01*
X183019744Y-101519928D01*
X183131344Y-101496206D01*
X183200088Y-101481594D01*
X183206119Y-101478909D01*
X183368522Y-101406603D01*
X183368524Y-101406602D01*
X183374552Y-101403918D01*
X183389068Y-101393372D01*
X183520028Y-101298223D01*
X183529053Y-101291666D01*
X183544998Y-101273958D01*
X183554874Y-101262989D01*
X183615320Y-101225750D01*
X183648510Y-101221300D01*
X191180815Y-101221300D01*
X191248936Y-101241302D01*
X191274450Y-101262989D01*
X191284326Y-101273958D01*
X191284335Y-101273967D01*
X191288747Y-101278866D01*
X191295663Y-101283891D01*
X191416932Y-101371998D01*
X191443248Y-101391118D01*
X191449276Y-101393802D01*
X191449278Y-101393803D01*
X191540441Y-101434391D01*
X191617712Y-101468794D01*
X191684386Y-101482966D01*
X191798056Y-101507128D01*
X191798061Y-101507128D01*
X191804513Y-101508500D01*
X191995487Y-101508500D01*
X192001939Y-101507128D01*
X192001944Y-101507128D01*
X192115614Y-101482966D01*
X192182288Y-101468794D01*
X192259559Y-101434391D01*
X192350722Y-101393803D01*
X192350724Y-101393802D01*
X192356752Y-101391118D01*
X192511253Y-101278866D01*
X192544612Y-101241817D01*
X192634621Y-101141852D01*
X192634622Y-101141851D01*
X192639040Y-101136944D01*
X192734527Y-100971556D01*
X192793542Y-100789928D01*
X192795766Y-100768774D01*
X192812814Y-100606565D01*
X192813504Y-100600000D01*
X192803645Y-100506197D01*
X192794232Y-100416635D01*
X192794232Y-100416633D01*
X192793542Y-100410072D01*
X192734527Y-100228444D01*
X192639040Y-100063056D01*
X192599169Y-100018774D01*
X192515675Y-99926045D01*
X192515674Y-99926044D01*
X192511253Y-99921134D01*
X192384767Y-99829236D01*
X192362094Y-99812763D01*
X192362093Y-99812762D01*
X192356752Y-99808882D01*
X192350724Y-99806198D01*
X192350722Y-99806197D01*
X192188319Y-99733891D01*
X192188318Y-99733891D01*
X192182288Y-99731206D01*
X192088887Y-99711353D01*
X192001944Y-99692872D01*
X192001939Y-99692872D01*
X191995487Y-99691500D01*
X191804513Y-99691500D01*
X191798061Y-99692872D01*
X191798056Y-99692872D01*
X191711113Y-99711353D01*
X191617712Y-99731206D01*
X191611682Y-99733891D01*
X191611681Y-99733891D01*
X191449278Y-99806197D01*
X191449276Y-99806198D01*
X191443248Y-99808882D01*
X191437907Y-99812762D01*
X191437906Y-99812763D01*
X191415233Y-99829236D01*
X191288747Y-99921134D01*
X191284326Y-99926044D01*
X191284325Y-99926045D01*
X191251402Y-99962610D01*
X191190956Y-99999850D01*
X191157766Y-100004300D01*
X185301120Y-100004300D01*
X185232999Y-99984298D01*
X185186506Y-99930642D01*
X185176402Y-99860368D01*
X185205896Y-99795788D01*
X185227059Y-99776364D01*
X185271875Y-99743803D01*
X185361253Y-99678866D01*
X185393662Y-99642872D01*
X185484621Y-99541852D01*
X185484622Y-99541851D01*
X185489040Y-99536944D01*
X185547314Y-99436010D01*
X185581223Y-99377279D01*
X185581224Y-99377278D01*
X185584527Y-99371556D01*
X185643542Y-99189928D01*
X185644478Y-99181028D01*
X185663504Y-99000000D01*
X185665227Y-99000181D01*
X185682816Y-98940279D01*
X185736472Y-98893786D01*
X185788814Y-98882400D01*
X188249290Y-98882400D01*
X188317411Y-98902402D01*
X188342926Y-98924089D01*
X188357504Y-98940279D01*
X188368747Y-98952766D01*
X188390329Y-98968446D01*
X188419032Y-98989300D01*
X188523248Y-99065018D01*
X188529276Y-99067702D01*
X188529278Y-99067703D01*
X188691499Y-99139928D01*
X188697712Y-99142694D01*
X188791113Y-99162547D01*
X188878056Y-99181028D01*
X188878061Y-99181028D01*
X188884513Y-99182400D01*
X189075487Y-99182400D01*
X189081939Y-99181028D01*
X189081944Y-99181028D01*
X189168888Y-99162547D01*
X189262288Y-99142694D01*
X189268501Y-99139928D01*
X189430722Y-99067703D01*
X189430724Y-99067702D01*
X189436752Y-99065018D01*
X189591253Y-98952766D01*
X189719040Y-98810844D01*
X189814527Y-98645456D01*
X189873542Y-98463828D01*
X189878558Y-98416109D01*
X189892814Y-98280465D01*
X189893504Y-98273900D01*
X189884869Y-98191742D01*
X189874232Y-98090535D01*
X189874232Y-98090533D01*
X189873542Y-98083972D01*
X189814527Y-97902344D01*
X189800282Y-97877670D01*
X189724424Y-97746281D01*
X189719040Y-97736956D01*
X189704508Y-97720816D01*
X189595675Y-97599945D01*
X189595674Y-97599944D01*
X189591253Y-97595034D01*
X189436752Y-97482782D01*
X189430724Y-97480098D01*
X189430722Y-97480097D01*
X189268319Y-97407791D01*
X189268318Y-97407791D01*
X189262288Y-97405106D01*
X189168887Y-97385253D01*
X189081944Y-97366772D01*
X189081939Y-97366772D01*
X189075487Y-97365400D01*
X188884513Y-97365400D01*
X188878061Y-97366772D01*
X188878056Y-97366772D01*
X188791113Y-97385253D01*
X188697712Y-97405106D01*
X188691682Y-97407791D01*
X188691681Y-97407791D01*
X188529278Y-97480097D01*
X188529276Y-97480098D01*
X188523248Y-97482782D01*
X188517907Y-97486662D01*
X188517906Y-97486663D01*
X188430731Y-97550000D01*
X188368747Y-97595034D01*
X188364334Y-97599936D01*
X188364332Y-97599937D01*
X188342926Y-97623711D01*
X188282480Y-97660950D01*
X188249290Y-97665400D01*
X185524236Y-97665400D01*
X185507790Y-97664322D01*
X185484288Y-97661228D01*
X185476100Y-97660150D01*
X185467912Y-97661228D01*
X185436229Y-97665399D01*
X185436220Y-97665400D01*
X185436215Y-97665400D01*
X185317250Y-97681062D01*
X185169225Y-97742376D01*
X185148242Y-97758477D01*
X185074028Y-97815423D01*
X185074025Y-97815426D01*
X185042113Y-97839913D01*
X185037083Y-97846468D01*
X185022648Y-97865279D01*
X185011781Y-97877670D01*
X184834856Y-98054595D01*
X184772544Y-98088621D01*
X184745761Y-98091500D01*
X184654513Y-98091500D01*
X184648061Y-98092872D01*
X184648056Y-98092872D01*
X184561113Y-98111353D01*
X184467712Y-98131206D01*
X184461682Y-98133891D01*
X184461681Y-98133891D01*
X184299278Y-98206197D01*
X184299276Y-98206198D01*
X184293248Y-98208882D01*
X184287907Y-98212762D01*
X184287906Y-98212763D01*
X184146715Y-98315345D01*
X184138747Y-98321134D01*
X184134329Y-98326041D01*
X184134321Y-98326048D01*
X184122559Y-98339111D01*
X184062113Y-98376350D01*
X184028924Y-98380800D01*
X173990610Y-98380800D01*
X173922489Y-98360798D01*
X173896974Y-98339111D01*
X173875568Y-98315337D01*
X173875566Y-98315336D01*
X173871153Y-98310434D01*
X173823821Y-98276045D01*
X173721994Y-98202063D01*
X173721993Y-98202062D01*
X173716652Y-98198182D01*
X173710624Y-98195498D01*
X173710622Y-98195497D01*
X173548219Y-98123191D01*
X173548218Y-98123191D01*
X173542188Y-98120506D01*
X173448788Y-98100653D01*
X173361844Y-98082172D01*
X173361839Y-98082172D01*
X173355387Y-98080800D01*
X173164413Y-98080800D01*
X173157961Y-98082172D01*
X173157956Y-98082172D01*
X173071013Y-98100653D01*
X172977612Y-98120506D01*
X172971582Y-98123191D01*
X172971581Y-98123191D01*
X172809178Y-98195497D01*
X172809176Y-98195498D01*
X172803148Y-98198182D01*
X172648647Y-98310434D01*
X172520860Y-98452356D01*
X172462586Y-98553290D01*
X172432420Y-98605539D01*
X172425373Y-98617744D01*
X172366358Y-98799372D01*
X172365668Y-98805933D01*
X172365668Y-98805935D01*
X172356435Y-98893786D01*
X172346396Y-98989300D01*
X172346584Y-98991086D01*
X172327084Y-99057496D01*
X172310181Y-99078470D01*
X172071866Y-99316785D01*
X172059475Y-99327652D01*
X172034113Y-99347113D01*
X172009626Y-99379025D01*
X172009623Y-99379028D01*
X171936576Y-99474224D01*
X171877175Y-99617631D01*
X171875262Y-99622250D01*
X171859600Y-99741215D01*
X171859600Y-99741220D01*
X171854350Y-99781100D01*
X171858008Y-99808882D01*
X171858522Y-99812790D01*
X171859600Y-99829236D01*
X171859600Y-102222364D01*
X171858522Y-102238807D01*
X171854350Y-102270500D01*
X171859600Y-102310380D01*
X171859600Y-102310385D01*
X171868140Y-102375253D01*
X171875262Y-102429351D01*
X171936576Y-102577376D01*
X171941603Y-102583927D01*
X171941604Y-102583929D01*
X172009620Y-102672569D01*
X172009626Y-102672575D01*
X172034113Y-102704487D01*
X172040668Y-102709517D01*
X172059479Y-102723952D01*
X172071870Y-102734819D01*
X173533285Y-104196234D01*
X173544152Y-104208625D01*
X173563613Y-104233987D01*
X173570163Y-104239013D01*
X173595521Y-104258471D01*
X173595537Y-104258485D01*
X173643456Y-104295254D01*
X173690724Y-104331524D01*
X173838749Y-104392838D01*
X173997600Y-104413751D01*
X174029299Y-104409578D01*
X174045744Y-104408500D01*
X193430755Y-104408500D01*
X193498876Y-104428502D01*
X193519850Y-104445405D01*
X195815850Y-106741405D01*
X195849876Y-106803717D01*
X195844811Y-106874532D01*
X195802264Y-106931368D01*
X195735744Y-106956179D01*
X195726755Y-106956500D01*
X171324500Y-106956500D01*
X171256379Y-106936498D01*
X171209886Y-106882842D01*
X171198500Y-106830500D01*
X171198500Y-93950000D01*
X171886996Y-93950000D01*
X171887686Y-93956565D01*
X171891240Y-93990375D01*
X171906958Y-94139928D01*
X171965973Y-94321556D01*
X172061460Y-94486944D01*
X172065878Y-94491851D01*
X172065879Y-94491852D01*
X172119655Y-94551576D01*
X172189247Y-94628866D01*
X172267356Y-94685616D01*
X172333753Y-94733856D01*
X172343748Y-94741118D01*
X172349776Y-94743802D01*
X172349778Y-94743803D01*
X172512181Y-94816109D01*
X172518212Y-94818794D01*
X172611612Y-94838647D01*
X172698556Y-94857128D01*
X172698561Y-94857128D01*
X172705013Y-94858500D01*
X172895987Y-94858500D01*
X172902439Y-94857128D01*
X172902444Y-94857128D01*
X172989387Y-94838647D01*
X173082788Y-94818794D01*
X173088819Y-94816109D01*
X173251222Y-94743803D01*
X173251224Y-94743802D01*
X173257252Y-94741118D01*
X173267248Y-94733856D01*
X173333644Y-94685616D01*
X173411753Y-94628866D01*
X173481345Y-94551576D01*
X173535121Y-94491852D01*
X173535122Y-94491851D01*
X173539540Y-94486944D01*
X173635027Y-94321556D01*
X173640412Y-94304984D01*
X173680485Y-94246380D01*
X173745882Y-94218743D01*
X173815838Y-94230850D01*
X173853878Y-94259610D01*
X173938747Y-94353866D01*
X174093248Y-94466118D01*
X174099276Y-94468802D01*
X174099278Y-94468803D01*
X174154574Y-94493422D01*
X174267712Y-94543794D01*
X174339787Y-94559114D01*
X174448056Y-94582128D01*
X174448061Y-94582128D01*
X174454513Y-94583500D01*
X174645487Y-94583500D01*
X174651939Y-94582128D01*
X174651944Y-94582128D01*
X174760213Y-94559114D01*
X174832288Y-94543794D01*
X174945426Y-94493422D01*
X175000722Y-94468803D01*
X175000724Y-94468802D01*
X175006752Y-94466118D01*
X175065283Y-94423593D01*
X175149625Y-94362314D01*
X175161253Y-94353866D01*
X175165672Y-94348959D01*
X175187074Y-94325189D01*
X175247520Y-94287950D01*
X175280710Y-94283500D01*
X175435161Y-94283500D01*
X175503282Y-94303502D01*
X175524256Y-94320405D01*
X178117685Y-96913834D01*
X178128552Y-96926225D01*
X178148013Y-96951587D01*
X178179925Y-96976074D01*
X178179928Y-96976077D01*
X178241441Y-97023277D01*
X178275125Y-97049124D01*
X178282751Y-97052283D01*
X178282753Y-97052284D01*
X178388356Y-97096026D01*
X178423150Y-97110438D01*
X178542115Y-97126100D01*
X178542120Y-97126100D01*
X178542129Y-97126101D01*
X178573812Y-97130272D01*
X178582000Y-97131350D01*
X178613693Y-97127178D01*
X178630136Y-97126100D01*
X181271164Y-97126100D01*
X181287607Y-97127178D01*
X181319300Y-97131350D01*
X181327489Y-97130272D01*
X181359174Y-97126101D01*
X181359184Y-97126100D01*
X181359185Y-97126100D01*
X181359201Y-97126098D01*
X181458757Y-97112991D01*
X181469964Y-97111516D01*
X181469966Y-97111515D01*
X181478151Y-97110438D01*
X181626176Y-97049124D01*
X181659861Y-97023277D01*
X181721372Y-96976077D01*
X181721375Y-96976074D01*
X181746734Y-96956615D01*
X181753287Y-96951587D01*
X181762601Y-96939449D01*
X181772752Y-96926221D01*
X181783619Y-96913830D01*
X182328855Y-96368594D01*
X183186943Y-95510505D01*
X183249255Y-95476480D01*
X183276038Y-95473600D01*
X183866386Y-95473600D01*
X183934507Y-95493602D01*
X183981000Y-95547258D01*
X183991696Y-95586429D01*
X184009458Y-95755428D01*
X184068473Y-95937056D01*
X184071776Y-95942778D01*
X184071777Y-95942779D01*
X184094555Y-95982231D01*
X184111293Y-96051226D01*
X184094555Y-96108231D01*
X184045473Y-96193244D01*
X183986458Y-96374872D01*
X183985768Y-96381433D01*
X183985768Y-96381435D01*
X183984216Y-96396206D01*
X183966496Y-96564800D01*
X183967186Y-96571365D01*
X183985105Y-96741852D01*
X183986458Y-96754728D01*
X184045473Y-96936356D01*
X184048776Y-96942078D01*
X184048777Y-96942079D01*
X184068404Y-96976074D01*
X184140960Y-97101744D01*
X184268747Y-97243666D01*
X184308632Y-97272644D01*
X184414346Y-97349450D01*
X184423248Y-97355918D01*
X184429276Y-97358602D01*
X184429278Y-97358603D01*
X184571743Y-97422032D01*
X184597712Y-97433594D01*
X184691113Y-97453447D01*
X184778056Y-97471928D01*
X184778061Y-97471928D01*
X184784513Y-97473300D01*
X184975487Y-97473300D01*
X184981939Y-97471928D01*
X184981944Y-97471928D01*
X185068887Y-97453447D01*
X185162288Y-97433594D01*
X185188257Y-97422032D01*
X185330722Y-97358603D01*
X185330724Y-97358602D01*
X185336752Y-97355918D01*
X185345655Y-97349450D01*
X185451368Y-97272644D01*
X185491253Y-97243666D01*
X185619040Y-97101744D01*
X185679802Y-96996500D01*
X185731186Y-96947507D01*
X185788922Y-96933500D01*
X190745761Y-96933500D01*
X190813882Y-96953502D01*
X190834856Y-96970405D01*
X198159705Y-104295254D01*
X198170572Y-104307645D01*
X198190033Y-104333007D01*
X198196583Y-104338033D01*
X198221941Y-104357491D01*
X198221957Y-104357505D01*
X198264030Y-104389788D01*
X198317144Y-104430544D01*
X198465169Y-104491858D01*
X198474786Y-104493124D01*
X198511236Y-104497923D01*
X198584133Y-104507520D01*
X198584146Y-104507521D01*
X198615831Y-104511692D01*
X198624020Y-104512770D01*
X198655713Y-104508598D01*
X198672156Y-104507520D01*
X200706022Y-104507520D01*
X200774143Y-104527522D01*
X200795117Y-104544425D01*
X200845937Y-104595245D01*
X200856804Y-104607636D01*
X200876265Y-104632998D01*
X200882815Y-104638024D01*
X200908177Y-104657485D01*
X200908180Y-104657488D01*
X200977570Y-104710733D01*
X200996822Y-104725506D01*
X200996824Y-104725507D01*
X201003377Y-104730535D01*
X201151402Y-104791849D01*
X201270367Y-104807511D01*
X201270372Y-104807511D01*
X201270381Y-104807512D01*
X201302064Y-104811683D01*
X201310252Y-104812761D01*
X201341945Y-104808589D01*
X201358388Y-104807511D01*
X202002853Y-104807511D01*
X202019296Y-104808589D01*
X202050989Y-104812761D01*
X202059178Y-104811683D01*
X202090863Y-104807512D01*
X202090873Y-104807511D01*
X202090874Y-104807511D01*
X202090890Y-104807509D01*
X202190446Y-104794402D01*
X202201653Y-104792927D01*
X202201655Y-104792926D01*
X202209840Y-104791849D01*
X202357865Y-104730535D01*
X202383672Y-104710733D01*
X202453061Y-104657488D01*
X202453064Y-104657485D01*
X202478423Y-104638026D01*
X202484976Y-104632998D01*
X202490006Y-104626443D01*
X202504441Y-104607632D01*
X202515308Y-104595241D01*
X202645522Y-104465027D01*
X202707834Y-104431001D01*
X202734617Y-104428122D01*
X202825865Y-104428122D01*
X202832317Y-104426750D01*
X202832322Y-104426750D01*
X202919265Y-104408269D01*
X203012666Y-104388416D01*
X203018697Y-104385731D01*
X203181100Y-104313425D01*
X203181102Y-104313424D01*
X203187130Y-104310740D01*
X203341631Y-104198488D01*
X203469418Y-104056566D01*
X203564905Y-103891178D01*
X203623920Y-103709550D01*
X203643882Y-103519622D01*
X203623920Y-103329694D01*
X203564905Y-103148066D01*
X203469418Y-102982678D01*
X203353642Y-102854095D01*
X203346053Y-102845667D01*
X203346052Y-102845666D01*
X203341631Y-102840756D01*
X203240496Y-102767277D01*
X203192472Y-102732385D01*
X203192469Y-102732383D01*
X203187130Y-102728504D01*
X203181102Y-102725820D01*
X203181100Y-102725819D01*
X203018697Y-102653513D01*
X203018696Y-102653513D01*
X203012666Y-102650828D01*
X202911545Y-102629334D01*
X202832322Y-102612494D01*
X202832317Y-102612494D01*
X202825865Y-102611122D01*
X202634891Y-102611122D01*
X202628439Y-102612494D01*
X202628434Y-102612494D01*
X202549211Y-102629334D01*
X202448090Y-102650828D01*
X202442060Y-102653513D01*
X202442059Y-102653513D01*
X202279656Y-102725819D01*
X202279654Y-102725820D01*
X202273626Y-102728504D01*
X202253097Y-102743419D01*
X202186232Y-102767277D01*
X202117081Y-102751198D01*
X202104976Y-102743419D01*
X202100959Y-102740500D01*
X202056752Y-102708382D01*
X202050724Y-102705698D01*
X202050722Y-102705697D01*
X201888319Y-102633391D01*
X201888318Y-102633391D01*
X201882288Y-102630706D01*
X201788888Y-102610853D01*
X201701944Y-102592372D01*
X201701939Y-102592372D01*
X201695487Y-102591000D01*
X201504513Y-102591000D01*
X201498061Y-102592372D01*
X201498056Y-102592372D01*
X201411113Y-102610853D01*
X201317712Y-102630706D01*
X201311682Y-102633391D01*
X201311681Y-102633391D01*
X201149278Y-102705697D01*
X201149276Y-102705698D01*
X201143248Y-102708382D01*
X201137907Y-102712262D01*
X201137906Y-102712263D01*
X201095025Y-102743418D01*
X200988747Y-102820634D01*
X200984334Y-102825536D01*
X200984332Y-102825537D01*
X200962926Y-102849311D01*
X200902480Y-102886550D01*
X200869290Y-102891000D01*
X199403739Y-102891000D01*
X199335618Y-102870998D01*
X199314644Y-102854095D01*
X196158044Y-99697495D01*
X196124018Y-99635183D01*
X196129083Y-99564368D01*
X196171630Y-99507532D01*
X196238150Y-99482721D01*
X196247139Y-99482400D01*
X203157985Y-99482400D01*
X203226106Y-99502402D01*
X203258898Y-99533373D01*
X203260960Y-99536944D01*
X203265381Y-99541854D01*
X203355103Y-99641500D01*
X203388747Y-99678866D01*
X203543248Y-99791118D01*
X203549276Y-99793802D01*
X203549278Y-99793803D01*
X203711681Y-99866109D01*
X203717712Y-99868794D01*
X203811112Y-99888647D01*
X203898056Y-99907128D01*
X203898061Y-99907128D01*
X203904513Y-99908500D01*
X204095487Y-99908500D01*
X204101939Y-99907128D01*
X204101944Y-99907128D01*
X204188888Y-99888647D01*
X204282288Y-99868794D01*
X204288319Y-99866109D01*
X204450722Y-99793803D01*
X204450724Y-99793802D01*
X204456752Y-99791118D01*
X204611253Y-99678866D01*
X204643662Y-99642872D01*
X204734621Y-99541852D01*
X204734622Y-99541851D01*
X204739040Y-99536944D01*
X204797314Y-99436010D01*
X204831223Y-99377279D01*
X204831224Y-99377278D01*
X204834527Y-99371556D01*
X204893542Y-99189928D01*
X204894478Y-99181028D01*
X204912814Y-99006565D01*
X204913504Y-99000000D01*
X204893542Y-98810072D01*
X204834527Y-98628444D01*
X204828350Y-98617744D01*
X204742341Y-98468774D01*
X204739040Y-98463056D01*
X204733703Y-98457128D01*
X204615675Y-98326045D01*
X204615674Y-98326044D01*
X204611253Y-98321134D01*
X204456752Y-98208882D01*
X204450724Y-98206198D01*
X204450722Y-98206197D01*
X204288319Y-98133891D01*
X204288318Y-98133891D01*
X204282288Y-98131206D01*
X204188887Y-98111353D01*
X204101944Y-98092872D01*
X204101939Y-98092872D01*
X204095487Y-98091500D01*
X203904513Y-98091500D01*
X203898061Y-98092872D01*
X203898056Y-98092872D01*
X203811113Y-98111353D01*
X203717712Y-98131206D01*
X203711682Y-98133891D01*
X203711681Y-98133891D01*
X203549278Y-98206197D01*
X203549276Y-98206198D01*
X203543248Y-98208882D01*
X203537907Y-98212762D01*
X203537906Y-98212763D01*
X203498579Y-98241336D01*
X203431711Y-98265194D01*
X203424518Y-98265400D01*
X196045691Y-98265400D01*
X195977570Y-98245398D01*
X195931077Y-98191742D01*
X195920381Y-98152569D01*
X195919232Y-98141637D01*
X195918542Y-98135072D01*
X195913364Y-98119134D01*
X195861569Y-97959729D01*
X195859527Y-97953444D01*
X195841117Y-97921556D01*
X195767341Y-97793774D01*
X195764040Y-97788056D01*
X195720706Y-97739928D01*
X195640675Y-97651045D01*
X195640674Y-97651044D01*
X195636253Y-97646134D01*
X195512972Y-97556565D01*
X195487094Y-97537763D01*
X195487093Y-97537762D01*
X195481752Y-97533882D01*
X195475724Y-97531198D01*
X195475722Y-97531197D01*
X195313319Y-97458891D01*
X195313318Y-97458891D01*
X195307288Y-97456206D01*
X195207362Y-97434966D01*
X195126944Y-97417872D01*
X195126939Y-97417872D01*
X195120487Y-97416500D01*
X194929513Y-97416500D01*
X194923061Y-97417872D01*
X194923056Y-97417872D01*
X194842638Y-97434966D01*
X194742712Y-97456206D01*
X194736682Y-97458891D01*
X194736681Y-97458891D01*
X194574278Y-97531197D01*
X194574276Y-97531198D01*
X194568248Y-97533882D01*
X194562907Y-97537762D01*
X194562906Y-97537763D01*
X194537028Y-97556565D01*
X194413747Y-97646134D01*
X194357103Y-97709043D01*
X194296661Y-97746281D01*
X194225677Y-97744930D01*
X194174375Y-97713826D01*
X192367244Y-95906695D01*
X192333218Y-95844383D01*
X192338283Y-95773568D01*
X192380830Y-95716732D01*
X192447350Y-95691921D01*
X192456339Y-95691600D01*
X200036512Y-95691600D01*
X200104633Y-95711602D01*
X200151126Y-95765258D01*
X200161230Y-95835532D01*
X200156345Y-95856536D01*
X200128323Y-95942779D01*
X200106458Y-96010072D01*
X200105768Y-96016633D01*
X200105768Y-96016635D01*
X200096141Y-96108231D01*
X200086496Y-96200000D01*
X200087186Y-96206565D01*
X200104876Y-96374872D01*
X200106458Y-96389928D01*
X200165473Y-96571556D01*
X200260960Y-96736944D01*
X200265378Y-96741851D01*
X200265379Y-96741852D01*
X200287162Y-96766044D01*
X200388747Y-96878866D01*
X200463944Y-96933500D01*
X200522538Y-96976071D01*
X200543248Y-96991118D01*
X200549276Y-96993802D01*
X200549278Y-96993803D01*
X200711681Y-97066109D01*
X200717712Y-97068794D01*
X200811113Y-97088647D01*
X200898056Y-97107128D01*
X200898061Y-97107128D01*
X200904513Y-97108500D01*
X201095487Y-97108500D01*
X201101939Y-97107128D01*
X201101944Y-97107128D01*
X201188887Y-97088647D01*
X201282288Y-97068794D01*
X201288319Y-97066109D01*
X201450722Y-96993803D01*
X201450724Y-96993802D01*
X201456752Y-96991118D01*
X201477463Y-96976071D01*
X201536056Y-96933500D01*
X201611253Y-96878866D01*
X201712838Y-96766044D01*
X201734621Y-96741852D01*
X201734622Y-96741851D01*
X201739040Y-96736944D01*
X201834527Y-96571556D01*
X201893542Y-96389928D01*
X201895125Y-96374872D01*
X201912814Y-96206565D01*
X201913504Y-96200000D01*
X201903859Y-96108231D01*
X201894232Y-96016635D01*
X201894232Y-96016633D01*
X201893542Y-96010072D01*
X201834527Y-95828444D01*
X201739040Y-95663056D01*
X201611253Y-95521134D01*
X201578633Y-95497434D01*
X201538859Y-95446983D01*
X201538816Y-95447008D01*
X201538643Y-95446709D01*
X201536287Y-95443720D01*
X201534686Y-95439855D01*
X201534682Y-95439848D01*
X201531524Y-95432224D01*
X201458477Y-95337028D01*
X201458474Y-95337025D01*
X201433987Y-95305113D01*
X201427432Y-95300083D01*
X201408621Y-95285648D01*
X201396230Y-95274781D01*
X200808315Y-94686866D01*
X200797448Y-94674475D01*
X200783013Y-94655663D01*
X200777987Y-94649113D01*
X200746075Y-94624626D01*
X200746072Y-94624623D01*
X200650876Y-94551576D01*
X200502851Y-94490262D01*
X200494664Y-94489184D01*
X200494663Y-94489184D01*
X200477647Y-94486944D01*
X200383885Y-94474600D01*
X200383876Y-94474599D01*
X200352190Y-94470428D01*
X200352189Y-94470428D01*
X200344000Y-94469350D01*
X200312307Y-94473522D01*
X200295864Y-94474600D01*
X195865139Y-94474600D01*
X195797018Y-94454598D01*
X195750525Y-94400942D01*
X195740421Y-94330668D01*
X195769915Y-94266088D01*
X195776044Y-94259505D01*
X197034863Y-93000686D01*
X197097175Y-92966660D01*
X197123958Y-92963781D01*
X198657227Y-92963781D01*
X198725348Y-92983783D01*
X198750863Y-93005470D01*
X198769167Y-93025798D01*
X198776684Y-93034147D01*
X198793684Y-93046498D01*
X198922813Y-93140316D01*
X198931185Y-93146399D01*
X198937213Y-93149083D01*
X198937215Y-93149084D01*
X199095845Y-93219710D01*
X199105649Y-93224075D01*
X199180631Y-93240013D01*
X199285993Y-93262409D01*
X199285998Y-93262409D01*
X199292450Y-93263781D01*
X199483424Y-93263781D01*
X199489876Y-93262409D01*
X199489881Y-93262409D01*
X199595243Y-93240013D01*
X199670225Y-93224075D01*
X199680029Y-93219710D01*
X199838659Y-93149084D01*
X199838661Y-93149083D01*
X199844689Y-93146399D01*
X199853062Y-93140316D01*
X199962706Y-93060654D01*
X199999190Y-93034147D01*
X200003612Y-93029235D01*
X200008514Y-93024822D01*
X200009393Y-93025798D01*
X200063812Y-92992278D01*
X200134796Y-92993636D01*
X200186087Y-93024736D01*
X205704578Y-98543227D01*
X205738604Y-98605539D01*
X205735316Y-98671257D01*
X205706458Y-98760072D01*
X205705768Y-98766635D01*
X205705767Y-98766642D01*
X205700606Y-98815752D01*
X205686496Y-98950000D01*
X205687186Y-98956565D01*
X205699999Y-99078470D01*
X205706458Y-99139928D01*
X205765473Y-99321556D01*
X205768776Y-99327278D01*
X205768777Y-99327279D01*
X205798653Y-99379025D01*
X205860960Y-99486944D01*
X205865378Y-99491851D01*
X205865379Y-99491852D01*
X205905980Y-99536944D01*
X205988747Y-99628866D01*
X206143248Y-99741118D01*
X206149276Y-99743802D01*
X206149278Y-99743803D01*
X206311681Y-99816109D01*
X206317712Y-99818794D01*
X206411113Y-99838647D01*
X206498056Y-99857128D01*
X206498061Y-99857128D01*
X206504513Y-99858500D01*
X206695487Y-99858500D01*
X206701939Y-99857128D01*
X206701944Y-99857128D01*
X206788888Y-99838647D01*
X206882288Y-99818794D01*
X206888319Y-99816109D01*
X207050722Y-99743803D01*
X207050724Y-99743802D01*
X207056752Y-99741118D01*
X207211253Y-99628866D01*
X207294020Y-99536944D01*
X207334621Y-99491852D01*
X207334622Y-99491851D01*
X207339040Y-99486944D01*
X207401347Y-99379025D01*
X207431223Y-99327279D01*
X207431224Y-99327278D01*
X207434527Y-99321556D01*
X207493542Y-99139928D01*
X207500002Y-99078470D01*
X207512814Y-98956565D01*
X207513504Y-98950000D01*
X207498797Y-98810072D01*
X207494232Y-98766635D01*
X207494232Y-98766633D01*
X207493542Y-98760072D01*
X207434527Y-98578444D01*
X207414195Y-98543227D01*
X207368353Y-98463828D01*
X207339040Y-98413056D01*
X207276685Y-98343803D01*
X207215675Y-98276045D01*
X207215674Y-98276044D01*
X207211253Y-98271134D01*
X207101980Y-98191742D01*
X207062097Y-98162765D01*
X207062094Y-98162764D01*
X207056752Y-98158882D01*
X207050719Y-98156196D01*
X207050478Y-98156057D01*
X207034331Y-98143666D01*
X207033988Y-98144113D01*
X207008621Y-98124648D01*
X206996230Y-98113781D01*
X200268605Y-91386156D01*
X200234579Y-91323844D01*
X200231700Y-91297061D01*
X200231700Y-88530936D01*
X200232778Y-88514490D01*
X200235872Y-88490988D01*
X200236950Y-88482800D01*
X200231700Y-88442920D01*
X200231700Y-88442915D01*
X200221622Y-88366368D01*
X200217116Y-88332138D01*
X200216038Y-88323950D01*
X200202197Y-88290535D01*
X200154724Y-88175924D01*
X200113408Y-88122080D01*
X200092130Y-88094351D01*
X200062214Y-88055364D01*
X200062213Y-88055363D01*
X200057187Y-88048813D01*
X200031817Y-88029346D01*
X200019433Y-88018484D01*
X199390802Y-87389853D01*
X199356776Y-87327541D01*
X199361841Y-87256726D01*
X199404388Y-87199890D01*
X199428648Y-87185651D01*
X199561722Y-87126403D01*
X199561724Y-87126402D01*
X199567752Y-87123718D01*
X199577514Y-87116626D01*
X199713865Y-87017560D01*
X199722253Y-87011466D01*
X199776993Y-86950671D01*
X199845621Y-86874452D01*
X199845622Y-86874451D01*
X199850040Y-86869544D01*
X199917857Y-86752081D01*
X199942223Y-86709879D01*
X199942224Y-86709878D01*
X199945527Y-86704156D01*
X200004542Y-86522528D01*
X200011613Y-86455257D01*
X200023814Y-86339165D01*
X200024504Y-86332600D01*
X200018885Y-86279142D01*
X200005232Y-86149235D01*
X200005232Y-86149233D01*
X200004542Y-86142672D01*
X199945527Y-85961044D01*
X199931282Y-85936370D01*
X199859640Y-85812284D01*
X199850040Y-85795656D01*
X199781854Y-85719927D01*
X199726675Y-85658645D01*
X199726674Y-85658644D01*
X199722253Y-85653734D01*
X199567752Y-85541482D01*
X199561724Y-85538798D01*
X199561722Y-85538797D01*
X199399319Y-85466491D01*
X199399318Y-85466491D01*
X199393288Y-85463806D01*
X199299888Y-85443953D01*
X199212944Y-85425472D01*
X199212939Y-85425472D01*
X199206487Y-85424100D01*
X199015513Y-85424100D01*
X199009061Y-85425472D01*
X199009056Y-85425472D01*
X198922112Y-85443953D01*
X198828712Y-85463806D01*
X198822682Y-85466491D01*
X198822681Y-85466491D01*
X198660278Y-85538797D01*
X198660276Y-85538798D01*
X198654248Y-85541482D01*
X198499747Y-85653734D01*
X198495334Y-85658636D01*
X198495332Y-85658637D01*
X198473926Y-85682411D01*
X198413480Y-85719650D01*
X198380290Y-85724100D01*
X198319785Y-85724100D01*
X198303339Y-85723022D01*
X198279829Y-85719927D01*
X198271641Y-85718849D01*
X198112791Y-85739762D01*
X198105164Y-85742921D01*
X198105161Y-85742922D01*
X198038778Y-85770419D01*
X197964765Y-85801076D01*
X197950159Y-85812284D01*
X197869578Y-85874115D01*
X197869562Y-85874129D01*
X197844207Y-85893584D01*
X197844204Y-85893587D01*
X197837654Y-85898613D01*
X197832624Y-85905168D01*
X197818189Y-85923979D01*
X197807322Y-85936370D01*
X196811655Y-86932037D01*
X196799264Y-86942904D01*
X196773902Y-86962365D01*
X196749415Y-86994277D01*
X196749412Y-86994280D01*
X196729323Y-87020460D01*
X196699367Y-87059500D01*
X196676365Y-87089476D01*
X196615051Y-87237501D01*
X196613481Y-87249428D01*
X196599389Y-87356467D01*
X196599389Y-87356472D01*
X196594139Y-87396352D01*
X196595217Y-87404540D01*
X196598311Y-87428042D01*
X196599389Y-87444488D01*
X196599389Y-87587872D01*
X196579387Y-87655993D01*
X196562484Y-87676967D01*
X192334856Y-91904595D01*
X192272544Y-91938621D01*
X192245761Y-91941500D01*
X187340598Y-91941500D01*
X187272477Y-91921498D01*
X187225984Y-91867842D01*
X187215880Y-91797568D01*
X187228818Y-91760184D01*
X187228039Y-91759837D01*
X187230723Y-91753809D01*
X187234027Y-91748086D01*
X187293042Y-91566458D01*
X187308891Y-91415668D01*
X187312314Y-91383095D01*
X187313004Y-91376530D01*
X187301315Y-91265316D01*
X187293732Y-91193165D01*
X187293732Y-91193163D01*
X187293042Y-91186602D01*
X187234027Y-91004974D01*
X187138540Y-90839586D01*
X187110276Y-90808195D01*
X187015175Y-90702575D01*
X187015174Y-90702574D01*
X187010753Y-90697664D01*
X186874116Y-90598391D01*
X186861594Y-90589293D01*
X186861593Y-90589292D01*
X186856252Y-90585412D01*
X186850224Y-90582728D01*
X186850222Y-90582727D01*
X186687819Y-90510421D01*
X186687818Y-90510421D01*
X186681788Y-90507736D01*
X186588387Y-90487883D01*
X186501444Y-90469402D01*
X186501439Y-90469402D01*
X186494987Y-90468030D01*
X186304013Y-90468030D01*
X186297561Y-90469402D01*
X186297556Y-90469402D01*
X186210612Y-90487883D01*
X186117212Y-90507736D01*
X186111182Y-90510421D01*
X186111181Y-90510421D01*
X185948778Y-90582727D01*
X185948776Y-90582728D01*
X185942748Y-90585412D01*
X185937407Y-90589292D01*
X185937406Y-90589293D01*
X185924884Y-90598391D01*
X185788247Y-90697664D01*
X185783826Y-90702574D01*
X185783825Y-90702575D01*
X185688725Y-90808195D01*
X185660460Y-90839586D01*
X185606618Y-90932843D01*
X185580258Y-90978500D01*
X185528876Y-91027493D01*
X185471139Y-91041500D01*
X184750398Y-91041500D01*
X184682277Y-91021498D01*
X184661303Y-91004595D01*
X184352063Y-90695355D01*
X184341196Y-90682964D01*
X184326761Y-90664152D01*
X184321735Y-90657602D01*
X184289823Y-90633115D01*
X184289820Y-90633112D01*
X184239284Y-90594334D01*
X184201177Y-90565093D01*
X184201175Y-90565092D01*
X184194624Y-90560065D01*
X184046599Y-90498751D01*
X184038412Y-90497673D01*
X184038411Y-90497673D01*
X184027206Y-90496198D01*
X183996010Y-90492091D01*
X183927633Y-90483089D01*
X183927630Y-90483089D01*
X183927622Y-90483088D01*
X183895937Y-90478917D01*
X183887748Y-90477839D01*
X183856055Y-90482011D01*
X183839612Y-90483089D01*
X183356388Y-90483089D01*
X183339942Y-90482011D01*
X183316440Y-90478917D01*
X183308252Y-90477839D01*
X183300064Y-90478917D01*
X183268381Y-90483088D01*
X183268372Y-90483089D01*
X183268367Y-90483089D01*
X183149402Y-90498751D01*
X183001377Y-90560065D01*
X182982473Y-90574571D01*
X182906180Y-90633112D01*
X182906177Y-90633115D01*
X182906173Y-90633118D01*
X182880818Y-90652573D01*
X182880815Y-90652576D01*
X182874265Y-90657602D01*
X182869235Y-90664157D01*
X182854800Y-90682968D01*
X182843933Y-90695359D01*
X182384697Y-91154595D01*
X182322385Y-91188621D01*
X182295602Y-91191500D01*
X173744244Y-91191500D01*
X173727798Y-91190422D01*
X173704288Y-91187327D01*
X173696100Y-91186249D01*
X173537249Y-91207162D01*
X173389224Y-91268476D01*
X173349589Y-91298889D01*
X173294037Y-91341515D01*
X173294021Y-91341529D01*
X173268666Y-91360984D01*
X173268663Y-91360987D01*
X173262113Y-91366013D01*
X173257083Y-91372568D01*
X173242648Y-91391379D01*
X173231781Y-91403770D01*
X172404266Y-92231285D01*
X172391875Y-92242152D01*
X172366513Y-92261613D01*
X172342026Y-92293525D01*
X172342023Y-92293528D01*
X172342017Y-92293536D01*
X172280850Y-92373250D01*
X172268976Y-92388724D01*
X172234690Y-92471498D01*
X172214405Y-92520471D01*
X172207662Y-92536749D01*
X172206548Y-92545209D01*
X172192000Y-92655715D01*
X172192000Y-92655720D01*
X172186750Y-92695600D01*
X172187828Y-92703788D01*
X172190922Y-92727290D01*
X172192000Y-92743736D01*
X172192000Y-93219710D01*
X172171998Y-93287831D01*
X172159636Y-93304020D01*
X172073709Y-93399452D01*
X172061460Y-93413056D01*
X171965973Y-93578444D01*
X171906958Y-93760072D01*
X171886996Y-93950000D01*
X171198500Y-93950000D01*
X171198500Y-82706439D01*
X171218502Y-82638318D01*
X171272158Y-82591825D01*
X171342432Y-82581721D01*
X171407012Y-82611215D01*
X171413595Y-82617344D01*
X177768116Y-88971865D01*
X177802142Y-89034177D01*
X177797077Y-89104992D01*
X177796211Y-89107110D01*
X177793722Y-89111422D01*
X177734707Y-89293050D01*
X177734017Y-89299611D01*
X177734017Y-89299613D01*
X177725226Y-89383258D01*
X177714745Y-89482978D01*
X177715435Y-89489543D01*
X177729001Y-89618612D01*
X177734707Y-89672906D01*
X177793722Y-89854534D01*
X177889209Y-90019922D01*
X177893627Y-90024829D01*
X177893628Y-90024830D01*
X178008089Y-90151952D01*
X178016996Y-90161844D01*
X178171497Y-90274096D01*
X178177525Y-90276780D01*
X178177527Y-90276781D01*
X178339930Y-90349087D01*
X178345961Y-90351772D01*
X178427765Y-90369160D01*
X178526305Y-90390106D01*
X178526310Y-90390106D01*
X178532762Y-90391478D01*
X178723736Y-90391478D01*
X178730188Y-90390106D01*
X178730193Y-90390106D01*
X178828733Y-90369160D01*
X178910537Y-90351772D01*
X178916568Y-90349087D01*
X179078971Y-90276781D01*
X179078973Y-90276780D01*
X179085001Y-90274096D01*
X179239502Y-90161844D01*
X179248409Y-90151952D01*
X179362870Y-90024830D01*
X179362871Y-90024829D01*
X179367289Y-90019922D01*
X179462776Y-89854534D01*
X179521791Y-89672906D01*
X179527498Y-89618612D01*
X179541063Y-89489543D01*
X179541753Y-89482978D01*
X179531272Y-89383258D01*
X179522481Y-89299613D01*
X179522481Y-89299611D01*
X179521791Y-89293050D01*
X179462776Y-89111422D01*
X179449688Y-89088752D01*
X179403338Y-89008472D01*
X179367289Y-88946034D01*
X179351827Y-88928861D01*
X179243924Y-88809023D01*
X179243923Y-88809022D01*
X179239502Y-88804112D01*
X179234158Y-88800229D01*
X179229251Y-88795811D01*
X179230629Y-88794281D01*
X179194531Y-88748488D01*
X179159773Y-88664574D01*
X179135923Y-88633492D01*
X179086726Y-88569377D01*
X179086723Y-88569374D01*
X179062236Y-88537462D01*
X179053731Y-88530936D01*
X179036870Y-88517997D01*
X179024479Y-88507130D01*
X171705405Y-81188056D01*
X171671379Y-81125744D01*
X171668500Y-81098961D01*
X171668500Y-66844239D01*
X171688502Y-66776118D01*
X171705405Y-66755144D01*
X172414186Y-66046363D01*
X185097966Y-66046363D01*
X185101399Y-66081379D01*
X185102000Y-66093675D01*
X185102000Y-67077885D01*
X185106475Y-67093124D01*
X185107865Y-67094329D01*
X185115548Y-67096000D01*
X185742332Y-67096000D01*
X185767977Y-67088470D01*
X186143635Y-66712812D01*
X186151249Y-66698868D01*
X186151118Y-66697035D01*
X186146867Y-66690420D01*
X185595542Y-66139095D01*
X185561516Y-66076783D01*
X185563351Y-66051132D01*
X186218751Y-66051132D01*
X186218882Y-66052965D01*
X186223133Y-66059580D01*
X186243188Y-66079635D01*
X186253277Y-66085144D01*
X186256000Y-66077843D01*
X186256000Y-66074332D01*
X186764000Y-66074332D01*
X186767237Y-66085357D01*
X186774328Y-66082119D01*
X186793635Y-66062812D01*
X186801249Y-66048868D01*
X186801118Y-66047035D01*
X186796867Y-66040420D01*
X186776812Y-66020365D01*
X186766723Y-66014856D01*
X186764000Y-66022157D01*
X186764000Y-66074332D01*
X186256000Y-66074332D01*
X186256000Y-66025668D01*
X186252763Y-66014643D01*
X186245672Y-66017881D01*
X186226365Y-66037188D01*
X186218751Y-66051132D01*
X185563351Y-66051132D01*
X185566581Y-66005968D01*
X185595542Y-65960905D01*
X186209959Y-65346488D01*
X186226590Y-65337406D01*
X186224523Y-65334645D01*
X186251742Y-65314269D01*
X186254807Y-65306053D01*
X186253612Y-65301983D01*
X186764776Y-65301983D01*
X186768475Y-65314581D01*
X186789021Y-65332384D01*
X186800917Y-65337817D01*
X186807499Y-65343946D01*
X187424458Y-65960905D01*
X187458484Y-66023217D01*
X187453419Y-66094032D01*
X187424458Y-66139095D01*
X186876365Y-66687188D01*
X186868751Y-66701132D01*
X186868882Y-66702965D01*
X186873133Y-66709580D01*
X187246741Y-67083188D01*
X187270203Y-67096000D01*
X187899884Y-67096000D01*
X187915123Y-67091525D01*
X187916328Y-67090135D01*
X187917999Y-67082452D01*
X187917999Y-66112130D01*
X187919225Y-66094593D01*
X187921948Y-66075219D01*
X187922554Y-66067340D01*
X187922741Y-66053962D01*
X187922354Y-66046062D01*
X187918784Y-66014233D01*
X187917999Y-66000188D01*
X187917999Y-65755331D01*
X187917629Y-65748510D01*
X187912105Y-65697648D01*
X187908479Y-65682396D01*
X187863324Y-65561946D01*
X187854786Y-65546351D01*
X187778285Y-65444276D01*
X187765724Y-65431715D01*
X187663649Y-65355214D01*
X187648054Y-65346676D01*
X187527606Y-65301522D01*
X187512351Y-65297895D01*
X187461486Y-65292369D01*
X187454672Y-65292000D01*
X187212875Y-65292000D01*
X187197957Y-65291114D01*
X187172318Y-65288057D01*
X187158320Y-65287959D01*
X187126437Y-65291310D01*
X187113267Y-65292000D01*
X186782115Y-65292000D01*
X186766876Y-65296475D01*
X186765671Y-65297865D01*
X186764776Y-65301983D01*
X186253612Y-65301983D01*
X186251525Y-65294877D01*
X186250135Y-65293672D01*
X186242452Y-65292001D01*
X185912883Y-65292001D01*
X185897964Y-65291115D01*
X185872318Y-65288057D01*
X185858321Y-65287959D01*
X185826430Y-65291311D01*
X185813260Y-65292001D01*
X185565331Y-65292001D01*
X185558510Y-65292371D01*
X185507648Y-65297895D01*
X185492396Y-65301521D01*
X185371946Y-65346676D01*
X185356351Y-65355214D01*
X185254276Y-65431715D01*
X185241715Y-65444276D01*
X185165214Y-65546351D01*
X185156676Y-65561946D01*
X185111522Y-65682394D01*
X185107895Y-65697649D01*
X185102369Y-65748514D01*
X185102000Y-65755328D01*
X185102000Y-65994047D01*
X185101007Y-66009839D01*
X185098161Y-66032364D01*
X185097966Y-66046363D01*
X172414186Y-66046363D01*
X174915144Y-63545405D01*
X174977456Y-63511379D01*
X175004239Y-63508500D01*
X189609520Y-63508500D01*
X189677641Y-63528502D01*
G37*
%TD.AperFunction*%
%TA.AperFunction,Conductor*%
G36*
X207202467Y-91553641D02*
G01*
X207229617Y-91574272D01*
X207374097Y-91718794D01*
X207876485Y-92221326D01*
X207876499Y-92221341D01*
X207876523Y-92221372D01*
X207904993Y-92249842D01*
X207905001Y-92249858D01*
X207905005Y-92249854D01*
X207932863Y-92277720D01*
X207932888Y-92277739D01*
X207932922Y-92277771D01*
X208265906Y-92610755D01*
X208276773Y-92623146D01*
X208296234Y-92648508D01*
X208302784Y-92653534D01*
X208328142Y-92672992D01*
X208328158Y-92673006D01*
X208368275Y-92703788D01*
X208423345Y-92746045D01*
X208571370Y-92807359D01*
X208579557Y-92808437D01*
X208579558Y-92808437D01*
X208590763Y-92809912D01*
X208622329Y-92814068D01*
X208673423Y-92820794D01*
X208738350Y-92849516D01*
X208746072Y-92856621D01*
X212556655Y-96667204D01*
X212590681Y-96729516D01*
X212590195Y-96736314D01*
X212632490Y-96747863D01*
X212655495Y-96766044D01*
X215054595Y-99165144D01*
X215088621Y-99227456D01*
X215091500Y-99254239D01*
X215091500Y-101115500D01*
X215071498Y-101183621D01*
X215017842Y-101230114D01*
X214965500Y-101241500D01*
X214804513Y-101241500D01*
X214798061Y-101242872D01*
X214798056Y-101242872D01*
X214711113Y-101261353D01*
X214617712Y-101281206D01*
X214611682Y-101283891D01*
X214611681Y-101283891D01*
X214449278Y-101356197D01*
X214449276Y-101356198D01*
X214443248Y-101358882D01*
X214437907Y-101362762D01*
X214437906Y-101362763D01*
X214425195Y-101371998D01*
X214288747Y-101471134D01*
X214284326Y-101476044D01*
X214284325Y-101476045D01*
X214255103Y-101508500D01*
X214160960Y-101613056D01*
X214117390Y-101688521D01*
X214074069Y-101763556D01*
X214065473Y-101778444D01*
X214063432Y-101784726D01*
X214021969Y-101912334D01*
X213981895Y-101970939D01*
X213916498Y-101998576D01*
X213846542Y-101986469D01*
X213813041Y-101962492D01*
X212836079Y-100985530D01*
X212802053Y-100923218D01*
X212805341Y-100857499D01*
X212841502Y-100746206D01*
X212843542Y-100739928D01*
X212855512Y-100626045D01*
X212862814Y-100556565D01*
X212863504Y-100550000D01*
X212851301Y-100433891D01*
X212844232Y-100366635D01*
X212844232Y-100366633D01*
X212843542Y-100360072D01*
X212784527Y-100178444D01*
X212689040Y-100013056D01*
X212673903Y-99996244D01*
X212565675Y-99876045D01*
X212565674Y-99876044D01*
X212561253Y-99871134D01*
X212406752Y-99758882D01*
X212400724Y-99756198D01*
X212400722Y-99756197D01*
X212238319Y-99683891D01*
X212238318Y-99683891D01*
X212232288Y-99681206D01*
X212138888Y-99661353D01*
X212051944Y-99642872D01*
X212051939Y-99642872D01*
X212045487Y-99641500D01*
X211854513Y-99641500D01*
X211848060Y-99642872D01*
X211848047Y-99642873D01*
X211754457Y-99662767D01*
X211683667Y-99657366D01*
X211639165Y-99628616D01*
X209864492Y-97853943D01*
X209830466Y-97791631D01*
X209835531Y-97720816D01*
X209878078Y-97663980D01*
X209944598Y-97639169D01*
X209979780Y-97641601D01*
X209985546Y-97642827D01*
X209985561Y-97642829D01*
X209992013Y-97644200D01*
X210182987Y-97644200D01*
X210189439Y-97642828D01*
X210189444Y-97642828D01*
X210279380Y-97623711D01*
X210369788Y-97604494D01*
X210375819Y-97601809D01*
X210538222Y-97529503D01*
X210538224Y-97529502D01*
X210544252Y-97526818D01*
X210599521Y-97486663D01*
X210688477Y-97422032D01*
X210755345Y-97398174D01*
X210824496Y-97414254D01*
X210873976Y-97465168D01*
X210887848Y-97537139D01*
X210886496Y-97550000D01*
X210887186Y-97556565D01*
X210903715Y-97713826D01*
X210906458Y-97739928D01*
X210965473Y-97921556D01*
X210968776Y-97927278D01*
X210968777Y-97927279D01*
X210987512Y-97959729D01*
X211060960Y-98086944D01*
X211065378Y-98091851D01*
X211065379Y-98091852D01*
X211125733Y-98158882D01*
X211188747Y-98228866D01*
X211343248Y-98341118D01*
X211349276Y-98343802D01*
X211349278Y-98343803D01*
X211504824Y-98413056D01*
X211517712Y-98418794D01*
X211611112Y-98438647D01*
X211698056Y-98457128D01*
X211698061Y-98457128D01*
X211704513Y-98458500D01*
X211895487Y-98458500D01*
X211901939Y-98457128D01*
X211901944Y-98457128D01*
X211988887Y-98438647D01*
X212082288Y-98418794D01*
X212095176Y-98413056D01*
X212250722Y-98343803D01*
X212250724Y-98343802D01*
X212256752Y-98341118D01*
X212411253Y-98228866D01*
X212474267Y-98158882D01*
X212534621Y-98091852D01*
X212534622Y-98091851D01*
X212539040Y-98086944D01*
X212612488Y-97959729D01*
X212631223Y-97927279D01*
X212631224Y-97927278D01*
X212634527Y-97921556D01*
X212693542Y-97739928D01*
X212696286Y-97713826D01*
X212712814Y-97556565D01*
X212713504Y-97550000D01*
X212701414Y-97434966D01*
X212694232Y-97366635D01*
X212694232Y-97366633D01*
X212693542Y-97360072D01*
X212634527Y-97178444D01*
X212539040Y-97013056D01*
X212515793Y-96987237D01*
X212472764Y-96939449D01*
X212442046Y-96875442D01*
X212442163Y-96874498D01*
X212407175Y-96866887D01*
X212393499Y-96858235D01*
X212262094Y-96762763D01*
X212262093Y-96762762D01*
X212256752Y-96758882D01*
X212250724Y-96756198D01*
X212250722Y-96756197D01*
X212088319Y-96683891D01*
X212088318Y-96683891D01*
X212082288Y-96681206D01*
X212075827Y-96679833D01*
X212075825Y-96679832D01*
X212067317Y-96678023D01*
X212004421Y-96643872D01*
X208483443Y-93122894D01*
X208472576Y-93110503D01*
X208458141Y-93091691D01*
X208453115Y-93085141D01*
X208421203Y-93060654D01*
X208421200Y-93060651D01*
X208366309Y-93018531D01*
X208332557Y-92992632D01*
X208332555Y-92992631D01*
X208326004Y-92987604D01*
X208177979Y-92926290D01*
X208169792Y-92925212D01*
X208169791Y-92925212D01*
X208158586Y-92923737D01*
X208127390Y-92919630D01*
X208059013Y-92910628D01*
X208059010Y-92910628D01*
X208059002Y-92910627D01*
X208027317Y-92906456D01*
X208019128Y-92905378D01*
X207987435Y-92909550D01*
X207970992Y-92910628D01*
X207911582Y-92910628D01*
X207843461Y-92890626D01*
X207817946Y-92868939D01*
X207796540Y-92845165D01*
X207796538Y-92845164D01*
X207792125Y-92840262D01*
X207690601Y-92766500D01*
X207642966Y-92731891D01*
X207642965Y-92731890D01*
X207637624Y-92728010D01*
X207631596Y-92725326D01*
X207631594Y-92725325D01*
X207469191Y-92653019D01*
X207469190Y-92653019D01*
X207463160Y-92650334D01*
X207369759Y-92630481D01*
X207282816Y-92612000D01*
X207282811Y-92612000D01*
X207276359Y-92610628D01*
X207232267Y-92610628D01*
X207164146Y-92590626D01*
X207143172Y-92573723D01*
X206538941Y-91969492D01*
X206504915Y-91907180D01*
X206509980Y-91836365D01*
X206552527Y-91779529D01*
X206601839Y-91757150D01*
X206674049Y-91741801D01*
X206782288Y-91718794D01*
X206788319Y-91716109D01*
X206950722Y-91643803D01*
X206950724Y-91643802D01*
X206956752Y-91641118D01*
X207012913Y-91600315D01*
X207066448Y-91561419D01*
X207133316Y-91537561D01*
X207202467Y-91553641D01*
G37*
%TD.AperFunction*%
%TA.AperFunction,Conductor*%
G36*
X214966121Y-92196002D02*
G01*
X215012614Y-92249658D01*
X215024000Y-92302000D01*
X215024000Y-93394885D01*
X215028475Y-93410124D01*
X215029865Y-93411329D01*
X215037548Y-93413000D01*
X215241708Y-93413000D01*
X215248083Y-93412677D01*
X215387330Y-93398533D01*
X215399770Y-93395979D01*
X215578143Y-93340080D01*
X215589831Y-93335071D01*
X215753320Y-93244447D01*
X215763753Y-93237196D01*
X215910532Y-93111392D01*
X215911693Y-93112747D01*
X215965714Y-93081511D01*
X216036632Y-93084843D01*
X216094491Y-93125987D01*
X216120922Y-93191880D01*
X216121500Y-93203940D01*
X216121500Y-97506761D01*
X216101498Y-97574882D01*
X216047842Y-97621375D01*
X215977568Y-97631479D01*
X215912988Y-97601985D01*
X215906405Y-97595856D01*
X213044405Y-94733856D01*
X213010379Y-94671544D01*
X213007500Y-94644761D01*
X213007500Y-93834568D01*
X213027502Y-93766447D01*
X213081158Y-93719954D01*
X213151432Y-93709850D01*
X213159698Y-93711322D01*
X213242049Y-93728827D01*
X213242058Y-93728828D01*
X213248513Y-93730200D01*
X213439487Y-93730200D01*
X213445939Y-93728828D01*
X213445944Y-93728828D01*
X213535226Y-93709850D01*
X213626288Y-93690494D01*
X213680501Y-93666357D01*
X213794722Y-93615503D01*
X213794724Y-93615502D01*
X213800752Y-93612818D01*
X213955253Y-93500566D01*
X214018750Y-93430045D01*
X214079195Y-93392807D01*
X214138151Y-93391020D01*
X214236971Y-93411664D01*
X214246561Y-93412910D01*
X214246613Y-93412912D01*
X214249949Y-93413000D01*
X214497885Y-93413000D01*
X214513124Y-93408525D01*
X214514329Y-93407135D01*
X214516000Y-93399452D01*
X214516000Y-92302000D01*
X214536002Y-92233879D01*
X214589658Y-92187386D01*
X214642000Y-92176000D01*
X214898000Y-92176000D01*
X214966121Y-92196002D01*
G37*
%TD.AperFunction*%
%TA.AperFunction,Conductor*%
G36*
X209995373Y-91090037D02*
G01*
X210027355Y-91104276D01*
X210101016Y-91137072D01*
X210183455Y-91154595D01*
X210265939Y-91172128D01*
X210265943Y-91172128D01*
X210272396Y-91173500D01*
X210388000Y-91173500D01*
X210456121Y-91193502D01*
X210502614Y-91247158D01*
X210514000Y-91299500D01*
X210514000Y-92198000D01*
X210493998Y-92266121D01*
X210440342Y-92312614D01*
X210388000Y-92324000D01*
X210132000Y-92324000D01*
X210063879Y-92303998D01*
X210017386Y-92250342D01*
X210006000Y-92198000D01*
X210006000Y-91463325D01*
X209998470Y-91437680D01*
X209855029Y-91294239D01*
X209821003Y-91231927D01*
X209826068Y-91161112D01*
X209868615Y-91104276D01*
X209935135Y-91079465D01*
X209995373Y-91090037D01*
G37*
%TD.AperFunction*%
%TA.AperFunction,Conductor*%
G36*
X216063621Y-61723502D02*
G01*
X216110114Y-61777158D01*
X216121500Y-61829500D01*
X216121500Y-82682430D01*
X216101498Y-82750551D01*
X216047842Y-82797044D01*
X215977568Y-82807148D01*
X215912988Y-82777654D01*
X215903952Y-82769003D01*
X215845014Y-82706678D01*
X215835394Y-82698375D01*
X215682269Y-82591155D01*
X215671180Y-82584958D01*
X215499622Y-82510718D01*
X215487510Y-82506876D01*
X215303029Y-82468336D01*
X215293437Y-82467090D01*
X215293387Y-82467088D01*
X215290051Y-82467000D01*
X215042115Y-82467000D01*
X215026876Y-82471475D01*
X215025671Y-82472865D01*
X215024000Y-82480548D01*
X215024000Y-84414885D01*
X215028475Y-84430124D01*
X215029865Y-84431329D01*
X215037548Y-84433000D01*
X215241708Y-84433000D01*
X215248083Y-84432677D01*
X215387330Y-84418533D01*
X215399770Y-84415979D01*
X215578143Y-84360080D01*
X215589831Y-84355071D01*
X215753320Y-84264447D01*
X215763753Y-84257196D01*
X215910532Y-84131392D01*
X215911693Y-84132747D01*
X215965714Y-84101511D01*
X216036632Y-84104843D01*
X216094491Y-84145987D01*
X216120922Y-84211880D01*
X216121500Y-84223940D01*
X216121500Y-89081169D01*
X216101498Y-89149290D01*
X216047842Y-89195783D01*
X215977568Y-89205887D01*
X215921439Y-89183105D01*
X215846094Y-89128363D01*
X215846093Y-89128362D01*
X215840752Y-89124482D01*
X215834724Y-89121798D01*
X215834722Y-89121797D01*
X215672319Y-89049491D01*
X215672318Y-89049491D01*
X215666288Y-89046806D01*
X215572888Y-89026953D01*
X215485944Y-89008472D01*
X215485939Y-89008472D01*
X215479487Y-89007100D01*
X215288513Y-89007100D01*
X215282061Y-89008472D01*
X215282056Y-89008472D01*
X215195113Y-89026953D01*
X215101712Y-89046806D01*
X215095682Y-89049491D01*
X215095681Y-89049491D01*
X214933278Y-89121797D01*
X214933276Y-89121798D01*
X214927248Y-89124482D01*
X214772747Y-89236734D01*
X214768326Y-89241644D01*
X214768325Y-89241645D01*
X214669139Y-89351803D01*
X214644960Y-89378656D01*
X214605699Y-89446658D01*
X214593118Y-89468449D01*
X214541735Y-89517442D01*
X214472021Y-89530877D01*
X214406111Y-89504490D01*
X214364929Y-89446658D01*
X214357999Y-89405448D01*
X214357999Y-89110331D01*
X214357629Y-89103510D01*
X214352105Y-89052648D01*
X214348479Y-89037396D01*
X214303324Y-88916946D01*
X214294786Y-88901351D01*
X214218285Y-88799276D01*
X214205724Y-88786715D01*
X214103649Y-88710214D01*
X214088054Y-88701676D01*
X213967606Y-88656522D01*
X213952351Y-88652895D01*
X213901486Y-88647369D01*
X213894672Y-88647000D01*
X213372115Y-88647000D01*
X213356876Y-88651475D01*
X213355671Y-88652865D01*
X213354000Y-88660548D01*
X213354000Y-90343000D01*
X213333998Y-90411121D01*
X213280342Y-90457614D01*
X213228000Y-90469000D01*
X211860116Y-90469000D01*
X211844877Y-90473475D01*
X211843672Y-90474865D01*
X211842001Y-90482548D01*
X211842001Y-91092016D01*
X211821999Y-91160137D01*
X211797176Y-91186420D01*
X211797998Y-91187333D01*
X211793091Y-91191751D01*
X211787747Y-91195634D01*
X211783326Y-91200544D01*
X211783325Y-91200545D01*
X211677828Y-91317712D01*
X211659960Y-91337556D01*
X211564473Y-91502944D01*
X211562431Y-91509229D01*
X211562430Y-91509231D01*
X211550004Y-91547475D01*
X211509931Y-91606081D01*
X211444535Y-91633719D01*
X211374578Y-91621613D01*
X211328235Y-91582601D01*
X211242376Y-91464426D01*
X211233585Y-91454663D01*
X211101558Y-91335786D01*
X211090927Y-91328062D01*
X210937074Y-91239235D01*
X210925066Y-91233889D01*
X210899500Y-91225582D01*
X210840894Y-91185509D01*
X210813257Y-91120112D01*
X210825364Y-91050155D01*
X210864374Y-91003813D01*
X210875266Y-90995900D01*
X210920792Y-90962823D01*
X210944106Y-90936931D01*
X211033611Y-90837526D01*
X211033612Y-90837525D01*
X211038030Y-90832618D01*
X211041330Y-90826902D01*
X211041333Y-90826898D01*
X211122331Y-90686603D01*
X211125634Y-90680882D01*
X211136485Y-90647488D01*
X211153310Y-90595706D01*
X211179777Y-90514249D01*
X211181077Y-90501887D01*
X211197401Y-90346565D01*
X211198091Y-90340000D01*
X211191447Y-90276781D01*
X211180468Y-90172321D01*
X211180467Y-90172317D01*
X211179777Y-90165751D01*
X211135026Y-90028022D01*
X211127674Y-90005395D01*
X211127672Y-90005391D01*
X211125634Y-89999118D01*
X211122335Y-89993403D01*
X211121375Y-89991248D01*
X211114891Y-89942885D01*
X211842000Y-89942885D01*
X211846475Y-89958124D01*
X211847865Y-89959329D01*
X211855548Y-89961000D01*
X212827885Y-89961000D01*
X212843124Y-89956525D01*
X212844329Y-89955135D01*
X212846000Y-89947452D01*
X212846000Y-88665116D01*
X212841525Y-88649877D01*
X212840135Y-88648672D01*
X212832452Y-88647001D01*
X212305331Y-88647001D01*
X212298510Y-88647371D01*
X212247648Y-88652895D01*
X212232396Y-88656521D01*
X212111946Y-88701676D01*
X212096351Y-88710214D01*
X211994276Y-88786715D01*
X211981715Y-88799276D01*
X211905214Y-88901351D01*
X211896676Y-88916946D01*
X211851522Y-89037394D01*
X211847895Y-89052649D01*
X211842369Y-89103514D01*
X211842000Y-89110328D01*
X211842000Y-89942885D01*
X211114891Y-89942885D01*
X211111941Y-89920881D01*
X211121375Y-89888752D01*
X211122335Y-89886597D01*
X211125634Y-89880882D01*
X211134382Y-89853961D01*
X211164097Y-89762505D01*
X211179777Y-89714249D01*
X211180522Y-89707167D01*
X211197401Y-89546565D01*
X211198091Y-89540000D01*
X211188281Y-89446658D01*
X211180468Y-89372321D01*
X211180467Y-89372317D01*
X211179777Y-89365751D01*
X211148365Y-89269077D01*
X211127674Y-89205395D01*
X211127672Y-89205391D01*
X211125634Y-89199118D01*
X211122335Y-89193403D01*
X211121375Y-89191248D01*
X211111941Y-89120881D01*
X211121375Y-89088752D01*
X211122335Y-89086597D01*
X211125634Y-89080882D01*
X211139765Y-89037394D01*
X211175029Y-88928861D01*
X211179777Y-88914249D01*
X211181030Y-88902333D01*
X211197401Y-88746565D01*
X211198091Y-88740000D01*
X211194063Y-88701676D01*
X211180468Y-88572321D01*
X211180467Y-88572317D01*
X211179777Y-88565751D01*
X211125634Y-88399118D01*
X211108008Y-88368589D01*
X211041333Y-88253102D01*
X211041330Y-88253098D01*
X211038030Y-88247382D01*
X211030228Y-88238717D01*
X210925207Y-88122080D01*
X210925205Y-88122079D01*
X210920792Y-88117177D01*
X210817232Y-88041936D01*
X210773878Y-87985714D01*
X210767803Y-87914977D01*
X210800935Y-87852186D01*
X210817232Y-87838064D01*
X210915453Y-87766702D01*
X210920792Y-87762823D01*
X210980625Y-87696373D01*
X211033611Y-87637526D01*
X211033612Y-87637525D01*
X211038030Y-87632618D01*
X211041330Y-87626902D01*
X211041333Y-87626898D01*
X211122331Y-87486603D01*
X211125634Y-87480882D01*
X211179777Y-87314249D01*
X211181392Y-87298891D01*
X211197401Y-87146565D01*
X211198091Y-87140000D01*
X211189598Y-87059192D01*
X211180468Y-86972321D01*
X211180467Y-86972317D01*
X211179777Y-86965751D01*
X211131908Y-86818427D01*
X211127674Y-86805395D01*
X211127672Y-86805391D01*
X211125634Y-86799118D01*
X211122335Y-86793403D01*
X211121375Y-86791248D01*
X211111941Y-86720881D01*
X211121375Y-86688752D01*
X211122335Y-86686597D01*
X211125634Y-86680882D01*
X211138758Y-86640493D01*
X211164098Y-86562504D01*
X211179777Y-86514249D01*
X211181699Y-86495971D01*
X211197401Y-86346565D01*
X211198091Y-86340000D01*
X211195991Y-86320021D01*
X211180468Y-86172321D01*
X211180467Y-86172317D01*
X211179777Y-86165751D01*
X211141665Y-86048456D01*
X211127674Y-86005395D01*
X211127672Y-86005391D01*
X211125634Y-85999118D01*
X211122335Y-85993403D01*
X211121375Y-85991248D01*
X211111941Y-85920881D01*
X211121375Y-85888752D01*
X211122335Y-85886597D01*
X211125634Y-85880882D01*
X211127829Y-85874129D01*
X211171837Y-85738684D01*
X211179777Y-85714249D01*
X211183124Y-85682411D01*
X211197401Y-85546565D01*
X211198091Y-85540000D01*
X211192262Y-85484539D01*
X211180468Y-85372321D01*
X211180467Y-85372317D01*
X211179777Y-85365751D01*
X211125634Y-85199118D01*
X211110289Y-85172539D01*
X211041333Y-85053102D01*
X211041330Y-85053098D01*
X211038030Y-85047382D01*
X211012271Y-85018774D01*
X210925207Y-84922080D01*
X210925205Y-84922079D01*
X210920792Y-84917177D01*
X210864374Y-84876186D01*
X210821021Y-84819964D01*
X210814946Y-84749228D01*
X210848078Y-84686436D01*
X210899500Y-84654418D01*
X210925066Y-84646111D01*
X210937074Y-84640765D01*
X211090927Y-84551938D01*
X211101558Y-84544214D01*
X211233585Y-84425337D01*
X211242376Y-84415574D01*
X211346802Y-84271843D01*
X211353368Y-84260471D01*
X211425634Y-84098159D01*
X211429689Y-84085680D01*
X211466629Y-83911886D01*
X211466805Y-83910210D01*
X211467177Y-83909305D01*
X211468000Y-83905435D01*
X211468708Y-83905585D01*
X211493819Y-83844554D01*
X211552042Y-83803926D01*
X211622987Y-83801225D01*
X211666172Y-83821446D01*
X211693248Y-83841118D01*
X211699276Y-83843802D01*
X211699278Y-83843803D01*
X211781942Y-83880607D01*
X211852197Y-83911886D01*
X211860242Y-83915468D01*
X211898088Y-83941480D01*
X212203260Y-84246652D01*
X212237286Y-84308964D01*
X212232221Y-84379779D01*
X212189674Y-84436615D01*
X212158394Y-84453729D01*
X212111705Y-84471232D01*
X212111704Y-84471233D01*
X212103295Y-84474385D01*
X211986739Y-84561739D01*
X211899385Y-84678295D01*
X211848255Y-84814684D01*
X211841500Y-84876866D01*
X211841500Y-87093134D01*
X211848255Y-87155316D01*
X211899385Y-87291705D01*
X211986739Y-87408261D01*
X212103295Y-87495615D01*
X212239684Y-87546745D01*
X212301866Y-87553500D01*
X213898134Y-87553500D01*
X213960316Y-87546745D01*
X214096705Y-87495615D01*
X214213261Y-87408261D01*
X214300615Y-87291705D01*
X214351745Y-87155316D01*
X214358500Y-87093134D01*
X214358500Y-84876866D01*
X214351745Y-84814684D01*
X214300615Y-84678295D01*
X214267841Y-84634565D01*
X214242993Y-84568059D01*
X214258046Y-84498676D01*
X214308220Y-84448446D01*
X214368667Y-84433000D01*
X214497885Y-84433000D01*
X214513124Y-84428525D01*
X214514329Y-84427135D01*
X214516000Y-84419452D01*
X214516000Y-82485115D01*
X214511525Y-82469876D01*
X214510135Y-82468671D01*
X214502452Y-82467000D01*
X214298292Y-82467000D01*
X214291917Y-82467323D01*
X214152670Y-82481467D01*
X214140230Y-82484021D01*
X213961857Y-82539920D01*
X213950169Y-82544929D01*
X213786680Y-82635553D01*
X213776247Y-82642804D01*
X213634312Y-82764456D01*
X213625559Y-82773647D01*
X213510979Y-82921364D01*
X213504255Y-82932124D01*
X213473544Y-82994537D01*
X213425521Y-83046828D01*
X213356851Y-83064854D01*
X213289336Y-83042894D01*
X213271394Y-83028002D01*
X213036092Y-82792700D01*
X213005354Y-82742542D01*
X212986568Y-82684725D01*
X212986567Y-82684724D01*
X212984527Y-82678444D01*
X212889040Y-82513056D01*
X212851601Y-82471475D01*
X212765675Y-82376045D01*
X212765674Y-82376044D01*
X212761253Y-82371134D01*
X212662157Y-82299136D01*
X212612094Y-82262763D01*
X212612093Y-82262762D01*
X212606752Y-82258882D01*
X212600724Y-82256198D01*
X212600722Y-82256197D01*
X212438319Y-82183891D01*
X212438318Y-82183891D01*
X212432288Y-82181206D01*
X212338887Y-82161353D01*
X212251944Y-82142872D01*
X212251939Y-82142872D01*
X212245487Y-82141500D01*
X212054513Y-82141500D01*
X212048061Y-82142872D01*
X212048056Y-82142872D01*
X211909340Y-82172358D01*
X211867712Y-82181206D01*
X211861679Y-82183892D01*
X211861676Y-82183893D01*
X211826896Y-82199378D01*
X211756529Y-82208812D01*
X211692232Y-82178705D01*
X211666529Y-82147271D01*
X211606014Y-82042456D01*
X211589040Y-82013056D01*
X211495025Y-81908641D01*
X211465675Y-81876045D01*
X211465674Y-81876044D01*
X211461253Y-81871134D01*
X211362157Y-81799136D01*
X211312094Y-81762763D01*
X211312093Y-81762762D01*
X211306752Y-81758882D01*
X211300724Y-81756198D01*
X211300722Y-81756197D01*
X211138319Y-81683891D01*
X211138318Y-81683891D01*
X211132288Y-81681206D01*
X211038888Y-81661353D01*
X210951944Y-81642872D01*
X210951939Y-81642872D01*
X210945487Y-81641500D01*
X210754513Y-81641500D01*
X210748061Y-81642872D01*
X210748056Y-81642872D01*
X210661113Y-81661353D01*
X210567712Y-81681206D01*
X210561682Y-81683891D01*
X210561681Y-81683891D01*
X210456755Y-81730607D01*
X210405506Y-81741500D01*
X208359164Y-81741500D01*
X208357845Y-81741493D01*
X208267779Y-81740550D01*
X208260893Y-81742039D01*
X208260891Y-81742039D01*
X208242313Y-81746056D01*
X208225414Y-81749710D01*
X208212835Y-81751770D01*
X208176741Y-81755818D01*
X208176738Y-81755819D01*
X208169745Y-81756603D01*
X208152056Y-81762763D01*
X208138068Y-81767634D01*
X208123258Y-81771796D01*
X208097378Y-81777391D01*
X208097374Y-81777392D01*
X208090489Y-81778881D01*
X208084105Y-81781858D01*
X208084099Y-81781860D01*
X208051193Y-81797204D01*
X208039384Y-81801999D01*
X207998448Y-81816255D01*
X207992476Y-81819987D01*
X207992469Y-81819990D01*
X207970005Y-81834027D01*
X207956488Y-81841366D01*
X207932481Y-81852561D01*
X207932477Y-81852563D01*
X207926098Y-81855538D01*
X207910998Y-81867251D01*
X207891844Y-81882108D01*
X207881395Y-81889397D01*
X207844624Y-81912374D01*
X207839625Y-81917339D01*
X207839623Y-81917340D01*
X207815815Y-81940983D01*
X207815192Y-81941566D01*
X207814530Y-81942079D01*
X207788681Y-81967928D01*
X207745207Y-82011100D01*
X207715918Y-82040185D01*
X207715259Y-82041223D01*
X207714153Y-82042456D01*
X206596993Y-83159616D01*
X206534681Y-83193642D01*
X206463866Y-83188577D01*
X206407937Y-83147225D01*
X206383987Y-83116013D01*
X206366983Y-83102965D01*
X206358621Y-83096548D01*
X206346230Y-83085681D01*
X204779164Y-81518615D01*
X204745138Y-81456303D01*
X204750203Y-81385488D01*
X204794197Y-81327585D01*
X204861253Y-81278866D01*
X204989040Y-81136944D01*
X205084527Y-80971556D01*
X205143542Y-80789928D01*
X205146842Y-80758535D01*
X205162814Y-80606565D01*
X205163504Y-80600000D01*
X205150615Y-80477365D01*
X205144232Y-80416635D01*
X205144232Y-80416633D01*
X205143542Y-80410072D01*
X205084527Y-80228444D01*
X204989040Y-80063056D01*
X204977366Y-80050090D01*
X204865675Y-79926045D01*
X204865674Y-79926044D01*
X204861253Y-79921134D01*
X204734081Y-79828738D01*
X204712094Y-79812763D01*
X204712093Y-79812762D01*
X204706752Y-79808882D01*
X204700724Y-79806198D01*
X204700722Y-79806197D01*
X204538319Y-79733891D01*
X204538318Y-79733891D01*
X204532288Y-79731206D01*
X204426044Y-79708623D01*
X204351944Y-79692872D01*
X204351939Y-79692872D01*
X204345487Y-79691500D01*
X204154513Y-79691500D01*
X204148061Y-79692872D01*
X204148056Y-79692872D01*
X204073956Y-79708623D01*
X203967712Y-79731206D01*
X203961682Y-79733891D01*
X203961681Y-79733891D01*
X203799278Y-79806197D01*
X203799276Y-79806198D01*
X203793248Y-79808882D01*
X203787907Y-79812762D01*
X203787906Y-79812763D01*
X203776624Y-79820960D01*
X203709756Y-79844819D01*
X203640604Y-79828738D01*
X203613468Y-79808119D01*
X200734115Y-76928766D01*
X200723248Y-76916375D01*
X200708813Y-76897563D01*
X200703787Y-76891013D01*
X200671875Y-76866526D01*
X200671872Y-76866523D01*
X200576676Y-76793476D01*
X200428651Y-76732162D01*
X200420464Y-76731084D01*
X200420463Y-76731084D01*
X200409258Y-76729609D01*
X200378062Y-76725502D01*
X200309685Y-76716500D01*
X200309682Y-76716500D01*
X200309674Y-76716499D01*
X200277989Y-76712328D01*
X200269800Y-76711250D01*
X200238107Y-76715422D01*
X200221664Y-76716500D01*
X199409039Y-76716500D01*
X199340918Y-76696498D01*
X199319944Y-76679595D01*
X199063944Y-76423595D01*
X199029918Y-76361283D01*
X199034983Y-76290468D01*
X199077530Y-76233632D01*
X199144050Y-76208821D01*
X199153039Y-76208500D01*
X201818583Y-76208500D01*
X201838292Y-76210051D01*
X201852190Y-76212252D01*
X201858777Y-76211907D01*
X201858782Y-76211907D01*
X201920480Y-76208673D01*
X201927074Y-76208500D01*
X201947610Y-76208500D01*
X201950882Y-76208156D01*
X201950884Y-76208156D01*
X201968042Y-76206353D01*
X201974616Y-76205836D01*
X202036308Y-76202603D01*
X202036312Y-76202602D01*
X202042903Y-76202257D01*
X202049284Y-76200547D01*
X202049286Y-76200547D01*
X202056491Y-76198617D01*
X202075925Y-76195015D01*
X202083354Y-76194234D01*
X202083363Y-76194232D01*
X202089928Y-76193542D01*
X202154997Y-76172400D01*
X202161299Y-76170533D01*
X202227370Y-76152829D01*
X202239908Y-76146440D01*
X202258174Y-76138875D01*
X202265272Y-76136569D01*
X202265274Y-76136568D01*
X202271556Y-76134527D01*
X202330785Y-76100331D01*
X202336579Y-76097185D01*
X202355840Y-76087371D01*
X202397530Y-76066129D01*
X202408467Y-76057273D01*
X202424763Y-76046073D01*
X202431224Y-76042343D01*
X202431228Y-76042340D01*
X202436944Y-76039040D01*
X202441850Y-76034623D01*
X202441855Y-76034619D01*
X202487769Y-75993278D01*
X202492784Y-75988994D01*
X202501282Y-75982112D01*
X202508741Y-75976072D01*
X202523256Y-75961557D01*
X202528041Y-75957016D01*
X202573957Y-75915673D01*
X202578866Y-75911253D01*
X202587140Y-75899865D01*
X202599981Y-75884832D01*
X202884832Y-75599981D01*
X202899865Y-75587140D01*
X202905913Y-75582746D01*
X202905914Y-75582745D01*
X202911253Y-75578866D01*
X202937073Y-75550190D01*
X202997519Y-75512950D01*
X203030709Y-75508500D01*
X205318077Y-75508500D01*
X205386198Y-75528502D01*
X205432691Y-75582158D01*
X205442795Y-75652432D01*
X205420399Y-75708026D01*
X205321508Y-75845647D01*
X205321501Y-75845658D01*
X205319002Y-75849136D01*
X205190857Y-76091161D01*
X205189385Y-76095184D01*
X205189383Y-76095188D01*
X205113953Y-76301309D01*
X205096743Y-76348337D01*
X205038404Y-76615907D01*
X205016917Y-76888918D01*
X205032682Y-77162320D01*
X205033507Y-77166525D01*
X205033508Y-77166533D01*
X205062062Y-77312074D01*
X205085405Y-77431053D01*
X205086792Y-77435103D01*
X205086793Y-77435108D01*
X205172723Y-77686088D01*
X205174112Y-77690144D01*
X205176039Y-77693975D01*
X205283777Y-77908189D01*
X205297160Y-77934799D01*
X205299586Y-77938328D01*
X205299589Y-77938334D01*
X205444099Y-78148595D01*
X205452274Y-78160490D01*
X205455161Y-78163663D01*
X205455162Y-78163664D01*
X205633692Y-78359867D01*
X205636582Y-78363043D01*
X205846675Y-78538707D01*
X205850316Y-78540991D01*
X206075024Y-78681951D01*
X206075028Y-78681953D01*
X206078664Y-78684234D01*
X206181528Y-78730679D01*
X206324345Y-78795164D01*
X206324349Y-78795166D01*
X206328257Y-78796930D01*
X206332377Y-78798150D01*
X206332376Y-78798150D01*
X206586723Y-78873491D01*
X206586727Y-78873492D01*
X206590836Y-78874709D01*
X206595070Y-78875357D01*
X206595075Y-78875358D01*
X206857298Y-78915483D01*
X206857300Y-78915483D01*
X206861540Y-78916132D01*
X207000912Y-78918322D01*
X207131071Y-78920367D01*
X207131077Y-78920367D01*
X207135362Y-78920434D01*
X207407235Y-78887534D01*
X207672127Y-78818041D01*
X207676087Y-78816401D01*
X207676092Y-78816399D01*
X207821349Y-78756231D01*
X207891939Y-78748642D01*
X207955426Y-78780421D01*
X207991653Y-78841479D01*
X207989119Y-78912431D01*
X207959143Y-78958234D01*
X207960460Y-78959420D01*
X207956038Y-78964332D01*
X207951134Y-78968747D01*
X207926871Y-79002143D01*
X207918575Y-79012386D01*
X207895383Y-79038143D01*
X207895380Y-79038147D01*
X207890960Y-79043056D01*
X207870325Y-79078798D01*
X207863146Y-79089851D01*
X207842764Y-79117904D01*
X207842761Y-79117909D01*
X207838882Y-79123248D01*
X207836199Y-79129275D01*
X207836198Y-79129276D01*
X207822092Y-79160959D01*
X207816105Y-79172708D01*
X207795473Y-79208444D01*
X207793432Y-79214727D01*
X207793431Y-79214728D01*
X207782719Y-79247696D01*
X207777999Y-79259994D01*
X207761206Y-79297712D01*
X207759834Y-79304165D01*
X207759833Y-79304169D01*
X207752625Y-79338080D01*
X207749212Y-79350817D01*
X207738498Y-79383791D01*
X207738497Y-79383798D01*
X207736458Y-79390072D01*
X207735768Y-79396633D01*
X207735768Y-79396635D01*
X207732144Y-79431122D01*
X207730082Y-79444136D01*
X207721500Y-79484513D01*
X207721500Y-79525784D01*
X207720810Y-79538955D01*
X207716496Y-79580000D01*
X207717186Y-79586565D01*
X207720810Y-79621045D01*
X207721500Y-79634216D01*
X207721500Y-79675487D01*
X207730082Y-79715864D01*
X207732143Y-79728872D01*
X207732671Y-79733891D01*
X207735255Y-79758477D01*
X207736458Y-79769928D01*
X207738497Y-79776202D01*
X207738498Y-79776209D01*
X207749212Y-79809183D01*
X207752625Y-79821920D01*
X207757493Y-79844819D01*
X207761206Y-79862288D01*
X207777999Y-79900006D01*
X207782718Y-79912302D01*
X207795473Y-79951556D01*
X207798776Y-79957277D01*
X207816104Y-79987290D01*
X207822091Y-79999039D01*
X207838882Y-80036752D01*
X207842761Y-80042091D01*
X207842764Y-80042096D01*
X207863146Y-80070149D01*
X207870325Y-80081202D01*
X207890960Y-80116944D01*
X207895380Y-80121853D01*
X207895383Y-80121857D01*
X207918575Y-80147614D01*
X207926871Y-80157857D01*
X207951134Y-80191253D01*
X207956036Y-80195667D01*
X207956038Y-80195669D01*
X207981806Y-80218871D01*
X207991129Y-80228194D01*
X208014128Y-80253736D01*
X208018747Y-80258866D01*
X208052143Y-80283129D01*
X208062386Y-80291425D01*
X208088143Y-80314617D01*
X208088146Y-80314619D01*
X208093056Y-80319040D01*
X208128798Y-80339675D01*
X208139851Y-80346854D01*
X208167904Y-80367236D01*
X208167909Y-80367239D01*
X208173248Y-80371118D01*
X208179275Y-80373801D01*
X208179276Y-80373802D01*
X208210959Y-80387908D01*
X208222708Y-80393895D01*
X208258444Y-80414527D01*
X208264727Y-80416568D01*
X208264728Y-80416569D01*
X208297696Y-80427281D01*
X208309994Y-80432001D01*
X208347712Y-80448794D01*
X208354165Y-80450166D01*
X208354169Y-80450167D01*
X208388080Y-80457375D01*
X208400817Y-80460788D01*
X208433791Y-80471502D01*
X208433798Y-80471503D01*
X208440072Y-80473542D01*
X208446633Y-80474232D01*
X208446635Y-80474232D01*
X208460690Y-80475709D01*
X208481128Y-80477857D01*
X208494136Y-80479918D01*
X208534513Y-80488500D01*
X211338583Y-80488500D01*
X211358292Y-80490051D01*
X211372190Y-80492252D01*
X211378777Y-80491907D01*
X211378782Y-80491907D01*
X211440480Y-80488673D01*
X211447074Y-80488500D01*
X211467610Y-80488500D01*
X211470882Y-80488156D01*
X211470884Y-80488156D01*
X211488042Y-80486353D01*
X211494616Y-80485836D01*
X211556308Y-80482603D01*
X211556312Y-80482602D01*
X211562903Y-80482257D01*
X211569284Y-80480547D01*
X211569286Y-80480547D01*
X211576491Y-80478617D01*
X211595925Y-80475015D01*
X211603354Y-80474234D01*
X211603363Y-80474232D01*
X211609928Y-80473542D01*
X211674997Y-80452400D01*
X211681299Y-80450533D01*
X211747370Y-80432829D01*
X211759908Y-80426440D01*
X211778174Y-80418875D01*
X211785272Y-80416569D01*
X211785274Y-80416568D01*
X211791556Y-80414527D01*
X211799273Y-80410072D01*
X211850782Y-80380333D01*
X211856579Y-80377185D01*
X211860165Y-80375358D01*
X211917530Y-80346129D01*
X211928467Y-80337273D01*
X211944763Y-80326073D01*
X211951224Y-80322343D01*
X211951228Y-80322340D01*
X211956944Y-80319040D01*
X211961850Y-80314623D01*
X211961855Y-80314619D01*
X212007769Y-80273278D01*
X212012784Y-80268994D01*
X212023668Y-80260180D01*
X212028741Y-80256072D01*
X212043256Y-80241557D01*
X212048041Y-80237016D01*
X212058855Y-80227279D01*
X212098866Y-80191253D01*
X212107140Y-80179865D01*
X212119981Y-80164832D01*
X215354832Y-76929981D01*
X215369865Y-76917140D01*
X215375913Y-76912746D01*
X215375914Y-76912745D01*
X215381253Y-76908866D01*
X215427016Y-76858041D01*
X215431557Y-76853256D01*
X215446072Y-76838741D01*
X215458997Y-76822780D01*
X215463269Y-76817779D01*
X215504619Y-76771855D01*
X215504623Y-76771850D01*
X215509040Y-76766944D01*
X215516073Y-76754763D01*
X215527267Y-76738474D01*
X215536129Y-76727531D01*
X215543876Y-76712328D01*
X215567188Y-76666574D01*
X215570336Y-76660777D01*
X215601223Y-76607279D01*
X215601223Y-76607278D01*
X215604527Y-76601556D01*
X215608875Y-76588173D01*
X215616441Y-76569907D01*
X215619832Y-76563252D01*
X215622829Y-76557370D01*
X215640529Y-76491315D01*
X215642402Y-76484991D01*
X215659315Y-76432937D01*
X215663542Y-76419928D01*
X215665012Y-76405939D01*
X215668617Y-76386486D01*
X215670547Y-76379285D01*
X215672257Y-76372904D01*
X215672866Y-76361283D01*
X215675836Y-76304615D01*
X215676353Y-76298040D01*
X215678156Y-76280882D01*
X215678500Y-76277610D01*
X215678500Y-76257075D01*
X215678673Y-76250481D01*
X215681907Y-76188783D01*
X215681907Y-76188778D01*
X215682252Y-76182191D01*
X215680051Y-76168293D01*
X215678500Y-76148584D01*
X215678500Y-67501417D01*
X215680051Y-67481705D01*
X215681220Y-67474325D01*
X215682252Y-67467810D01*
X215678673Y-67399520D01*
X215678500Y-67392926D01*
X215678500Y-67372390D01*
X215678156Y-67369116D01*
X215676353Y-67351958D01*
X215675836Y-67345384D01*
X215672603Y-67283696D01*
X215672603Y-67283694D01*
X215672257Y-67277097D01*
X215668615Y-67263504D01*
X215665014Y-67244075D01*
X215664232Y-67236639D01*
X215663542Y-67230072D01*
X215642407Y-67165025D01*
X215640535Y-67158706D01*
X215624538Y-67099003D01*
X215624537Y-67099000D01*
X215622830Y-67092630D01*
X215616438Y-67080085D01*
X215608874Y-67061823D01*
X215606568Y-67054726D01*
X215604527Y-67048444D01*
X215570336Y-66989223D01*
X215567188Y-66983426D01*
X215539126Y-66928351D01*
X215539124Y-66928348D01*
X215536129Y-66922470D01*
X215527273Y-66911533D01*
X215516073Y-66895237D01*
X215512343Y-66888776D01*
X215512340Y-66888772D01*
X215509040Y-66883056D01*
X215504623Y-66878150D01*
X215504619Y-66878145D01*
X215463278Y-66832231D01*
X215458994Y-66827216D01*
X215448148Y-66813823D01*
X215446072Y-66811259D01*
X215431557Y-66796744D01*
X215427016Y-66791959D01*
X215385673Y-66746043D01*
X215381253Y-66741134D01*
X215369865Y-66732860D01*
X215354832Y-66720019D01*
X214299981Y-65665168D01*
X214287140Y-65650135D01*
X214282746Y-65644087D01*
X214282745Y-65644086D01*
X214278866Y-65638747D01*
X214228041Y-65592984D01*
X214223256Y-65588443D01*
X214208741Y-65573928D01*
X214201282Y-65567888D01*
X214192784Y-65561006D01*
X214187769Y-65556722D01*
X214141855Y-65515381D01*
X214141850Y-65515377D01*
X214136944Y-65510960D01*
X214131228Y-65507660D01*
X214131224Y-65507657D01*
X214124763Y-65503927D01*
X214108466Y-65492727D01*
X214102660Y-65488025D01*
X214102658Y-65488024D01*
X214097530Y-65483871D01*
X214036577Y-65452814D01*
X214030782Y-65449667D01*
X213977279Y-65418777D01*
X213977278Y-65418776D01*
X213971556Y-65415473D01*
X213965274Y-65413432D01*
X213965272Y-65413431D01*
X213958174Y-65411125D01*
X213939907Y-65403559D01*
X213927370Y-65397171D01*
X213861299Y-65379467D01*
X213854997Y-65377600D01*
X213789928Y-65356458D01*
X213783363Y-65355768D01*
X213783354Y-65355766D01*
X213775925Y-65354985D01*
X213756491Y-65351383D01*
X213749286Y-65349453D01*
X213749284Y-65349453D01*
X213742903Y-65347743D01*
X213736312Y-65347398D01*
X213736308Y-65347397D01*
X213674616Y-65344164D01*
X213668042Y-65343647D01*
X213650884Y-65341844D01*
X213650882Y-65341844D01*
X213647610Y-65341500D01*
X213627074Y-65341500D01*
X213620480Y-65341327D01*
X213558782Y-65338093D01*
X213558777Y-65338093D01*
X213552190Y-65337748D01*
X213538292Y-65339949D01*
X213518583Y-65341500D01*
X208601575Y-65341500D01*
X208533454Y-65321498D01*
X208486961Y-65267842D01*
X208476857Y-65197568D01*
X208511091Y-65127815D01*
X208564686Y-65072509D01*
X208567669Y-65069431D01*
X208570202Y-65065983D01*
X208570206Y-65065978D01*
X208727257Y-64852178D01*
X208729795Y-64848723D01*
X208757154Y-64798334D01*
X208858418Y-64611830D01*
X208858419Y-64611828D01*
X208860468Y-64608054D01*
X208945173Y-64383888D01*
X208955751Y-64355895D01*
X208955752Y-64355891D01*
X208957269Y-64351877D01*
X208982107Y-64243427D01*
X209017449Y-64089117D01*
X209017450Y-64089113D01*
X209018407Y-64084933D01*
X209023995Y-64022326D01*
X209042531Y-63814627D01*
X209042531Y-63814625D01*
X209042751Y-63812161D01*
X209043193Y-63770000D01*
X209039632Y-63717763D01*
X209024859Y-63501055D01*
X209024858Y-63501049D01*
X209024567Y-63496778D01*
X208969032Y-63228612D01*
X208877617Y-62970465D01*
X208752013Y-62727112D01*
X208742040Y-62712921D01*
X208597008Y-62506562D01*
X208594545Y-62503057D01*
X208415445Y-62310322D01*
X208411046Y-62305588D01*
X208411043Y-62305585D01*
X208408125Y-62302445D01*
X208404810Y-62299731D01*
X208404806Y-62299728D01*
X208199523Y-62131706D01*
X208196205Y-62128990D01*
X207962704Y-61985901D01*
X207945706Y-61978439D01*
X207869240Y-61944873D01*
X207814905Y-61899177D01*
X207793900Y-61831359D01*
X207812895Y-61762951D01*
X207865858Y-61715671D01*
X207919886Y-61703500D01*
X215995500Y-61703500D01*
X216063621Y-61723502D01*
G37*
%TD.AperFunction*%
%TA.AperFunction,Conductor*%
G36*
X208105816Y-89254718D02*
G01*
X208118605Y-89265298D01*
X208127384Y-89273288D01*
X208386343Y-89532247D01*
X208393887Y-89540537D01*
X208398000Y-89547018D01*
X208403777Y-89552443D01*
X208447667Y-89593658D01*
X208450509Y-89596413D01*
X208470231Y-89616135D01*
X208473355Y-89618558D01*
X208473359Y-89618562D01*
X208473424Y-89618612D01*
X208482445Y-89626317D01*
X208514679Y-89656586D01*
X208521627Y-89660405D01*
X208521629Y-89660407D01*
X208532432Y-89666346D01*
X208548959Y-89677202D01*
X208558698Y-89684757D01*
X208558700Y-89684758D01*
X208564960Y-89689614D01*
X208605540Y-89707174D01*
X208616188Y-89712391D01*
X208647988Y-89729873D01*
X208654940Y-89733695D01*
X208662616Y-89735666D01*
X208662619Y-89735667D01*
X208674562Y-89738733D01*
X208693266Y-89745137D01*
X208698457Y-89747383D01*
X208711855Y-89753181D01*
X208719678Y-89754420D01*
X208719688Y-89754423D01*
X208755524Y-89760099D01*
X208767144Y-89762505D01*
X208802289Y-89771528D01*
X208809970Y-89773500D01*
X208830224Y-89773500D01*
X208849934Y-89775051D01*
X208869943Y-89778220D01*
X208877835Y-89777474D01*
X208903467Y-89775051D01*
X208913962Y-89774059D01*
X208925819Y-89773500D01*
X209072964Y-89773500D01*
X209141085Y-89793502D01*
X209147025Y-89797564D01*
X209222964Y-89852737D01*
X209235790Y-89862056D01*
X209279144Y-89918279D01*
X209285219Y-89989015D01*
X209282884Y-89998257D01*
X209285025Y-90005815D01*
X209488666Y-90209456D01*
X209522692Y-90271768D01*
X209524881Y-90311721D01*
X209521909Y-90340000D01*
X209522599Y-90346565D01*
X209538924Y-90501887D01*
X209540223Y-90514249D01*
X209585977Y-90655063D01*
X209588005Y-90726031D01*
X209551342Y-90786829D01*
X209487630Y-90818154D01*
X209412894Y-90808195D01*
X209350753Y-90779218D01*
X209314908Y-90754118D01*
X208931534Y-90370744D01*
X208919154Y-90363984D01*
X208912239Y-90369160D01*
X208898124Y-90393609D01*
X208892786Y-90405598D01*
X208842755Y-90559578D01*
X208840025Y-90572419D01*
X208832645Y-90642638D01*
X208805632Y-90708295D01*
X208747524Y-90748887D01*
X208664796Y-90776728D01*
X208664794Y-90776729D01*
X208658325Y-90778906D01*
X208503095Y-90872177D01*
X208463909Y-90909234D01*
X208461302Y-90911699D01*
X208398065Y-90943971D01*
X208327418Y-90936931D01*
X208285621Y-90909234D01*
X208158765Y-90782342D01*
X207936392Y-90559904D01*
X207902376Y-90497588D01*
X207899500Y-90470822D01*
X207899500Y-89351803D01*
X207919502Y-89283682D01*
X207973158Y-89237189D01*
X208043432Y-89227085D01*
X208105816Y-89254718D01*
G37*
%TD.AperFunction*%
%TA.AperFunction,Conductor*%
G36*
X193750160Y-82558302D02*
G01*
X193796653Y-82611958D01*
X193806757Y-82682232D01*
X193777263Y-82746812D01*
X193771139Y-82753391D01*
X192021522Y-84503174D01*
X190808205Y-85716606D01*
X190741500Y-85783317D01*
X190679189Y-85817345D01*
X190608373Y-85812284D01*
X190587144Y-85800887D01*
X190586811Y-85801464D01*
X190581093Y-85798163D01*
X190575752Y-85794282D01*
X190569724Y-85791598D01*
X190569722Y-85791597D01*
X190407319Y-85719291D01*
X190407318Y-85719291D01*
X190401288Y-85716606D01*
X190307888Y-85696753D01*
X190220944Y-85678272D01*
X190220939Y-85678272D01*
X190214487Y-85676900D01*
X190023513Y-85676900D01*
X190017061Y-85678272D01*
X190017056Y-85678272D01*
X189930113Y-85696753D01*
X189836712Y-85716606D01*
X189830682Y-85719291D01*
X189830681Y-85719291D01*
X189668278Y-85791597D01*
X189668276Y-85791598D01*
X189662248Y-85794282D01*
X189656907Y-85798162D01*
X189656906Y-85798163D01*
X189606843Y-85834536D01*
X189507747Y-85906534D01*
X189503326Y-85911444D01*
X189503325Y-85911445D01*
X189480883Y-85936370D01*
X189379960Y-86048456D01*
X189284473Y-86213844D01*
X189225458Y-86395472D01*
X189224768Y-86402033D01*
X189224768Y-86402035D01*
X189218486Y-86461807D01*
X189205496Y-86585400D01*
X189206186Y-86591965D01*
X189223015Y-86752081D01*
X189225458Y-86775328D01*
X189284473Y-86956956D01*
X189379960Y-87122344D01*
X189384378Y-87127251D01*
X189384379Y-87127252D01*
X189494387Y-87249428D01*
X189507747Y-87264266D01*
X189585190Y-87320532D01*
X189634652Y-87356468D01*
X189662248Y-87376518D01*
X189668276Y-87379202D01*
X189668278Y-87379203D01*
X189830681Y-87451509D01*
X189836712Y-87454194D01*
X189929680Y-87473955D01*
X190017056Y-87492528D01*
X190017061Y-87492528D01*
X190023513Y-87493900D01*
X190214487Y-87493900D01*
X190220939Y-87492528D01*
X190220944Y-87492528D01*
X190308320Y-87473955D01*
X190401288Y-87454194D01*
X190407319Y-87451509D01*
X190569722Y-87379203D01*
X190569724Y-87379202D01*
X190575752Y-87376518D01*
X190603349Y-87356468D01*
X190679864Y-87300876D01*
X190746732Y-87277018D01*
X190815883Y-87293098D01*
X190855861Y-87328751D01*
X190857657Y-87331223D01*
X190860960Y-87336944D01*
X190988747Y-87478866D01*
X191143248Y-87591118D01*
X191149276Y-87593802D01*
X191149278Y-87593803D01*
X191276382Y-87650393D01*
X191330478Y-87696373D01*
X191351127Y-87764300D01*
X191331775Y-87832609D01*
X191278564Y-87879610D01*
X191225133Y-87891500D01*
X188493498Y-87891500D01*
X188425377Y-87871498D01*
X188404403Y-87854595D01*
X185650449Y-85100641D01*
X185616423Y-85038329D01*
X185621488Y-84967514D01*
X185664035Y-84910678D01*
X185688295Y-84896439D01*
X185818422Y-84838503D01*
X185818424Y-84838502D01*
X185824452Y-84835818D01*
X185835962Y-84827456D01*
X185973614Y-84727445D01*
X185978953Y-84723566D01*
X185994320Y-84706500D01*
X186004774Y-84694889D01*
X186065220Y-84657650D01*
X186098410Y-84653200D01*
X189116764Y-84653200D01*
X189133207Y-84654278D01*
X189164900Y-84658450D01*
X189173089Y-84657372D01*
X189204774Y-84653201D01*
X189204784Y-84653200D01*
X189204785Y-84653200D01*
X189299238Y-84640765D01*
X189304357Y-84640091D01*
X189315564Y-84638616D01*
X189315566Y-84638615D01*
X189323751Y-84637538D01*
X189471776Y-84576224D01*
X189489189Y-84562863D01*
X189566972Y-84503177D01*
X189566975Y-84503174D01*
X189580733Y-84492617D01*
X189598887Y-84478687D01*
X189603917Y-84472132D01*
X189618352Y-84453321D01*
X189629219Y-84440930D01*
X191494944Y-82575205D01*
X191557256Y-82541179D01*
X191584039Y-82538300D01*
X193682039Y-82538300D01*
X193750160Y-82558302D01*
G37*
%TD.AperFunction*%
%TA.AperFunction,Conductor*%
G36*
X194550736Y-84813979D02*
G01*
X194607572Y-84856526D01*
X194632383Y-84923046D01*
X194632014Y-84945203D01*
X194619896Y-85060500D01*
X194620084Y-85062286D01*
X194600584Y-85128696D01*
X194583681Y-85149670D01*
X192715791Y-87017560D01*
X192653479Y-87051586D01*
X192582664Y-87046521D01*
X192525828Y-87003974D01*
X192501017Y-86937454D01*
X192501386Y-86915294D01*
X192512814Y-86806564D01*
X192513504Y-86800000D01*
X192513316Y-86798214D01*
X192532816Y-86731804D01*
X192549719Y-86710830D01*
X194417609Y-84842940D01*
X194479921Y-84808914D01*
X194550736Y-84813979D01*
G37*
%TD.AperFunction*%
%TA.AperFunction,Conductor*%
G36*
X208094532Y-84053026D02*
G01*
X208151368Y-84095573D01*
X208176179Y-84162093D01*
X208176500Y-84171082D01*
X208176500Y-84535244D01*
X208191143Y-84670037D01*
X208248906Y-84841675D01*
X208342177Y-84996905D01*
X208346865Y-85001862D01*
X208346867Y-85001865D01*
X208447631Y-85108419D01*
X208466607Y-85128485D01*
X208472245Y-85132317D01*
X208472249Y-85132320D01*
X208549880Y-85185078D01*
X208616388Y-85230277D01*
X208719084Y-85271352D01*
X208784534Y-85297530D01*
X208783732Y-85299536D01*
X208835278Y-85331707D01*
X208860987Y-85376536D01*
X208892786Y-85474402D01*
X208898124Y-85486391D01*
X208909665Y-85506381D01*
X208919869Y-85516111D01*
X208927890Y-85512900D01*
X209091679Y-85349111D01*
X209147314Y-85316730D01*
X209312059Y-85271352D01*
X209318641Y-85269539D01*
X209324677Y-85266357D01*
X209324681Y-85266355D01*
X209355189Y-85250270D01*
X209424776Y-85236194D01*
X209490926Y-85261974D01*
X209532638Y-85319425D01*
X209539262Y-85374897D01*
X209521909Y-85540000D01*
X209522599Y-85546565D01*
X209524881Y-85568279D01*
X209512108Y-85638118D01*
X209488666Y-85670544D01*
X209290436Y-85868774D01*
X209282821Y-85882718D01*
X209283808Y-85896511D01*
X209268717Y-85965885D01*
X209218515Y-86016087D01*
X209158129Y-86031500D01*
X207634500Y-86031500D01*
X207566379Y-86011498D01*
X207519886Y-85957842D01*
X207508500Y-85905500D01*
X207508500Y-84587082D01*
X207528502Y-84518961D01*
X207545405Y-84497987D01*
X207961405Y-84081987D01*
X208023717Y-84047961D01*
X208094532Y-84053026D01*
G37*
%TD.AperFunction*%
%TA.AperFunction,Conductor*%
G36*
X202196065Y-80676820D02*
G01*
X202914984Y-81395739D01*
X202925849Y-81408128D01*
X202945305Y-81433485D01*
X202977228Y-81457983D01*
X202977241Y-81457996D01*
X203013117Y-81485524D01*
X203013119Y-81485528D01*
X203013120Y-81485527D01*
X203057557Y-81519628D01*
X203069943Y-81530492D01*
X205304595Y-83765144D01*
X205338621Y-83827456D01*
X205341500Y-83854239D01*
X205341500Y-84803152D01*
X205321498Y-84871273D01*
X205267842Y-84917766D01*
X205197568Y-84927870D01*
X205132988Y-84898376D01*
X205112168Y-84873161D01*
X205111824Y-84873425D01*
X205081566Y-84833992D01*
X205070802Y-84819964D01*
X205038777Y-84778228D01*
X205038774Y-84778225D01*
X205014287Y-84746313D01*
X205007732Y-84741283D01*
X204988921Y-84726848D01*
X204976530Y-84715981D01*
X202017760Y-81757211D01*
X201983734Y-81694899D01*
X201980855Y-81668116D01*
X201980855Y-80766791D01*
X201981927Y-80750391D01*
X201982042Y-80749515D01*
X202010741Y-80684577D01*
X202069991Y-80645463D01*
X202140983Y-80644593D01*
X202196065Y-80676820D01*
G37*
%TD.AperFunction*%
%TA.AperFunction,Conductor*%
G36*
X210456121Y-83576002D02*
G01*
X210502614Y-83629658D01*
X210514000Y-83682000D01*
X210514000Y-84580500D01*
X210493998Y-84648621D01*
X210440342Y-84695114D01*
X210388000Y-84706500D01*
X210272396Y-84706500D01*
X210265943Y-84707872D01*
X210265939Y-84707872D01*
X210192107Y-84723566D01*
X210101016Y-84742928D01*
X210094987Y-84745613D01*
X210094985Y-84745613D01*
X210003974Y-84786134D01*
X209933607Y-84795568D01*
X209869310Y-84765462D01*
X209831496Y-84705373D01*
X209829760Y-84643539D01*
X209831135Y-84637390D01*
X209865004Y-84575786D01*
X209993188Y-84447602D01*
X210006000Y-84424140D01*
X210006000Y-83682000D01*
X210026002Y-83613879D01*
X210079658Y-83567386D01*
X210132000Y-83556000D01*
X210388000Y-83556000D01*
X210456121Y-83576002D01*
G37*
%TD.AperFunction*%
%TA.AperFunction,Conductor*%
G36*
X191163893Y-72478502D02*
G01*
X191184865Y-72495402D01*
X191985619Y-73296109D01*
X197464066Y-78774238D01*
X197498092Y-78836547D01*
X197493029Y-78907363D01*
X197450484Y-78964200D01*
X197417708Y-78981197D01*
X197417712Y-78981206D01*
X197417560Y-78981273D01*
X197417551Y-78981278D01*
X197411688Y-78983888D01*
X197411685Y-78983889D01*
X197249278Y-79056197D01*
X197249276Y-79056198D01*
X197243248Y-79058882D01*
X197088747Y-79171134D01*
X197084326Y-79176044D01*
X197084325Y-79176045D01*
X197014158Y-79253974D01*
X196960960Y-79313056D01*
X196942783Y-79344540D01*
X196885272Y-79444152D01*
X196865473Y-79478444D01*
X196806458Y-79660072D01*
X196805768Y-79666633D01*
X196805768Y-79666635D01*
X196798699Y-79733891D01*
X196786496Y-79850000D01*
X196787186Y-79856565D01*
X196805491Y-80030724D01*
X196806458Y-80039928D01*
X196865473Y-80221556D01*
X196868776Y-80227278D01*
X196868777Y-80227279D01*
X196884052Y-80253736D01*
X196960960Y-80386944D01*
X196965378Y-80391851D01*
X196965379Y-80391852D01*
X197049691Y-80485490D01*
X197080409Y-80549497D01*
X197071644Y-80619951D01*
X197026181Y-80674482D01*
X196956055Y-80695800D01*
X181932339Y-80695800D01*
X181864218Y-80675798D01*
X181843244Y-80658895D01*
X181307944Y-80123595D01*
X181273918Y-80061283D01*
X181278983Y-79990468D01*
X181321530Y-79933632D01*
X181388050Y-79908821D01*
X181397039Y-79908500D01*
X185751864Y-79908500D01*
X185768307Y-79909578D01*
X185800000Y-79913750D01*
X185808189Y-79912672D01*
X185839874Y-79908501D01*
X185839884Y-79908500D01*
X185839885Y-79908500D01*
X185939457Y-79895391D01*
X185950664Y-79893916D01*
X185950666Y-79893915D01*
X185958851Y-79892838D01*
X186106876Y-79831524D01*
X186120644Y-79820960D01*
X186202072Y-79758477D01*
X186202075Y-79758474D01*
X186227437Y-79739013D01*
X186233987Y-79733987D01*
X186253458Y-79708613D01*
X186264316Y-79696233D01*
X187596234Y-78364315D01*
X187608625Y-78353448D01*
X187627437Y-78339013D01*
X187633987Y-78333987D01*
X187658474Y-78302075D01*
X187658480Y-78302069D01*
X187726496Y-78213429D01*
X187726497Y-78213427D01*
X187731524Y-78206876D01*
X187792838Y-78058851D01*
X187803259Y-77979694D01*
X187808500Y-77939885D01*
X187808500Y-77939880D01*
X187813750Y-77900000D01*
X187809578Y-77868307D01*
X187808500Y-77851864D01*
X187808500Y-73111112D01*
X187828502Y-73042991D01*
X187882158Y-72996498D01*
X187908301Y-72987866D01*
X187997988Y-72968802D01*
X188052976Y-72944320D01*
X188166422Y-72893811D01*
X188166424Y-72893810D01*
X188172452Y-72891126D01*
X188183988Y-72882745D01*
X188253534Y-72832216D01*
X188326953Y-72778874D01*
X188331375Y-72773963D01*
X188450321Y-72641860D01*
X188450322Y-72641859D01*
X188454740Y-72636952D01*
X188521397Y-72521499D01*
X188572778Y-72472507D01*
X188630515Y-72458500D01*
X191095772Y-72458500D01*
X191163893Y-72478502D01*
G37*
%TD.AperFunction*%
%TA.AperFunction,Conductor*%
G36*
X208334766Y-67178502D02*
G01*
X208381259Y-67232158D01*
X208391414Y-67295037D01*
X208392053Y-67295072D01*
X208391894Y-67298007D01*
X208391909Y-67298100D01*
X208391500Y-67301866D01*
X208391500Y-69198134D01*
X208398255Y-69260316D01*
X208449385Y-69396705D01*
X208536739Y-69513261D01*
X208653295Y-69600615D01*
X208661703Y-69603767D01*
X208759730Y-69640516D01*
X208816494Y-69683158D01*
X208841194Y-69749719D01*
X208841500Y-69758498D01*
X208841500Y-72941502D01*
X208821498Y-73009623D01*
X208767842Y-73056116D01*
X208759730Y-73059484D01*
X208714983Y-73076259D01*
X208653295Y-73099385D01*
X208536739Y-73186739D01*
X208449385Y-73303295D01*
X208398255Y-73439684D01*
X208391500Y-73501866D01*
X208391500Y-74293468D01*
X208371498Y-74361589D01*
X208317842Y-74408082D01*
X208247568Y-74418186D01*
X208188798Y-74393431D01*
X208156276Y-74368476D01*
X208008251Y-74307162D01*
X208000064Y-74306084D01*
X208000063Y-74306084D01*
X207988858Y-74304609D01*
X207944589Y-74298781D01*
X207889285Y-74291500D01*
X207889282Y-74291500D01*
X207889274Y-74291499D01*
X207857589Y-74287328D01*
X207849400Y-74286250D01*
X207817707Y-74290422D01*
X207801264Y-74291500D01*
X203030709Y-74291500D01*
X202962588Y-74271498D01*
X202937073Y-74249810D01*
X202915673Y-74226043D01*
X202911253Y-74221134D01*
X202899865Y-74212860D01*
X202884832Y-74200019D01*
X202874887Y-74190074D01*
X202854632Y-74176920D01*
X202817525Y-74152822D01*
X202812090Y-74149087D01*
X202785236Y-74129577D01*
X202756752Y-74108882D01*
X202750722Y-74106197D01*
X202750718Y-74106195D01*
X202743894Y-74103157D01*
X202726520Y-74093724D01*
X202714722Y-74086062D01*
X202708561Y-74083697D01*
X202708557Y-74083695D01*
X202650867Y-74061550D01*
X202644794Y-74059035D01*
X202582288Y-74031206D01*
X202575834Y-74029834D01*
X202575830Y-74029833D01*
X202568527Y-74028281D01*
X202549568Y-74022666D01*
X202536432Y-74017623D01*
X202511993Y-74013752D01*
X202468883Y-74006924D01*
X202462399Y-74005722D01*
X202401946Y-73992873D01*
X202401947Y-73992873D01*
X202395487Y-73991500D01*
X202381416Y-73991500D01*
X202361707Y-73989949D01*
X202347809Y-73987748D01*
X202341222Y-73988093D01*
X202341217Y-73988093D01*
X202279519Y-73991327D01*
X202272925Y-73991500D01*
X202204513Y-73991500D01*
X202198053Y-73992873D01*
X202198046Y-73992874D01*
X202190747Y-73994426D01*
X202171142Y-73997007D01*
X202170471Y-73997042D01*
X202157096Y-73997743D01*
X202150721Y-73999451D01*
X202150716Y-73999452D01*
X202091034Y-74015444D01*
X202084626Y-74016983D01*
X202017712Y-74031206D01*
X202011677Y-74033893D01*
X202004853Y-74036931D01*
X201986221Y-74043529D01*
X201980817Y-74044977D01*
X201972630Y-74047171D01*
X201949363Y-74059026D01*
X201911693Y-74078219D01*
X201905741Y-74081058D01*
X201843248Y-74108882D01*
X201837906Y-74112763D01*
X201831862Y-74117154D01*
X201815011Y-74127480D01*
X201802469Y-74133871D01*
X201797335Y-74138028D01*
X201797331Y-74138031D01*
X201749307Y-74176920D01*
X201744085Y-74180929D01*
X201688747Y-74221134D01*
X201684327Y-74226043D01*
X201684325Y-74226045D01*
X201642984Y-74271959D01*
X201638443Y-74276744D01*
X201560592Y-74354595D01*
X201498280Y-74388621D01*
X201471497Y-74391500D01*
X199170074Y-74391500D01*
X199137349Y-74386317D01*
X199137288Y-74386605D01*
X199131794Y-74385437D01*
X199131772Y-74385434D01*
X199130828Y-74385233D01*
X199130819Y-74385230D01*
X199068108Y-74371900D01*
X199062238Y-74370505D01*
X199000266Y-74354196D01*
X199000264Y-74354196D01*
X198993874Y-74352514D01*
X198982134Y-74351951D01*
X198961983Y-74349343D01*
X198950487Y-74346900D01*
X198879774Y-74346900D01*
X198873742Y-74346756D01*
X198809713Y-74343687D01*
X198809712Y-74343687D01*
X198803118Y-74343371D01*
X198796601Y-74344433D01*
X198791526Y-74345260D01*
X198771261Y-74346900D01*
X198759513Y-74346900D01*
X198690341Y-74361603D01*
X198684428Y-74362713D01*
X198668653Y-74365284D01*
X198614631Y-74374087D01*
X198608474Y-74376482D01*
X198603678Y-74378347D01*
X198584207Y-74384163D01*
X198572712Y-74386606D01*
X198566685Y-74389289D01*
X198566683Y-74389290D01*
X198508113Y-74415367D01*
X198502545Y-74417688D01*
X198436648Y-74443322D01*
X198426823Y-74449765D01*
X198408983Y-74459502D01*
X198398248Y-74464282D01*
X198341010Y-74505868D01*
X198336124Y-74509242D01*
X198276949Y-74548047D01*
X198268668Y-74556402D01*
X198253206Y-74569662D01*
X198252447Y-74570213D01*
X198203951Y-74588856D01*
X198204513Y-74591500D01*
X198017712Y-74631206D01*
X198011682Y-74633891D01*
X198011681Y-74633891D01*
X197849278Y-74706197D01*
X197849276Y-74706198D01*
X197843248Y-74708882D01*
X197688747Y-74821134D01*
X197684334Y-74826036D01*
X197684332Y-74826037D01*
X197669914Y-74842050D01*
X197609468Y-74879289D01*
X197538484Y-74877937D01*
X197487183Y-74846834D01*
X194840349Y-72200000D01*
X198886496Y-72200000D01*
X198887186Y-72206565D01*
X198905129Y-72377279D01*
X198906458Y-72389928D01*
X198965473Y-72571556D01*
X199060960Y-72736944D01*
X199065378Y-72741851D01*
X199065379Y-72741852D01*
X199178618Y-72867617D01*
X199188747Y-72878866D01*
X199343248Y-72991118D01*
X199349276Y-72993802D01*
X199349278Y-72993803D01*
X199496801Y-73059484D01*
X199517712Y-73068794D01*
X199603101Y-73086944D01*
X199698056Y-73107128D01*
X199698061Y-73107128D01*
X199704513Y-73108500D01*
X199895487Y-73108500D01*
X199901939Y-73107128D01*
X199901944Y-73107128D01*
X199996899Y-73086944D01*
X200082288Y-73068794D01*
X200103199Y-73059484D01*
X200250722Y-72993803D01*
X200250724Y-72993802D01*
X200256752Y-72991118D01*
X200302096Y-72958174D01*
X200405363Y-72883145D01*
X200411253Y-72878866D01*
X200422740Y-72866109D01*
X200437074Y-72850189D01*
X200497520Y-72812950D01*
X200530710Y-72808500D01*
X200955506Y-72808500D01*
X201006755Y-72819393D01*
X201092424Y-72857535D01*
X201117712Y-72868794D01*
X201183365Y-72882749D01*
X201298056Y-72907128D01*
X201298061Y-72907128D01*
X201304513Y-72908500D01*
X201495487Y-72908500D01*
X201501939Y-72907128D01*
X201501944Y-72907128D01*
X201616635Y-72882749D01*
X201682288Y-72868794D01*
X201706249Y-72858126D01*
X201850722Y-72793803D01*
X201850724Y-72793802D01*
X201856752Y-72791118D01*
X201873605Y-72778874D01*
X201924007Y-72742254D01*
X202011253Y-72678866D01*
X202015675Y-72673955D01*
X202134621Y-72541852D01*
X202134622Y-72541851D01*
X202139040Y-72536944D01*
X202234527Y-72371556D01*
X202293542Y-72189928D01*
X202313504Y-72000000D01*
X202295473Y-71828444D01*
X202294232Y-71816635D01*
X202294232Y-71816633D01*
X202293542Y-71810072D01*
X202234527Y-71628444D01*
X202206362Y-71579660D01*
X202175407Y-71526045D01*
X202139040Y-71463056D01*
X202118252Y-71439968D01*
X202015675Y-71326045D01*
X202015674Y-71326044D01*
X202011253Y-71321134D01*
X201856752Y-71208882D01*
X201850724Y-71206198D01*
X201850722Y-71206197D01*
X201688319Y-71133891D01*
X201688318Y-71133891D01*
X201682288Y-71131206D01*
X201563770Y-71106014D01*
X201501944Y-71092872D01*
X201501939Y-71092872D01*
X201495487Y-71091500D01*
X201304513Y-71091500D01*
X201298061Y-71092872D01*
X201298056Y-71092872D01*
X201236230Y-71106014D01*
X201117712Y-71131206D01*
X201111682Y-71133891D01*
X201111681Y-71133891D01*
X200949278Y-71206197D01*
X200949276Y-71206198D01*
X200943248Y-71208882D01*
X200788747Y-71321134D01*
X200784326Y-71326044D01*
X200784325Y-71326045D01*
X200681749Y-71439968D01*
X200660960Y-71463056D01*
X200657659Y-71468774D01*
X200629682Y-71517231D01*
X200578299Y-71566224D01*
X200508586Y-71579660D01*
X200442675Y-71553274D01*
X200426926Y-71538541D01*
X200415667Y-71526036D01*
X200415666Y-71526035D01*
X200411253Y-71521134D01*
X200256752Y-71408882D01*
X200250724Y-71406198D01*
X200250722Y-71406197D01*
X200088319Y-71333891D01*
X200088318Y-71333891D01*
X200082288Y-71331206D01*
X199988887Y-71311353D01*
X199901944Y-71292872D01*
X199901939Y-71292872D01*
X199895487Y-71291500D01*
X199704513Y-71291500D01*
X199698061Y-71292872D01*
X199698056Y-71292872D01*
X199611113Y-71311353D01*
X199517712Y-71331206D01*
X199511682Y-71333891D01*
X199511681Y-71333891D01*
X199349278Y-71406197D01*
X199349276Y-71406198D01*
X199343248Y-71408882D01*
X199188747Y-71521134D01*
X199184326Y-71526044D01*
X199184325Y-71526045D01*
X199132484Y-71583621D01*
X199060960Y-71663056D01*
X198965473Y-71828444D01*
X198906458Y-72010072D01*
X198886496Y-72200000D01*
X194840349Y-72200000D01*
X194213444Y-71573095D01*
X194179418Y-71510783D01*
X194184483Y-71439968D01*
X194227030Y-71383132D01*
X194293550Y-71358321D01*
X194302539Y-71358000D01*
X195627885Y-71358000D01*
X195643124Y-71353525D01*
X195644329Y-71352135D01*
X195646000Y-71344452D01*
X195646000Y-71339884D01*
X196154000Y-71339884D01*
X196158475Y-71355123D01*
X196159865Y-71356328D01*
X196167548Y-71357999D01*
X197594669Y-71357999D01*
X197601490Y-71357629D01*
X197652352Y-71352105D01*
X197667604Y-71348479D01*
X197788054Y-71303324D01*
X197803649Y-71294786D01*
X197905724Y-71218285D01*
X197918285Y-71205724D01*
X197994786Y-71103649D01*
X198003324Y-71088054D01*
X198048478Y-70967606D01*
X198052105Y-70952351D01*
X198057631Y-70901486D01*
X198058000Y-70894672D01*
X198058000Y-69872115D01*
X198053525Y-69856876D01*
X198052135Y-69855671D01*
X198044452Y-69854000D01*
X196172115Y-69854000D01*
X196156876Y-69858475D01*
X196155671Y-69859865D01*
X196154000Y-69867548D01*
X196154000Y-71339884D01*
X195646000Y-71339884D01*
X195646000Y-69872115D01*
X195641525Y-69856876D01*
X195640135Y-69855671D01*
X195632452Y-69854000D01*
X193760116Y-69854000D01*
X193744877Y-69858475D01*
X193743672Y-69859865D01*
X193742001Y-69867548D01*
X193742001Y-70797462D01*
X193721999Y-70865583D01*
X193668343Y-70912076D01*
X193598069Y-70922180D01*
X193533489Y-70892686D01*
X193526906Y-70886557D01*
X193383515Y-70743166D01*
X193372648Y-70730775D01*
X193358213Y-70711963D01*
X193353187Y-70705413D01*
X193321275Y-70680926D01*
X193321272Y-70680923D01*
X193226076Y-70607876D01*
X193078051Y-70546562D01*
X193069864Y-70545484D01*
X193069863Y-70545484D01*
X193058658Y-70544009D01*
X193019144Y-70538807D01*
X192959085Y-70530900D01*
X192959082Y-70530900D01*
X192959074Y-70530899D01*
X192927389Y-70526728D01*
X192919200Y-70525650D01*
X192887507Y-70529822D01*
X192871064Y-70530900D01*
X191608103Y-70530900D01*
X191539982Y-70510898D01*
X191493489Y-70457242D01*
X191483385Y-70386968D01*
X191512879Y-70322388D01*
X191519008Y-70315805D01*
X193526905Y-68307908D01*
X193589217Y-68273882D01*
X193660032Y-68278947D01*
X193716868Y-68321494D01*
X193741679Y-68388014D01*
X193742000Y-68397003D01*
X193742000Y-69327885D01*
X193746475Y-69343124D01*
X193747865Y-69344329D01*
X193755548Y-69346000D01*
X195627885Y-69346000D01*
X195643124Y-69341525D01*
X195644329Y-69340135D01*
X195646000Y-69332452D01*
X195646000Y-69327885D01*
X196154000Y-69327885D01*
X196158475Y-69343124D01*
X196159865Y-69344329D01*
X196167548Y-69346000D01*
X198039884Y-69346000D01*
X198055123Y-69341525D01*
X198056328Y-69340135D01*
X198057999Y-69332452D01*
X198057999Y-68305331D01*
X198057629Y-68298510D01*
X198052105Y-68247648D01*
X198048479Y-68232396D01*
X198003324Y-68111946D01*
X197994786Y-68096351D01*
X197918285Y-67994276D01*
X197905724Y-67981715D01*
X197803649Y-67905214D01*
X197788054Y-67896676D01*
X197667606Y-67851522D01*
X197652351Y-67847895D01*
X197601486Y-67842369D01*
X197594672Y-67842000D01*
X196172115Y-67842000D01*
X196156876Y-67846475D01*
X196155671Y-67847865D01*
X196154000Y-67855548D01*
X196154000Y-69327885D01*
X195646000Y-69327885D01*
X195646000Y-67860116D01*
X195641525Y-67844877D01*
X195640135Y-67843672D01*
X195632452Y-67842001D01*
X194297002Y-67842001D01*
X194228881Y-67821999D01*
X194182388Y-67768343D01*
X194172284Y-67698069D01*
X194201778Y-67633489D01*
X194207907Y-67626906D01*
X194639408Y-67195405D01*
X194701720Y-67161379D01*
X194728503Y-67158500D01*
X208266645Y-67158500D01*
X208334766Y-67178502D01*
G37*
%TD.AperFunction*%
%TD*%
M02*
