M48
; DRILL file {KiCad (6.0.5-0)} date Montag, 06. Juni 2022 um 17:24:23
; FORMAT={-:-/ absolute / inch / decimal}
; #@! TF.CreationDate,2022-06-06T17:24:23+02:00
; #@! TF.GenerationSoftware,Kicad,Pcbnew,(6.0.5-0)
; #@! TF.FileFunction,Plated,1,2,PTH
FMAT,2
INCH
; #@! TA.AperFunction,Plated,PTH,ComponentDrill
T1C0.0079
; #@! TA.AperFunction,Plated,PTH,ViaDrill
T2C0.0157
; #@! TA.AperFunction,Plated,PTH,ComponentDrill
T3C0.0157
; #@! TA.AperFunction,Plated,PTH,ComponentDrill
T4C0.0197
; #@! TA.AperFunction,Plated,PTH,ComponentDrill
T5C0.0906
%
G90
G05
T1
X7.3173Y-2.6004
X7.3173Y-2.6516
X7.3173Y-2.7028
X7.3685Y-2.6004
X7.3685Y-2.6516
X7.3685Y-2.7028
T2
X6.7539Y-3.5
X6.7579Y-3.3071
X6.7835Y-4.1811
X6.7874Y-2.9724
X6.7874Y-3.0374
X6.8032Y-3.6988
X6.8164Y-2.792
X6.8213Y-3.8972
X6.8327Y-3.4154
X6.8376Y-3.5138
X6.8386Y-4.0118
X6.8396Y-3.5689
X6.8642Y-3.2598
X6.872Y-3.688
X6.8972Y-4.1811
X6.9154Y-3.2677
X6.9154Y-3.7913
X6.9173Y-4.0059
X6.9596Y-3.9409
X6.9715Y-2.5098
X6.9862Y-2.5502
X7.011Y-4.1811
X7.0157Y-2.7697
X7.0281Y-3.7312
X7.0326Y-3.523
X7.0344Y-3.3681
X7.0394Y-4.0177
X7.0482Y-2.8907
X7.0573Y-3.2978
X7.0593Y-3.7552
X7.0773Y-3.1669
X7.0856Y-3.4852
X7.0965Y-3.0866
X7.0989Y-3.0359
X7.1248Y-4.1811
X7.1299Y-2.7283
X7.1457Y-2.8563
X7.1752Y-2.5433
X7.1831Y-3.0059
X7.1851Y-3.2835
X7.2008Y-2.5197
X7.2015Y-3.9611
X7.2168Y-3.4275
X7.2283Y-3.6138
X7.2386Y-4.1811
X7.2441Y-3.0138
X7.2736Y-3.8976
X7.2756Y-3.0468
X7.2787Y-3.8018
X7.2796Y-3.7624
X7.2815Y-4.0069
X7.2894Y-2.9902
X7.2979Y-3.3088
X7.3199Y-3.559
X7.3386Y-3.5975
X7.3506Y-3.3604
X7.3514Y-3.4656
X7.3563Y-3.9134
X7.3563Y-4.128
X7.3563Y-4.1811
X7.3583Y-4.0069
X7.378Y-3.1398
X7.3904Y-2.8386
X7.437Y-4.0098
X7.4402Y-3.8691
X7.4409Y-3.9173
X7.4457Y-3.2646
X7.4626Y-3.1417
X7.4675Y-3.0748
X7.4779Y-3.5705
X7.485Y-3.4089
X7.498Y-2.6988
X7.4993Y-3.7159
X7.502Y-2.5404
X7.5354Y-3.1417
X7.5384Y-3.0748
X7.5433Y-3.4173
X7.5468Y-3.5437
X7.5551Y-3.9606
X7.5587Y-2.6405
X7.5758Y-2.5797
X7.5793Y-2.8292
X7.5852Y-3.5089
X7.5965Y-3.4055
X7.6063Y-3.7776
X7.6083Y-2.7638
X7.6122Y-3.1417
X7.6142Y-2.5669
X7.6161Y-3.0748
X7.6419Y-2.5396
X7.6467Y-3.8189
X7.6722Y-3.4882
X7.6781Y-3.8711
X7.6969Y-3.0413
X7.6982Y-3.3488
X7.7165Y-3.7835
X7.749Y-2.9045
X7.749Y-4.0925
X7.7736Y-3.376
X7.7825Y-4.1211
X7.7835Y-3.1437
X7.7844Y-3.8317
X7.7916Y-3.4522
X7.8061Y-3.7018
X7.8071Y-2.9724
X7.8209Y-2.6673
X7.8289Y-2.9628
X7.83Y-3.601
X7.8311Y-3.4962
X7.8366Y-3.9232
X7.839Y-3.3989
X7.8406Y-3.2953
X7.8499Y-3.636
X7.8602Y-3.7756
X7.8661Y-2.8425
X7.8746Y-3.1681
X7.8957Y-3.4272
X7.9005Y-3.2009
X7.9065Y-3.9882
X7.9075Y-3.4916
X7.9134Y-3.7874
X7.9232Y-3.124
X7.9291Y-2.8346
X7.937Y-2.9646
X7.937Y-4.0748
X7.9646Y-2.9488
X7.9815Y-4.0756
X8.0157Y-3.2598
X8.0262Y-3.4365
X8.0315Y-3.8976
X8.0413Y-3.1732
X8.0543Y-3.5013
X8.0807Y-3.3386
X8.0866Y-3.939
X8.0965Y-3.5065
X8.0974Y-4.0177
X8.1031Y-3.4595
X8.122Y-2.6614
X8.1299Y-3.5768
X8.1339Y-3.8957
X8.1378Y-3.4213
X8.1417Y-3.939
X8.1567Y-3.6819
X8.1611Y-3.453
X8.185Y-3.1988
X8.189Y-3.3189
X8.1949Y-2.6654
X8.1949Y-2.7382
X8.1949Y-2.811
X8.1949Y-2.8839
X8.1954Y-3.6471
X8.2138Y-3.1331
X8.2382Y-3.1988
X8.2601Y-4.0276
X8.2712Y-3.8085
X8.3012Y-3.25
X8.3268Y-3.4744
X8.3307Y-3.3346
X8.3346Y-4.0226
X8.3386Y-3.8406
X8.3425Y-3.7913
X8.3445Y-3.9587
X8.3524Y-3.2697
X8.3553Y-4.0512
X8.3622Y-3.6171
X8.3994Y-3.6544
X8.4235Y-4.0628
X8.4508Y-4.124
X8.4606Y-4.0217
X8.4705Y-3.4409
X8.4724Y-3.3524
X8.4797Y-3.54
X8.4921Y-3.7638
X8.4941Y-3.7953
X8.5Y-4.1988
T3
X8.2543Y-3.352
X8.2543Y-3.415
X8.2543Y-3.4465
X8.2543Y-3.478
X8.2543Y-3.5094
X8.2543Y-3.5724
X8.2819Y-3.3677
X8.2819Y-3.3992
X8.2819Y-3.4307
X8.2819Y-3.4937
X8.2819Y-3.5252
X8.2819Y-3.5567
T5
X8.1508Y-2.5106
X8.1508Y-3.028
T4
G00X8.2661Y-3.2996
M15
G01X8.2898Y-3.2996
M16
G05
G00X8.2661Y-3.6248
M15
G01X8.2898Y-3.6248
M16
G05
G00X8.4417Y-3.2854
M15
G01X8.4693Y-3.2854
M16
G05
G00X8.4417Y-3.639
M15
G01X8.4693Y-3.639
M16
G05
T0
M30
