%TF.GenerationSoftware,KiCad,Pcbnew,(6.0.5-0)*%
%TF.CreationDate,2022-06-06T17:24:23+02:00*%
%TF.ProjectId,BlackPanda,426c6163-6b50-4616-9e64-612e6b696361,rev?*%
%TF.SameCoordinates,Original*%
%TF.FileFunction,Legend,Top*%
%TF.FilePolarity,Positive*%
%FSLAX46Y46*%
G04 Gerber Fmt 4.6, Leading zero omitted, Abs format (unit mm)*
G04 Created by KiCad (PCBNEW (6.0.5-0)) date 2022-06-06 17:24:23*
%MOMM*%
%LPD*%
G01*
G04 APERTURE LIST*
G04 Aperture macros list*
%AMRoundRect*
0 Rectangle with rounded corners*
0 $1 Rounding radius*
0 $2 $3 $4 $5 $6 $7 $8 $9 X,Y pos of 4 corners*
0 Add a 4 corners polygon primitive as box body*
4,1,4,$2,$3,$4,$5,$6,$7,$8,$9,$2,$3,0*
0 Add four circle primitives for the rounded corners*
1,1,$1+$1,$2,$3*
1,1,$1+$1,$4,$5*
1,1,$1+$1,$6,$7*
1,1,$1+$1,$8,$9*
0 Add four rect primitives between the rounded corners*
20,1,$1+$1,$2,$3,$4,$5,0*
20,1,$1+$1,$4,$5,$6,$7,0*
20,1,$1+$1,$6,$7,$8,$9,0*
20,1,$1+$1,$8,$9,$2,$3,0*%
G04 Aperture macros list end*
%ADD10C,0.075000*%
%ADD11C,0.100000*%
%ADD12C,0.087500*%
%ADD13C,0.150000*%
%ADD14C,0.050000*%
%ADD15C,0.120000*%
%ADD16C,0.127000*%
%ADD17RoundRect,0.140000X0.140000X0.170000X-0.140000X0.170000X-0.140000X-0.170000X0.140000X-0.170000X0*%
%ADD18RoundRect,0.140000X0.170000X-0.140000X0.170000X0.140000X-0.170000X0.140000X-0.170000X-0.140000X0*%
%ADD19R,0.650000X1.500000*%
%ADD20R,1.800000X1.350000*%
%ADD21R,1.000000X0.600000*%
%ADD22RoundRect,0.135000X-0.185000X0.135000X-0.185000X-0.135000X0.185000X-0.135000X0.185000X0.135000X0*%
%ADD23RoundRect,0.135000X0.185000X-0.135000X0.185000X0.135000X-0.185000X0.135000X-0.185000X-0.135000X0*%
%ADD24RoundRect,0.200000X0.200000X0.275000X-0.200000X0.275000X-0.200000X-0.275000X0.200000X-0.275000X0*%
%ADD25RoundRect,0.135000X-0.135000X-0.185000X0.135000X-0.185000X0.135000X0.185000X-0.135000X0.185000X0*%
%ADD26RoundRect,0.250000X0.250000X0.475000X-0.250000X0.475000X-0.250000X-0.475000X0.250000X-0.475000X0*%
%ADD27RoundRect,0.135000X0.135000X0.185000X-0.135000X0.185000X-0.135000X-0.185000X0.135000X-0.185000X0*%
%ADD28R,2.400000X3.100000*%
%ADD29RoundRect,0.150000X-0.737500X-0.150000X0.737500X-0.150000X0.737500X0.150000X-0.737500X0.150000X0*%
%ADD30R,0.650000X0.350000*%
%ADD31R,1.550000X2.400000*%
%ADD32R,0.450000X0.700000*%
%ADD33R,1.050000X2.200000*%
%ADD34R,1.050000X1.000000*%
%ADD35RoundRect,0.140000X-0.170000X0.140000X-0.170000X-0.140000X0.170000X-0.140000X0.170000X0.140000X0*%
%ADD36RoundRect,0.250000X0.475000X-0.250000X0.475000X0.250000X-0.475000X0.250000X-0.475000X-0.250000X0*%
%ADD37O,0.650000X0.950000*%
%ADD38C,0.650000*%
%ADD39O,1.800000X0.950000*%
%ADD40O,1.400000X0.800000*%
%ADD41R,0.800000X0.300000*%
%ADD42R,3.400000X2.400000*%
%ADD43R,0.600000X1.000000*%
%ADD44R,1.750000X0.600000*%
%ADD45R,0.914400X0.914400*%
%ADD46R,0.400000X0.650000*%
%ADD47RoundRect,0.140000X-0.140000X-0.170000X0.140000X-0.170000X0.140000X0.170000X-0.140000X0.170000X0*%
%ADD48RoundRect,0.218750X-0.256250X0.218750X-0.256250X-0.218750X0.256250X-0.218750X0.256250X0.218750X0*%
%ADD49RoundRect,0.062500X0.062500X-0.312500X0.062500X0.312500X-0.062500X0.312500X-0.062500X-0.312500X0*%
%ADD50RoundRect,0.062500X0.312500X-0.062500X0.312500X0.062500X-0.312500X0.062500X-0.312500X-0.062500X0*%
%ADD51R,1.750000X1.750000*%
%ADD52R,1.500000X0.900000*%
%ADD53RoundRect,0.225000X-0.250000X0.225000X-0.250000X-0.225000X0.250000X-0.225000X0.250000X0.225000X0*%
%ADD54R,3.000000X1.250000*%
%ADD55C,3.000000*%
%ADD56RoundRect,0.075000X-0.075000X0.700000X-0.075000X-0.700000X0.075000X-0.700000X0.075000X0.700000X0*%
%ADD57RoundRect,0.075000X-0.700000X0.075000X-0.700000X-0.075000X0.700000X-0.075000X0.700000X0.075000X0*%
%ADD58RoundRect,0.200000X-0.200000X0.700000X-0.200000X-0.700000X0.200000X-0.700000X0.200000X0.700000X0*%
%ADD59R,0.450000X0.600000*%
%ADD60R,0.350000X0.650000*%
%ADD61R,2.400000X1.550000*%
%ADD62RoundRect,0.250000X-0.475000X0.250000X-0.475000X-0.250000X0.475000X-0.250000X0.475000X0.250000X0*%
%ADD63R,0.558800X0.406400*%
%ADD64R,0.508000X0.406400*%
%ADD65R,1.400000X1.200000*%
%ADD66R,2.500000X1.800000*%
%ADD67R,1.100000X1.100000*%
%ADD68R,3.500000X2.400000*%
G04 APERTURE END LIST*
D10*
X193292857Y-81175714D02*
X193150000Y-81175714D01*
X193135714Y-81318571D01*
X193150000Y-81304285D01*
X193178571Y-81290000D01*
X193250000Y-81290000D01*
X193278571Y-81304285D01*
X193292857Y-81318571D01*
X193307142Y-81347142D01*
X193307142Y-81418571D01*
X193292857Y-81447142D01*
X193278571Y-81461428D01*
X193250000Y-81475714D01*
X193178571Y-81475714D01*
X193150000Y-81461428D01*
X193135714Y-81447142D01*
X193392857Y-81175714D02*
X193492857Y-81475714D01*
X193592857Y-81175714D01*
X204448571Y-81874285D02*
X204462857Y-81831428D01*
X204477142Y-81817142D01*
X204505714Y-81802857D01*
X204548571Y-81802857D01*
X204577142Y-81817142D01*
X204591428Y-81831428D01*
X204605714Y-81860000D01*
X204605714Y-81974285D01*
X204305714Y-81974285D01*
X204305714Y-81874285D01*
X204320000Y-81845714D01*
X204334285Y-81831428D01*
X204362857Y-81817142D01*
X204391428Y-81817142D01*
X204420000Y-81831428D01*
X204434285Y-81845714D01*
X204448571Y-81874285D01*
X204448571Y-81974285D01*
X204520000Y-81688571D02*
X204520000Y-81545714D01*
X204605714Y-81717142D02*
X204305714Y-81617142D01*
X204605714Y-81517142D01*
X204591428Y-81431428D02*
X204605714Y-81388571D01*
X204605714Y-81317142D01*
X204591428Y-81288571D01*
X204577142Y-81274285D01*
X204548571Y-81260000D01*
X204520000Y-81260000D01*
X204491428Y-81274285D01*
X204477142Y-81288571D01*
X204462857Y-81317142D01*
X204448571Y-81374285D01*
X204434285Y-81402857D01*
X204420000Y-81417142D01*
X204391428Y-81431428D01*
X204362857Y-81431428D01*
X204334285Y-81417142D01*
X204320000Y-81402857D01*
X204305714Y-81374285D01*
X204305714Y-81302857D01*
X204320000Y-81260000D01*
X204405714Y-81002857D02*
X204605714Y-81002857D01*
X204291428Y-81074285D02*
X204505714Y-81145714D01*
X204505714Y-80960000D01*
X204305714Y-80788571D02*
X204305714Y-80760000D01*
X204320000Y-80731428D01*
X204334285Y-80717142D01*
X204362857Y-80702857D01*
X204420000Y-80688571D01*
X204491428Y-80688571D01*
X204548571Y-80702857D01*
X204577142Y-80717142D01*
X204591428Y-80731428D01*
X204605714Y-80760000D01*
X204605714Y-80788571D01*
X204591428Y-80817142D01*
X204577142Y-80831428D01*
X204548571Y-80845714D01*
X204491428Y-80860000D01*
X204420000Y-80860000D01*
X204362857Y-80845714D01*
X204334285Y-80831428D01*
X204320000Y-80817142D01*
X204305714Y-80788571D01*
X204305714Y-80588571D02*
X204605714Y-80517142D01*
X204391428Y-80460000D01*
X204605714Y-80402857D01*
X204305714Y-80331428D01*
X204591428Y-80231428D02*
X204605714Y-80188571D01*
X204605714Y-80117142D01*
X204591428Y-80088571D01*
X204577142Y-80074285D01*
X204548571Y-80060000D01*
X204520000Y-80060000D01*
X204491428Y-80074285D01*
X204477142Y-80088571D01*
X204462857Y-80117142D01*
X204448571Y-80174285D01*
X204434285Y-80202857D01*
X204420000Y-80217142D01*
X204391428Y-80231428D01*
X204362857Y-80231428D01*
X204334285Y-80217142D01*
X204320000Y-80202857D01*
X204305714Y-80174285D01*
X204305714Y-80102857D01*
X204320000Y-80060000D01*
X204405714Y-79574285D02*
X204605714Y-79574285D01*
X204291428Y-79645714D02*
X204505714Y-79717142D01*
X204505714Y-79531428D01*
X204305714Y-79445714D02*
X204305714Y-79260000D01*
X204420000Y-79360000D01*
X204420000Y-79317142D01*
X204434285Y-79288571D01*
X204448571Y-79274285D01*
X204477142Y-79260000D01*
X204548571Y-79260000D01*
X204577142Y-79274285D01*
X204591428Y-79288571D01*
X204605714Y-79317142D01*
X204605714Y-79402857D01*
X204591428Y-79431428D01*
X204577142Y-79445714D01*
D11*
X177245238Y-80030952D02*
X177473809Y-80030952D01*
X177359523Y-80430952D02*
X177359523Y-80030952D01*
X177569047Y-80030952D02*
X177835714Y-80430952D01*
X177835714Y-80030952D02*
X177569047Y-80430952D01*
X177495238Y-81650000D02*
X177457142Y-81630952D01*
X177400000Y-81630952D01*
X177342857Y-81650000D01*
X177304761Y-81688095D01*
X177285714Y-81726190D01*
X177266666Y-81802380D01*
X177266666Y-81859523D01*
X177285714Y-81935714D01*
X177304761Y-81973809D01*
X177342857Y-82011904D01*
X177400000Y-82030952D01*
X177438095Y-82030952D01*
X177495238Y-82011904D01*
X177514285Y-81992857D01*
X177514285Y-81859523D01*
X177438095Y-81859523D01*
X177685714Y-82030952D02*
X177685714Y-81630952D01*
X177914285Y-82030952D01*
X177914285Y-81630952D01*
X178104761Y-82030952D02*
X178104761Y-81630952D01*
X178200000Y-81630952D01*
X178257142Y-81650000D01*
X178295238Y-81688095D01*
X178314285Y-81726190D01*
X178333333Y-81802380D01*
X178333333Y-81859523D01*
X178314285Y-81935714D01*
X178295238Y-81973809D01*
X178257142Y-82011904D01*
X178200000Y-82030952D01*
X178104761Y-82030952D01*
D10*
X193057142Y-78635714D02*
X193242857Y-78635714D01*
X193142857Y-78750000D01*
X193185714Y-78750000D01*
X193214285Y-78764285D01*
X193228571Y-78778571D01*
X193242857Y-78807142D01*
X193242857Y-78878571D01*
X193228571Y-78907142D01*
X193214285Y-78921428D01*
X193185714Y-78935714D01*
X193100000Y-78935714D01*
X193071428Y-78921428D01*
X193057142Y-78907142D01*
X193371428Y-78907142D02*
X193385714Y-78921428D01*
X193371428Y-78935714D01*
X193357142Y-78921428D01*
X193371428Y-78907142D01*
X193371428Y-78935714D01*
X193485714Y-78635714D02*
X193671428Y-78635714D01*
X193571428Y-78750000D01*
X193614285Y-78750000D01*
X193642857Y-78764285D01*
X193657142Y-78778571D01*
X193671428Y-78807142D01*
X193671428Y-78878571D01*
X193657142Y-78907142D01*
X193642857Y-78921428D01*
X193614285Y-78935714D01*
X193528571Y-78935714D01*
X193500000Y-78921428D01*
X193485714Y-78907142D01*
X193757142Y-78635714D02*
X193857142Y-78935714D01*
X193957142Y-78635714D01*
X178699523Y-96885714D02*
X179080476Y-96885714D01*
X178890000Y-97076190D02*
X178890000Y-96695238D01*
D11*
X172259523Y-79030952D02*
X172507142Y-79030952D01*
X172373809Y-79183333D01*
X172430952Y-79183333D01*
X172469047Y-79202380D01*
X172488095Y-79221428D01*
X172507142Y-79259523D01*
X172507142Y-79354761D01*
X172488095Y-79392857D01*
X172469047Y-79411904D01*
X172430952Y-79430952D01*
X172316666Y-79430952D01*
X172278571Y-79411904D01*
X172259523Y-79392857D01*
X172678571Y-79392857D02*
X172697619Y-79411904D01*
X172678571Y-79430952D01*
X172659523Y-79411904D01*
X172678571Y-79392857D01*
X172678571Y-79430952D01*
X172830952Y-79030952D02*
X173078571Y-79030952D01*
X172945238Y-79183333D01*
X173002380Y-79183333D01*
X173040476Y-79202380D01*
X173059523Y-79221428D01*
X173078571Y-79259523D01*
X173078571Y-79354761D01*
X173059523Y-79392857D01*
X173040476Y-79411904D01*
X173002380Y-79430952D01*
X172888095Y-79430952D01*
X172850000Y-79411904D01*
X172830952Y-79392857D01*
X173192857Y-79030952D02*
X173326190Y-79430952D01*
X173459523Y-79030952D01*
X173083333Y-81430952D02*
X172950000Y-81240476D01*
X172854761Y-81430952D02*
X172854761Y-81030952D01*
X173007142Y-81030952D01*
X173045238Y-81050000D01*
X173064285Y-81069047D01*
X173083333Y-81107142D01*
X173083333Y-81164285D01*
X173064285Y-81202380D01*
X173045238Y-81221428D01*
X173007142Y-81240476D01*
X172854761Y-81240476D01*
X173216666Y-81030952D02*
X173483333Y-81430952D01*
X173483333Y-81030952D02*
X173216666Y-81430952D01*
D12*
%TO.C,C8*%
X197561666Y-81735000D02*
X197545000Y-81751666D01*
X197495000Y-81768333D01*
X197461666Y-81768333D01*
X197411666Y-81751666D01*
X197378333Y-81718333D01*
X197361666Y-81685000D01*
X197345000Y-81618333D01*
X197345000Y-81568333D01*
X197361666Y-81501666D01*
X197378333Y-81468333D01*
X197411666Y-81435000D01*
X197461666Y-81418333D01*
X197495000Y-81418333D01*
X197545000Y-81435000D01*
X197561666Y-81451666D01*
X197761666Y-81568333D02*
X197728333Y-81551666D01*
X197711666Y-81535000D01*
X197695000Y-81501666D01*
X197695000Y-81485000D01*
X197711666Y-81451666D01*
X197728333Y-81435000D01*
X197761666Y-81418333D01*
X197828333Y-81418333D01*
X197861666Y-81435000D01*
X197878333Y-81451666D01*
X197895000Y-81485000D01*
X197895000Y-81501666D01*
X197878333Y-81535000D01*
X197861666Y-81551666D01*
X197828333Y-81568333D01*
X197761666Y-81568333D01*
X197728333Y-81585000D01*
X197711666Y-81601666D01*
X197695000Y-81635000D01*
X197695000Y-81701666D01*
X197711666Y-81735000D01*
X197728333Y-81751666D01*
X197761666Y-81768333D01*
X197828333Y-81768333D01*
X197861666Y-81751666D01*
X197878333Y-81735000D01*
X197895000Y-81701666D01*
X197895000Y-81635000D01*
X197878333Y-81601666D01*
X197861666Y-81585000D01*
X197828333Y-81568333D01*
%TO.C,C14*%
X180125000Y-79975000D02*
X180141666Y-79991666D01*
X180158333Y-80041666D01*
X180158333Y-80075000D01*
X180141666Y-80125000D01*
X180108333Y-80158333D01*
X180075000Y-80175000D01*
X180008333Y-80191666D01*
X179958333Y-80191666D01*
X179891666Y-80175000D01*
X179858333Y-80158333D01*
X179825000Y-80125000D01*
X179808333Y-80075000D01*
X179808333Y-80041666D01*
X179825000Y-79991666D01*
X179841666Y-79975000D01*
X180158333Y-79641666D02*
X180158333Y-79841666D01*
X180158333Y-79741666D02*
X179808333Y-79741666D01*
X179858333Y-79775000D01*
X179891666Y-79808333D01*
X179908333Y-79841666D01*
X179925000Y-79341666D02*
X180158333Y-79341666D01*
X179791666Y-79425000D02*
X180041666Y-79508333D01*
X180041666Y-79291666D01*
%TO.C,U12*%
X172833333Y-76533333D02*
X173116666Y-76533333D01*
X173150000Y-76516666D01*
X173166666Y-76500000D01*
X173183333Y-76466666D01*
X173183333Y-76400000D01*
X173166666Y-76366666D01*
X173150000Y-76350000D01*
X173116666Y-76333333D01*
X172833333Y-76333333D01*
X173183333Y-75983333D02*
X173183333Y-76183333D01*
X173183333Y-76083333D02*
X172833333Y-76083333D01*
X172883333Y-76116666D01*
X172916666Y-76150000D01*
X172933333Y-76183333D01*
X172866666Y-75850000D02*
X172850000Y-75833333D01*
X172833333Y-75800000D01*
X172833333Y-75716666D01*
X172850000Y-75683333D01*
X172866666Y-75666666D01*
X172900000Y-75650000D01*
X172933333Y-75650000D01*
X172983333Y-75666666D01*
X173183333Y-75866666D01*
X173183333Y-75650000D01*
%TO.C,D7*%
X206181666Y-86588333D02*
X206181666Y-86238333D01*
X206265000Y-86238333D01*
X206315000Y-86255000D01*
X206348333Y-86288333D01*
X206365000Y-86321666D01*
X206381666Y-86388333D01*
X206381666Y-86438333D01*
X206365000Y-86505000D01*
X206348333Y-86538333D01*
X206315000Y-86571666D01*
X206265000Y-86588333D01*
X206181666Y-86588333D01*
X206498333Y-86238333D02*
X206731666Y-86238333D01*
X206581666Y-86588333D01*
%TO.C,R23*%
X173983333Y-100050000D02*
X173816666Y-100166666D01*
X173983333Y-100250000D02*
X173633333Y-100250000D01*
X173633333Y-100116666D01*
X173650000Y-100083333D01*
X173666666Y-100066666D01*
X173700000Y-100050000D01*
X173750000Y-100050000D01*
X173783333Y-100066666D01*
X173800000Y-100083333D01*
X173816666Y-100116666D01*
X173816666Y-100250000D01*
X173666666Y-99916666D02*
X173650000Y-99900000D01*
X173633333Y-99866666D01*
X173633333Y-99783333D01*
X173650000Y-99750000D01*
X173666666Y-99733333D01*
X173700000Y-99716666D01*
X173733333Y-99716666D01*
X173783333Y-99733333D01*
X173983333Y-99933333D01*
X173983333Y-99716666D01*
X173633333Y-99600000D02*
X173633333Y-99383333D01*
X173766666Y-99500000D01*
X173766666Y-99450000D01*
X173783333Y-99416666D01*
X173800000Y-99400000D01*
X173833333Y-99383333D01*
X173916666Y-99383333D01*
X173950000Y-99400000D01*
X173966666Y-99416666D01*
X173983333Y-99450000D01*
X173983333Y-99550000D01*
X173966666Y-99583333D01*
X173950000Y-99600000D01*
%TO.C,R24*%
X178408333Y-100525000D02*
X178241666Y-100641666D01*
X178408333Y-100725000D02*
X178058333Y-100725000D01*
X178058333Y-100591666D01*
X178075000Y-100558333D01*
X178091666Y-100541666D01*
X178125000Y-100525000D01*
X178175000Y-100525000D01*
X178208333Y-100541666D01*
X178225000Y-100558333D01*
X178241666Y-100591666D01*
X178241666Y-100725000D01*
X178091666Y-100391666D02*
X178075000Y-100375000D01*
X178058333Y-100341666D01*
X178058333Y-100258333D01*
X178075000Y-100225000D01*
X178091666Y-100208333D01*
X178125000Y-100191666D01*
X178158333Y-100191666D01*
X178208333Y-100208333D01*
X178408333Y-100408333D01*
X178408333Y-100191666D01*
X178175000Y-99891666D02*
X178408333Y-99891666D01*
X178041666Y-99975000D02*
X178291666Y-100058333D01*
X178291666Y-99841666D01*
%TO.C,R5*%
X183058333Y-67508333D02*
X182891666Y-67625000D01*
X183058333Y-67708333D02*
X182708333Y-67708333D01*
X182708333Y-67575000D01*
X182725000Y-67541666D01*
X182741666Y-67525000D01*
X182775000Y-67508333D01*
X182825000Y-67508333D01*
X182858333Y-67525000D01*
X182875000Y-67541666D01*
X182891666Y-67575000D01*
X182891666Y-67708333D01*
X182708333Y-67191666D02*
X182708333Y-67358333D01*
X182875000Y-67375000D01*
X182858333Y-67358333D01*
X182841666Y-67325000D01*
X182841666Y-67241666D01*
X182858333Y-67208333D01*
X182875000Y-67191666D01*
X182908333Y-67175000D01*
X182991666Y-67175000D01*
X183025000Y-67191666D01*
X183041666Y-67208333D01*
X183058333Y-67241666D01*
X183058333Y-67325000D01*
X183041666Y-67358333D01*
X183025000Y-67375000D01*
D10*
%TO.C,R26*%
X195948333Y-78555000D02*
X195781666Y-78671666D01*
X195948333Y-78755000D02*
X195598333Y-78755000D01*
X195598333Y-78621666D01*
X195615000Y-78588333D01*
X195631666Y-78571666D01*
X195665000Y-78555000D01*
X195715000Y-78555000D01*
X195748333Y-78571666D01*
X195765000Y-78588333D01*
X195781666Y-78621666D01*
X195781666Y-78755000D01*
X195631666Y-78421666D02*
X195615000Y-78405000D01*
X195598333Y-78371666D01*
X195598333Y-78288333D01*
X195615000Y-78255000D01*
X195631666Y-78238333D01*
X195665000Y-78221666D01*
X195698333Y-78221666D01*
X195748333Y-78238333D01*
X195948333Y-78438333D01*
X195948333Y-78221666D01*
X195598333Y-77921666D02*
X195598333Y-77988333D01*
X195615000Y-78021666D01*
X195631666Y-78038333D01*
X195681666Y-78071666D01*
X195748333Y-78088333D01*
X195881666Y-78088333D01*
X195915000Y-78071666D01*
X195931666Y-78055000D01*
X195948333Y-78021666D01*
X195948333Y-77955000D01*
X195931666Y-77921666D01*
X195915000Y-77905000D01*
X195881666Y-77888333D01*
X195798333Y-77888333D01*
X195765000Y-77905000D01*
X195748333Y-77921666D01*
X195731666Y-77955000D01*
X195731666Y-78021666D01*
X195748333Y-78055000D01*
X195765000Y-78071666D01*
X195798333Y-78088333D01*
%TO.C,R4*%
X185661666Y-71928333D02*
X185545000Y-71761666D01*
X185461666Y-71928333D02*
X185461666Y-71578333D01*
X185595000Y-71578333D01*
X185628333Y-71595000D01*
X185645000Y-71611666D01*
X185661666Y-71645000D01*
X185661666Y-71695000D01*
X185645000Y-71728333D01*
X185628333Y-71745000D01*
X185595000Y-71761666D01*
X185461666Y-71761666D01*
X185961666Y-71695000D02*
X185961666Y-71928333D01*
X185878333Y-71561666D02*
X185795000Y-71811666D01*
X186011666Y-71811666D01*
D12*
%TO.C,R11*%
X188333333Y-72475000D02*
X188166666Y-72591666D01*
X188333333Y-72675000D02*
X187983333Y-72675000D01*
X187983333Y-72541666D01*
X188000000Y-72508333D01*
X188016666Y-72491666D01*
X188050000Y-72475000D01*
X188100000Y-72475000D01*
X188133333Y-72491666D01*
X188150000Y-72508333D01*
X188166666Y-72541666D01*
X188166666Y-72675000D01*
X188333333Y-72141666D02*
X188333333Y-72341666D01*
X188333333Y-72241666D02*
X187983333Y-72241666D01*
X188033333Y-72275000D01*
X188066666Y-72308333D01*
X188083333Y-72341666D01*
X188333333Y-71808333D02*
X188333333Y-72008333D01*
X188333333Y-71908333D02*
X187983333Y-71908333D01*
X188033333Y-71941666D01*
X188066666Y-71975000D01*
X188083333Y-72008333D01*
%TO.C,C7*%
X181525000Y-66458333D02*
X181541666Y-66475000D01*
X181558333Y-66525000D01*
X181558333Y-66558333D01*
X181541666Y-66608333D01*
X181508333Y-66641666D01*
X181475000Y-66658333D01*
X181408333Y-66675000D01*
X181358333Y-66675000D01*
X181291666Y-66658333D01*
X181258333Y-66641666D01*
X181225000Y-66608333D01*
X181208333Y-66558333D01*
X181208333Y-66525000D01*
X181225000Y-66475000D01*
X181241666Y-66458333D01*
X181208333Y-66341666D02*
X181208333Y-66108333D01*
X181558333Y-66258333D01*
D10*
%TO.C,R2*%
X180908333Y-78158333D02*
X180741666Y-78275000D01*
X180908333Y-78358333D02*
X180558333Y-78358333D01*
X180558333Y-78225000D01*
X180575000Y-78191666D01*
X180591666Y-78175000D01*
X180625000Y-78158333D01*
X180675000Y-78158333D01*
X180708333Y-78175000D01*
X180725000Y-78191666D01*
X180741666Y-78225000D01*
X180741666Y-78358333D01*
X180591666Y-78025000D02*
X180575000Y-78008333D01*
X180558333Y-77975000D01*
X180558333Y-77891666D01*
X180575000Y-77858333D01*
X180591666Y-77841666D01*
X180625000Y-77825000D01*
X180658333Y-77825000D01*
X180708333Y-77841666D01*
X180908333Y-78041666D01*
X180908333Y-77825000D01*
D12*
%TO.C,U5*%
X183015833Y-64313333D02*
X183015833Y-64596666D01*
X183032500Y-64630000D01*
X183049166Y-64646666D01*
X183082500Y-64663333D01*
X183149166Y-64663333D01*
X183182500Y-64646666D01*
X183199166Y-64630000D01*
X183215833Y-64596666D01*
X183215833Y-64313333D01*
X183549166Y-64313333D02*
X183382500Y-64313333D01*
X183365833Y-64480000D01*
X183382500Y-64463333D01*
X183415833Y-64446666D01*
X183499166Y-64446666D01*
X183532500Y-64463333D01*
X183549166Y-64480000D01*
X183565833Y-64513333D01*
X183565833Y-64596666D01*
X183549166Y-64630000D01*
X183532500Y-64646666D01*
X183499166Y-64663333D01*
X183415833Y-64663333D01*
X183382500Y-64646666D01*
X183365833Y-64630000D01*
%TO.C,C25*%
X174965000Y-89705000D02*
X174948333Y-89721666D01*
X174898333Y-89738333D01*
X174865000Y-89738333D01*
X174815000Y-89721666D01*
X174781666Y-89688333D01*
X174765000Y-89655000D01*
X174748333Y-89588333D01*
X174748333Y-89538333D01*
X174765000Y-89471666D01*
X174781666Y-89438333D01*
X174815000Y-89405000D01*
X174865000Y-89388333D01*
X174898333Y-89388333D01*
X174948333Y-89405000D01*
X174965000Y-89421666D01*
X175098333Y-89421666D02*
X175115000Y-89405000D01*
X175148333Y-89388333D01*
X175231666Y-89388333D01*
X175265000Y-89405000D01*
X175281666Y-89421666D01*
X175298333Y-89455000D01*
X175298333Y-89488333D01*
X175281666Y-89538333D01*
X175081666Y-89738333D01*
X175298333Y-89738333D01*
X175615000Y-89388333D02*
X175448333Y-89388333D01*
X175431666Y-89555000D01*
X175448333Y-89538333D01*
X175481666Y-89521666D01*
X175565000Y-89521666D01*
X175598333Y-89538333D01*
X175615000Y-89555000D01*
X175631666Y-89588333D01*
X175631666Y-89671666D01*
X175615000Y-89705000D01*
X175598333Y-89721666D01*
X175565000Y-89738333D01*
X175481666Y-89738333D01*
X175448333Y-89721666D01*
X175431666Y-89705000D01*
%TO.C,R16*%
X174325000Y-85508333D02*
X174208333Y-85341666D01*
X174125000Y-85508333D02*
X174125000Y-85158333D01*
X174258333Y-85158333D01*
X174291666Y-85175000D01*
X174308333Y-85191666D01*
X174325000Y-85225000D01*
X174325000Y-85275000D01*
X174308333Y-85308333D01*
X174291666Y-85325000D01*
X174258333Y-85341666D01*
X174125000Y-85341666D01*
X174658333Y-85508333D02*
X174458333Y-85508333D01*
X174558333Y-85508333D02*
X174558333Y-85158333D01*
X174525000Y-85208333D01*
X174491666Y-85241666D01*
X174458333Y-85258333D01*
X174958333Y-85158333D02*
X174891666Y-85158333D01*
X174858333Y-85175000D01*
X174841666Y-85191666D01*
X174808333Y-85241666D01*
X174791666Y-85308333D01*
X174791666Y-85441666D01*
X174808333Y-85475000D01*
X174825000Y-85491666D01*
X174858333Y-85508333D01*
X174925000Y-85508333D01*
X174958333Y-85491666D01*
X174975000Y-85475000D01*
X174991666Y-85441666D01*
X174991666Y-85358333D01*
X174975000Y-85325000D01*
X174958333Y-85308333D01*
X174925000Y-85291666D01*
X174858333Y-85291666D01*
X174825000Y-85308333D01*
X174808333Y-85325000D01*
X174791666Y-85358333D01*
%TO.C,C28*%
X216425000Y-99425000D02*
X216441666Y-99441666D01*
X216458333Y-99491666D01*
X216458333Y-99525000D01*
X216441666Y-99575000D01*
X216408333Y-99608333D01*
X216375000Y-99625000D01*
X216308333Y-99641666D01*
X216258333Y-99641666D01*
X216191666Y-99625000D01*
X216158333Y-99608333D01*
X216125000Y-99575000D01*
X216108333Y-99525000D01*
X216108333Y-99491666D01*
X216125000Y-99441666D01*
X216141666Y-99425000D01*
X216141666Y-99291666D02*
X216125000Y-99275000D01*
X216108333Y-99241666D01*
X216108333Y-99158333D01*
X216125000Y-99125000D01*
X216141666Y-99108333D01*
X216175000Y-99091666D01*
X216208333Y-99091666D01*
X216258333Y-99108333D01*
X216458333Y-99308333D01*
X216458333Y-99091666D01*
X216258333Y-98891666D02*
X216241666Y-98925000D01*
X216225000Y-98941666D01*
X216191666Y-98958333D01*
X216175000Y-98958333D01*
X216141666Y-98941666D01*
X216125000Y-98925000D01*
X216108333Y-98891666D01*
X216108333Y-98825000D01*
X216125000Y-98791666D01*
X216141666Y-98775000D01*
X216175000Y-98758333D01*
X216191666Y-98758333D01*
X216225000Y-98775000D01*
X216241666Y-98791666D01*
X216258333Y-98825000D01*
X216258333Y-98891666D01*
X216275000Y-98925000D01*
X216291666Y-98941666D01*
X216325000Y-98958333D01*
X216391666Y-98958333D01*
X216425000Y-98941666D01*
X216441666Y-98925000D01*
X216458333Y-98891666D01*
X216458333Y-98825000D01*
X216441666Y-98791666D01*
X216425000Y-98775000D01*
X216391666Y-98758333D01*
X216325000Y-98758333D01*
X216291666Y-98775000D01*
X216275000Y-98791666D01*
X216258333Y-98825000D01*
%TO.C,U9*%
X202453333Y-82978333D02*
X202453333Y-83261666D01*
X202470000Y-83295000D01*
X202486666Y-83311666D01*
X202520000Y-83328333D01*
X202586666Y-83328333D01*
X202620000Y-83311666D01*
X202636666Y-83295000D01*
X202653333Y-83261666D01*
X202653333Y-82978333D01*
X202836666Y-83328333D02*
X202903333Y-83328333D01*
X202936666Y-83311666D01*
X202953333Y-83295000D01*
X202986666Y-83245000D01*
X203003333Y-83178333D01*
X203003333Y-83045000D01*
X202986666Y-83011666D01*
X202970000Y-82995000D01*
X202936666Y-82978333D01*
X202870000Y-82978333D01*
X202836666Y-82995000D01*
X202820000Y-83011666D01*
X202803333Y-83045000D01*
X202803333Y-83128333D01*
X202820000Y-83161666D01*
X202836666Y-83178333D01*
X202870000Y-83195000D01*
X202936666Y-83195000D01*
X202970000Y-83178333D01*
X202986666Y-83161666D01*
X203003333Y-83128333D01*
%TO.C,Q3*%
X201341666Y-80033333D02*
X201325000Y-80066666D01*
X201291666Y-80100000D01*
X201241666Y-80150000D01*
X201225000Y-80183333D01*
X201225000Y-80216666D01*
X201308333Y-80200000D02*
X201291666Y-80233333D01*
X201258333Y-80266666D01*
X201191666Y-80283333D01*
X201075000Y-80283333D01*
X201008333Y-80266666D01*
X200975000Y-80233333D01*
X200958333Y-80200000D01*
X200958333Y-80133333D01*
X200975000Y-80100000D01*
X201008333Y-80066666D01*
X201075000Y-80050000D01*
X201191666Y-80050000D01*
X201258333Y-80066666D01*
X201291666Y-80100000D01*
X201308333Y-80133333D01*
X201308333Y-80200000D01*
X200958333Y-79933333D02*
X200958333Y-79716666D01*
X201091666Y-79833333D01*
X201091666Y-79783333D01*
X201108333Y-79750000D01*
X201125000Y-79733333D01*
X201158333Y-79716666D01*
X201241666Y-79716666D01*
X201275000Y-79733333D01*
X201291666Y-79750000D01*
X201308333Y-79783333D01*
X201308333Y-79883333D01*
X201291666Y-79916666D01*
X201275000Y-79933333D01*
%TO.C,ANT1*%
X212533333Y-104257633D02*
X212700000Y-104257633D01*
X212500000Y-104357633D02*
X212616666Y-104007633D01*
X212733333Y-104357633D01*
X212850000Y-104357633D02*
X212850000Y-104007633D01*
X213050000Y-104357633D01*
X213050000Y-104007633D01*
X213166666Y-104007633D02*
X213366666Y-104007633D01*
X213266666Y-104357633D02*
X213266666Y-104007633D01*
X213666666Y-104357633D02*
X213466666Y-104357633D01*
X213566666Y-104357633D02*
X213566666Y-104007633D01*
X213533333Y-104057633D01*
X213500000Y-104090966D01*
X213466666Y-104107633D01*
%TO.C,R19*%
X183958333Y-95455000D02*
X183791666Y-95571666D01*
X183958333Y-95655000D02*
X183608333Y-95655000D01*
X183608333Y-95521666D01*
X183625000Y-95488333D01*
X183641666Y-95471666D01*
X183675000Y-95455000D01*
X183725000Y-95455000D01*
X183758333Y-95471666D01*
X183775000Y-95488333D01*
X183791666Y-95521666D01*
X183791666Y-95655000D01*
X183958333Y-95121666D02*
X183958333Y-95321666D01*
X183958333Y-95221666D02*
X183608333Y-95221666D01*
X183658333Y-95255000D01*
X183691666Y-95288333D01*
X183708333Y-95321666D01*
X183958333Y-94955000D02*
X183958333Y-94888333D01*
X183941666Y-94855000D01*
X183925000Y-94838333D01*
X183875000Y-94805000D01*
X183808333Y-94788333D01*
X183675000Y-94788333D01*
X183641666Y-94805000D01*
X183625000Y-94821666D01*
X183608333Y-94855000D01*
X183608333Y-94921666D01*
X183625000Y-94955000D01*
X183641666Y-94971666D01*
X183675000Y-94988333D01*
X183758333Y-94988333D01*
X183791666Y-94971666D01*
X183808333Y-94955000D01*
X183825000Y-94921666D01*
X183825000Y-94855000D01*
X183808333Y-94821666D01*
X183791666Y-94805000D01*
X183758333Y-94788333D01*
%TO.C,C23*%
X188625000Y-78325000D02*
X188641666Y-78341666D01*
X188658333Y-78391666D01*
X188658333Y-78425000D01*
X188641666Y-78475000D01*
X188608333Y-78508333D01*
X188575000Y-78525000D01*
X188508333Y-78541666D01*
X188458333Y-78541666D01*
X188391666Y-78525000D01*
X188358333Y-78508333D01*
X188325000Y-78475000D01*
X188308333Y-78425000D01*
X188308333Y-78391666D01*
X188325000Y-78341666D01*
X188341666Y-78325000D01*
X188341666Y-78191666D02*
X188325000Y-78175000D01*
X188308333Y-78141666D01*
X188308333Y-78058333D01*
X188325000Y-78025000D01*
X188341666Y-78008333D01*
X188375000Y-77991666D01*
X188408333Y-77991666D01*
X188458333Y-78008333D01*
X188658333Y-78208333D01*
X188658333Y-77991666D01*
X188308333Y-77875000D02*
X188308333Y-77658333D01*
X188441666Y-77775000D01*
X188441666Y-77725000D01*
X188458333Y-77691666D01*
X188475000Y-77675000D01*
X188508333Y-77658333D01*
X188591666Y-77658333D01*
X188625000Y-77675000D01*
X188641666Y-77691666D01*
X188658333Y-77725000D01*
X188658333Y-77825000D01*
X188641666Y-77858333D01*
X188625000Y-77875000D01*
%TO.C,R7*%
X182188333Y-71258333D02*
X182021666Y-71375000D01*
X182188333Y-71458333D02*
X181838333Y-71458333D01*
X181838333Y-71325000D01*
X181855000Y-71291666D01*
X181871666Y-71275000D01*
X181905000Y-71258333D01*
X181955000Y-71258333D01*
X181988333Y-71275000D01*
X182005000Y-71291666D01*
X182021666Y-71325000D01*
X182021666Y-71458333D01*
X181838333Y-71141666D02*
X181838333Y-70908333D01*
X182188333Y-71058333D01*
%TO.C,C12*%
X181475000Y-68650000D02*
X181491666Y-68666666D01*
X181508333Y-68716666D01*
X181508333Y-68750000D01*
X181491666Y-68800000D01*
X181458333Y-68833333D01*
X181425000Y-68850000D01*
X181358333Y-68866666D01*
X181308333Y-68866666D01*
X181241666Y-68850000D01*
X181208333Y-68833333D01*
X181175000Y-68800000D01*
X181158333Y-68750000D01*
X181158333Y-68716666D01*
X181175000Y-68666666D01*
X181191666Y-68650000D01*
X181508333Y-68316666D02*
X181508333Y-68516666D01*
X181508333Y-68416666D02*
X181158333Y-68416666D01*
X181208333Y-68450000D01*
X181241666Y-68483333D01*
X181258333Y-68516666D01*
X181191666Y-68183333D02*
X181175000Y-68166666D01*
X181158333Y-68133333D01*
X181158333Y-68050000D01*
X181175000Y-68016666D01*
X181191666Y-68000000D01*
X181225000Y-67983333D01*
X181258333Y-67983333D01*
X181308333Y-68000000D01*
X181508333Y-68200000D01*
X181508333Y-67983333D01*
%TO.C,C27*%
X202255000Y-88165000D02*
X202238333Y-88181666D01*
X202188333Y-88198333D01*
X202155000Y-88198333D01*
X202105000Y-88181666D01*
X202071666Y-88148333D01*
X202055000Y-88115000D01*
X202038333Y-88048333D01*
X202038333Y-87998333D01*
X202055000Y-87931666D01*
X202071666Y-87898333D01*
X202105000Y-87865000D01*
X202155000Y-87848333D01*
X202188333Y-87848333D01*
X202238333Y-87865000D01*
X202255000Y-87881666D01*
X202388333Y-87881666D02*
X202405000Y-87865000D01*
X202438333Y-87848333D01*
X202521666Y-87848333D01*
X202555000Y-87865000D01*
X202571666Y-87881666D01*
X202588333Y-87915000D01*
X202588333Y-87948333D01*
X202571666Y-87998333D01*
X202371666Y-88198333D01*
X202588333Y-88198333D01*
X202705000Y-87848333D02*
X202938333Y-87848333D01*
X202788333Y-88198333D01*
%TO.C,C11*%
X191075000Y-83845000D02*
X191091666Y-83861666D01*
X191108333Y-83911666D01*
X191108333Y-83945000D01*
X191091666Y-83995000D01*
X191058333Y-84028333D01*
X191025000Y-84045000D01*
X190958333Y-84061666D01*
X190908333Y-84061666D01*
X190841666Y-84045000D01*
X190808333Y-84028333D01*
X190775000Y-83995000D01*
X190758333Y-83945000D01*
X190758333Y-83911666D01*
X190775000Y-83861666D01*
X190791666Y-83845000D01*
X191108333Y-83511666D02*
X191108333Y-83711666D01*
X191108333Y-83611666D02*
X190758333Y-83611666D01*
X190808333Y-83645000D01*
X190841666Y-83678333D01*
X190858333Y-83711666D01*
X191108333Y-83178333D02*
X191108333Y-83378333D01*
X191108333Y-83278333D02*
X190758333Y-83278333D01*
X190808333Y-83311666D01*
X190841666Y-83345000D01*
X190858333Y-83378333D01*
%TO.C,U8*%
X202983333Y-88408333D02*
X202983333Y-88691666D01*
X203000000Y-88725000D01*
X203016666Y-88741666D01*
X203050000Y-88758333D01*
X203116666Y-88758333D01*
X203150000Y-88741666D01*
X203166666Y-88725000D01*
X203183333Y-88691666D01*
X203183333Y-88408333D01*
X203400000Y-88558333D02*
X203366666Y-88541666D01*
X203350000Y-88525000D01*
X203333333Y-88491666D01*
X203333333Y-88475000D01*
X203350000Y-88441666D01*
X203366666Y-88425000D01*
X203400000Y-88408333D01*
X203466666Y-88408333D01*
X203500000Y-88425000D01*
X203516666Y-88441666D01*
X203533333Y-88475000D01*
X203533333Y-88491666D01*
X203516666Y-88525000D01*
X203500000Y-88541666D01*
X203466666Y-88558333D01*
X203400000Y-88558333D01*
X203366666Y-88575000D01*
X203350000Y-88591666D01*
X203333333Y-88625000D01*
X203333333Y-88691666D01*
X203350000Y-88725000D01*
X203366666Y-88741666D01*
X203400000Y-88758333D01*
X203466666Y-88758333D01*
X203500000Y-88741666D01*
X203516666Y-88725000D01*
X203533333Y-88691666D01*
X203533333Y-88625000D01*
X203516666Y-88591666D01*
X203500000Y-88575000D01*
X203466666Y-88558333D01*
%TO.C,C20*%
X186950000Y-76400000D02*
X186933333Y-76416666D01*
X186883333Y-76433333D01*
X186850000Y-76433333D01*
X186800000Y-76416666D01*
X186766666Y-76383333D01*
X186750000Y-76350000D01*
X186733333Y-76283333D01*
X186733333Y-76233333D01*
X186750000Y-76166666D01*
X186766666Y-76133333D01*
X186800000Y-76100000D01*
X186850000Y-76083333D01*
X186883333Y-76083333D01*
X186933333Y-76100000D01*
X186950000Y-76116666D01*
X187083333Y-76116666D02*
X187100000Y-76100000D01*
X187133333Y-76083333D01*
X187216666Y-76083333D01*
X187250000Y-76100000D01*
X187266666Y-76116666D01*
X187283333Y-76150000D01*
X187283333Y-76183333D01*
X187266666Y-76233333D01*
X187066666Y-76433333D01*
X187283333Y-76433333D01*
X187500000Y-76083333D02*
X187533333Y-76083333D01*
X187566666Y-76100000D01*
X187583333Y-76116666D01*
X187600000Y-76150000D01*
X187616666Y-76216666D01*
X187616666Y-76300000D01*
X187600000Y-76366666D01*
X187583333Y-76400000D01*
X187566666Y-76416666D01*
X187533333Y-76433333D01*
X187500000Y-76433333D01*
X187466666Y-76416666D01*
X187450000Y-76400000D01*
X187433333Y-76366666D01*
X187416666Y-76300000D01*
X187416666Y-76216666D01*
X187433333Y-76150000D01*
X187450000Y-76116666D01*
X187466666Y-76100000D01*
X187500000Y-76083333D01*
%TO.C,C29*%
X211175000Y-100075000D02*
X211158333Y-100091666D01*
X211108333Y-100108333D01*
X211075000Y-100108333D01*
X211025000Y-100091666D01*
X210991666Y-100058333D01*
X210975000Y-100025000D01*
X210958333Y-99958333D01*
X210958333Y-99908333D01*
X210975000Y-99841666D01*
X210991666Y-99808333D01*
X211025000Y-99775000D01*
X211075000Y-99758333D01*
X211108333Y-99758333D01*
X211158333Y-99775000D01*
X211175000Y-99791666D01*
X211308333Y-99791666D02*
X211325000Y-99775000D01*
X211358333Y-99758333D01*
X211441666Y-99758333D01*
X211475000Y-99775000D01*
X211491666Y-99791666D01*
X211508333Y-99825000D01*
X211508333Y-99858333D01*
X211491666Y-99908333D01*
X211291666Y-100108333D01*
X211508333Y-100108333D01*
X211675000Y-100108333D02*
X211741666Y-100108333D01*
X211775000Y-100091666D01*
X211791666Y-100075000D01*
X211825000Y-100025000D01*
X211841666Y-99958333D01*
X211841666Y-99825000D01*
X211825000Y-99791666D01*
X211808333Y-99775000D01*
X211775000Y-99758333D01*
X211708333Y-99758333D01*
X211675000Y-99775000D01*
X211658333Y-99791666D01*
X211641666Y-99825000D01*
X211641666Y-99908333D01*
X211658333Y-99941666D01*
X211675000Y-99958333D01*
X211708333Y-99975000D01*
X211775000Y-99975000D01*
X211808333Y-99958333D01*
X211825000Y-99941666D01*
X211841666Y-99908333D01*
%TO.C,P1*%
X214228333Y-88198333D02*
X213878333Y-88198333D01*
X213878333Y-88065000D01*
X213895000Y-88031666D01*
X213911666Y-88015000D01*
X213945000Y-87998333D01*
X213995000Y-87998333D01*
X214028333Y-88015000D01*
X214045000Y-88031666D01*
X214061666Y-88065000D01*
X214061666Y-88198333D01*
X214228333Y-87665000D02*
X214228333Y-87865000D01*
X214228333Y-87765000D02*
X213878333Y-87765000D01*
X213928333Y-87798333D01*
X213961666Y-87831666D01*
X213978333Y-87865000D01*
%TO.C,C3*%
X181215000Y-71298333D02*
X181231666Y-71315000D01*
X181248333Y-71365000D01*
X181248333Y-71398333D01*
X181231666Y-71448333D01*
X181198333Y-71481666D01*
X181165000Y-71498333D01*
X181098333Y-71515000D01*
X181048333Y-71515000D01*
X180981666Y-71498333D01*
X180948333Y-71481666D01*
X180915000Y-71448333D01*
X180898333Y-71398333D01*
X180898333Y-71365000D01*
X180915000Y-71315000D01*
X180931666Y-71298333D01*
X180898333Y-71181666D02*
X180898333Y-70965000D01*
X181031666Y-71081666D01*
X181031666Y-71031666D01*
X181048333Y-70998333D01*
X181065000Y-70981666D01*
X181098333Y-70965000D01*
X181181666Y-70965000D01*
X181215000Y-70981666D01*
X181231666Y-70998333D01*
X181248333Y-71031666D01*
X181248333Y-71131666D01*
X181231666Y-71165000D01*
X181215000Y-71181666D01*
%TO.C,C24*%
X181795000Y-79885000D02*
X181811666Y-79901666D01*
X181828333Y-79951666D01*
X181828333Y-79985000D01*
X181811666Y-80035000D01*
X181778333Y-80068333D01*
X181745000Y-80085000D01*
X181678333Y-80101666D01*
X181628333Y-80101666D01*
X181561666Y-80085000D01*
X181528333Y-80068333D01*
X181495000Y-80035000D01*
X181478333Y-79985000D01*
X181478333Y-79951666D01*
X181495000Y-79901666D01*
X181511666Y-79885000D01*
X181511666Y-79751666D02*
X181495000Y-79735000D01*
X181478333Y-79701666D01*
X181478333Y-79618333D01*
X181495000Y-79585000D01*
X181511666Y-79568333D01*
X181545000Y-79551666D01*
X181578333Y-79551666D01*
X181628333Y-79568333D01*
X181828333Y-79768333D01*
X181828333Y-79551666D01*
X181595000Y-79251666D02*
X181828333Y-79251666D01*
X181461666Y-79335000D02*
X181711666Y-79418333D01*
X181711666Y-79201666D01*
%TO.C,R18*%
X182568333Y-94705000D02*
X182401666Y-94821666D01*
X182568333Y-94905000D02*
X182218333Y-94905000D01*
X182218333Y-94771666D01*
X182235000Y-94738333D01*
X182251666Y-94721666D01*
X182285000Y-94705000D01*
X182335000Y-94705000D01*
X182368333Y-94721666D01*
X182385000Y-94738333D01*
X182401666Y-94771666D01*
X182401666Y-94905000D01*
X182568333Y-94371666D02*
X182568333Y-94571666D01*
X182568333Y-94471666D02*
X182218333Y-94471666D01*
X182268333Y-94505000D01*
X182301666Y-94538333D01*
X182318333Y-94571666D01*
X182368333Y-94171666D02*
X182351666Y-94205000D01*
X182335000Y-94221666D01*
X182301666Y-94238333D01*
X182285000Y-94238333D01*
X182251666Y-94221666D01*
X182235000Y-94205000D01*
X182218333Y-94171666D01*
X182218333Y-94105000D01*
X182235000Y-94071666D01*
X182251666Y-94055000D01*
X182285000Y-94038333D01*
X182301666Y-94038333D01*
X182335000Y-94055000D01*
X182351666Y-94071666D01*
X182368333Y-94105000D01*
X182368333Y-94171666D01*
X182385000Y-94205000D01*
X182401666Y-94221666D01*
X182435000Y-94238333D01*
X182501666Y-94238333D01*
X182535000Y-94221666D01*
X182551666Y-94205000D01*
X182568333Y-94171666D01*
X182568333Y-94105000D01*
X182551666Y-94071666D01*
X182535000Y-94055000D01*
X182501666Y-94038333D01*
X182435000Y-94038333D01*
X182401666Y-94055000D01*
X182385000Y-94071666D01*
X182368333Y-94105000D01*
%TO.C,L2*%
X190411666Y-61948333D02*
X190245000Y-61948333D01*
X190245000Y-61598333D01*
X190511666Y-61631666D02*
X190528333Y-61615000D01*
X190561666Y-61598333D01*
X190645000Y-61598333D01*
X190678333Y-61615000D01*
X190695000Y-61631666D01*
X190711666Y-61665000D01*
X190711666Y-61698333D01*
X190695000Y-61748333D01*
X190495000Y-61948333D01*
X190711666Y-61948333D01*
%TO.C,C21*%
X193100000Y-76350000D02*
X193083333Y-76366666D01*
X193033333Y-76383333D01*
X193000000Y-76383333D01*
X192950000Y-76366666D01*
X192916666Y-76333333D01*
X192900000Y-76300000D01*
X192883333Y-76233333D01*
X192883333Y-76183333D01*
X192900000Y-76116666D01*
X192916666Y-76083333D01*
X192950000Y-76050000D01*
X193000000Y-76033333D01*
X193033333Y-76033333D01*
X193083333Y-76050000D01*
X193100000Y-76066666D01*
X193233333Y-76066666D02*
X193250000Y-76050000D01*
X193283333Y-76033333D01*
X193366666Y-76033333D01*
X193400000Y-76050000D01*
X193416666Y-76066666D01*
X193433333Y-76100000D01*
X193433333Y-76133333D01*
X193416666Y-76183333D01*
X193216666Y-76383333D01*
X193433333Y-76383333D01*
X193766666Y-76383333D02*
X193566666Y-76383333D01*
X193666666Y-76383333D02*
X193666666Y-76033333D01*
X193633333Y-76083333D01*
X193600000Y-76116666D01*
X193566666Y-76133333D01*
%TO.C,C30*%
X197955000Y-90355000D02*
X197971666Y-90371666D01*
X197988333Y-90421666D01*
X197988333Y-90455000D01*
X197971666Y-90505000D01*
X197938333Y-90538333D01*
X197905000Y-90555000D01*
X197838333Y-90571666D01*
X197788333Y-90571666D01*
X197721666Y-90555000D01*
X197688333Y-90538333D01*
X197655000Y-90505000D01*
X197638333Y-90455000D01*
X197638333Y-90421666D01*
X197655000Y-90371666D01*
X197671666Y-90355000D01*
X197638333Y-90238333D02*
X197638333Y-90021666D01*
X197771666Y-90138333D01*
X197771666Y-90088333D01*
X197788333Y-90055000D01*
X197805000Y-90038333D01*
X197838333Y-90021666D01*
X197921666Y-90021666D01*
X197955000Y-90038333D01*
X197971666Y-90055000D01*
X197988333Y-90088333D01*
X197988333Y-90188333D01*
X197971666Y-90221666D01*
X197955000Y-90238333D01*
X197638333Y-89805000D02*
X197638333Y-89771666D01*
X197655000Y-89738333D01*
X197671666Y-89721666D01*
X197705000Y-89705000D01*
X197771666Y-89688333D01*
X197855000Y-89688333D01*
X197921666Y-89705000D01*
X197955000Y-89721666D01*
X197971666Y-89738333D01*
X197988333Y-89771666D01*
X197988333Y-89805000D01*
X197971666Y-89838333D01*
X197955000Y-89855000D01*
X197921666Y-89871666D01*
X197855000Y-89888333D01*
X197771666Y-89888333D01*
X197705000Y-89871666D01*
X197671666Y-89855000D01*
X197655000Y-89838333D01*
X197638333Y-89805000D01*
%TO.C,D9*%
X212808333Y-94808333D02*
X212458333Y-94808333D01*
X212458333Y-94725000D01*
X212475000Y-94675000D01*
X212508333Y-94641666D01*
X212541666Y-94625000D01*
X212608333Y-94608333D01*
X212658333Y-94608333D01*
X212725000Y-94625000D01*
X212758333Y-94641666D01*
X212791666Y-94675000D01*
X212808333Y-94725000D01*
X212808333Y-94808333D01*
X212808333Y-94441666D02*
X212808333Y-94375000D01*
X212791666Y-94341666D01*
X212775000Y-94325000D01*
X212725000Y-94291666D01*
X212658333Y-94275000D01*
X212525000Y-94275000D01*
X212491666Y-94291666D01*
X212475000Y-94308333D01*
X212458333Y-94341666D01*
X212458333Y-94408333D01*
X212475000Y-94441666D01*
X212491666Y-94458333D01*
X212525000Y-94475000D01*
X212608333Y-94475000D01*
X212641666Y-94458333D01*
X212658333Y-94441666D01*
X212675000Y-94408333D01*
X212675000Y-94341666D01*
X212658333Y-94308333D01*
X212641666Y-94291666D01*
X212608333Y-94275000D01*
%TO.C,J1*%
X174823333Y-82948333D02*
X174823333Y-83198333D01*
X174806666Y-83248333D01*
X174773333Y-83281666D01*
X174723333Y-83298333D01*
X174690000Y-83298333D01*
X175173333Y-83298333D02*
X174973333Y-83298333D01*
X175073333Y-83298333D02*
X175073333Y-82948333D01*
X175040000Y-82998333D01*
X175006666Y-83031666D01*
X174973333Y-83048333D01*
%TO.C,U2*%
X187538333Y-104906666D02*
X187821666Y-104906666D01*
X187855000Y-104890000D01*
X187871666Y-104873333D01*
X187888333Y-104840000D01*
X187888333Y-104773333D01*
X187871666Y-104740000D01*
X187855000Y-104723333D01*
X187821666Y-104706666D01*
X187538333Y-104706666D01*
X187571666Y-104556666D02*
X187555000Y-104540000D01*
X187538333Y-104506666D01*
X187538333Y-104423333D01*
X187555000Y-104390000D01*
X187571666Y-104373333D01*
X187605000Y-104356666D01*
X187638333Y-104356666D01*
X187688333Y-104373333D01*
X187888333Y-104573333D01*
X187888333Y-104356666D01*
%TO.C,C32*%
X213530000Y-103182500D02*
X213513333Y-103199166D01*
X213463333Y-103215833D01*
X213430000Y-103215833D01*
X213380000Y-103199166D01*
X213346666Y-103165833D01*
X213330000Y-103132500D01*
X213313333Y-103065833D01*
X213313333Y-103015833D01*
X213330000Y-102949166D01*
X213346666Y-102915833D01*
X213380000Y-102882500D01*
X213430000Y-102865833D01*
X213463333Y-102865833D01*
X213513333Y-102882500D01*
X213530000Y-102899166D01*
X213646666Y-102865833D02*
X213863333Y-102865833D01*
X213746666Y-102999166D01*
X213796666Y-102999166D01*
X213830000Y-103015833D01*
X213846666Y-103032500D01*
X213863333Y-103065833D01*
X213863333Y-103149166D01*
X213846666Y-103182500D01*
X213830000Y-103199166D01*
X213796666Y-103215833D01*
X213696666Y-103215833D01*
X213663333Y-103199166D01*
X213646666Y-103182500D01*
X213996666Y-102899166D02*
X214013333Y-102882500D01*
X214046666Y-102865833D01*
X214130000Y-102865833D01*
X214163333Y-102882500D01*
X214180000Y-102899166D01*
X214196666Y-102932500D01*
X214196666Y-102965833D01*
X214180000Y-103015833D01*
X213980000Y-103215833D01*
X214196666Y-103215833D01*
%TO.C,C19*%
X190975000Y-76400000D02*
X190958333Y-76416666D01*
X190908333Y-76433333D01*
X190875000Y-76433333D01*
X190825000Y-76416666D01*
X190791666Y-76383333D01*
X190775000Y-76350000D01*
X190758333Y-76283333D01*
X190758333Y-76233333D01*
X190775000Y-76166666D01*
X190791666Y-76133333D01*
X190825000Y-76100000D01*
X190875000Y-76083333D01*
X190908333Y-76083333D01*
X190958333Y-76100000D01*
X190975000Y-76116666D01*
X191308333Y-76433333D02*
X191108333Y-76433333D01*
X191208333Y-76433333D02*
X191208333Y-76083333D01*
X191175000Y-76133333D01*
X191141666Y-76166666D01*
X191108333Y-76183333D01*
X191475000Y-76433333D02*
X191541666Y-76433333D01*
X191575000Y-76416666D01*
X191591666Y-76400000D01*
X191625000Y-76350000D01*
X191641666Y-76283333D01*
X191641666Y-76150000D01*
X191625000Y-76116666D01*
X191608333Y-76100000D01*
X191575000Y-76083333D01*
X191508333Y-76083333D01*
X191475000Y-76100000D01*
X191458333Y-76116666D01*
X191441666Y-76150000D01*
X191441666Y-76233333D01*
X191458333Y-76266666D01*
X191475000Y-76283333D01*
X191508333Y-76300000D01*
X191575000Y-76300000D01*
X191608333Y-76283333D01*
X191625000Y-76266666D01*
X191641666Y-76233333D01*
%TO.C,D5*%
X177431666Y-97628333D02*
X177431666Y-97278333D01*
X177515000Y-97278333D01*
X177565000Y-97295000D01*
X177598333Y-97328333D01*
X177615000Y-97361666D01*
X177631666Y-97428333D01*
X177631666Y-97478333D01*
X177615000Y-97545000D01*
X177598333Y-97578333D01*
X177565000Y-97611666D01*
X177515000Y-97628333D01*
X177431666Y-97628333D01*
X177948333Y-97278333D02*
X177781666Y-97278333D01*
X177765000Y-97445000D01*
X177781666Y-97428333D01*
X177815000Y-97411666D01*
X177898333Y-97411666D01*
X177931666Y-97428333D01*
X177948333Y-97445000D01*
X177965000Y-97478333D01*
X177965000Y-97561666D01*
X177948333Y-97595000D01*
X177931666Y-97611666D01*
X177898333Y-97628333D01*
X177815000Y-97628333D01*
X177781666Y-97611666D01*
X177765000Y-97595000D01*
%TO.C,L1*%
X192148333Y-91348333D02*
X192148333Y-91515000D01*
X191798333Y-91515000D01*
X192148333Y-91048333D02*
X192148333Y-91248333D01*
X192148333Y-91148333D02*
X191798333Y-91148333D01*
X191848333Y-91181666D01*
X191881666Y-91215000D01*
X191898333Y-91248333D01*
%TO.C,R17*%
X180038333Y-95445000D02*
X179871666Y-95561666D01*
X180038333Y-95645000D02*
X179688333Y-95645000D01*
X179688333Y-95511666D01*
X179705000Y-95478333D01*
X179721666Y-95461666D01*
X179755000Y-95445000D01*
X179805000Y-95445000D01*
X179838333Y-95461666D01*
X179855000Y-95478333D01*
X179871666Y-95511666D01*
X179871666Y-95645000D01*
X180038333Y-95111666D02*
X180038333Y-95311666D01*
X180038333Y-95211666D02*
X179688333Y-95211666D01*
X179738333Y-95245000D01*
X179771666Y-95278333D01*
X179788333Y-95311666D01*
X179688333Y-94995000D02*
X179688333Y-94761666D01*
X180038333Y-94911666D01*
%TO.C,C6*%
X181500000Y-64408333D02*
X181516666Y-64425000D01*
X181533333Y-64475000D01*
X181533333Y-64508333D01*
X181516666Y-64558333D01*
X181483333Y-64591666D01*
X181450000Y-64608333D01*
X181383333Y-64625000D01*
X181333333Y-64625000D01*
X181266666Y-64608333D01*
X181233333Y-64591666D01*
X181200000Y-64558333D01*
X181183333Y-64508333D01*
X181183333Y-64475000D01*
X181200000Y-64425000D01*
X181216666Y-64408333D01*
X181183333Y-64108333D02*
X181183333Y-64175000D01*
X181200000Y-64208333D01*
X181216666Y-64225000D01*
X181266666Y-64258333D01*
X181333333Y-64275000D01*
X181466666Y-64275000D01*
X181500000Y-64258333D01*
X181516666Y-64241666D01*
X181533333Y-64208333D01*
X181533333Y-64141666D01*
X181516666Y-64108333D01*
X181500000Y-64091666D01*
X181466666Y-64075000D01*
X181383333Y-64075000D01*
X181350000Y-64091666D01*
X181333333Y-64108333D01*
X181316666Y-64141666D01*
X181316666Y-64208333D01*
X181333333Y-64241666D01*
X181350000Y-64258333D01*
X181383333Y-64275000D01*
%TO.C,D6*%
X205191666Y-91958333D02*
X205191666Y-91608333D01*
X205275000Y-91608333D01*
X205325000Y-91625000D01*
X205358333Y-91658333D01*
X205375000Y-91691666D01*
X205391666Y-91758333D01*
X205391666Y-91808333D01*
X205375000Y-91875000D01*
X205358333Y-91908333D01*
X205325000Y-91941666D01*
X205275000Y-91958333D01*
X205191666Y-91958333D01*
X205691666Y-91608333D02*
X205625000Y-91608333D01*
X205591666Y-91625000D01*
X205575000Y-91641666D01*
X205541666Y-91691666D01*
X205525000Y-91758333D01*
X205525000Y-91891666D01*
X205541666Y-91925000D01*
X205558333Y-91941666D01*
X205591666Y-91958333D01*
X205658333Y-91958333D01*
X205691666Y-91941666D01*
X205708333Y-91925000D01*
X205725000Y-91891666D01*
X205725000Y-91808333D01*
X205708333Y-91775000D01*
X205691666Y-91758333D01*
X205658333Y-91741666D01*
X205591666Y-91741666D01*
X205558333Y-91758333D01*
X205541666Y-91775000D01*
X205525000Y-91808333D01*
%TO.C,U6*%
X196988333Y-77006666D02*
X197271666Y-77006666D01*
X197305000Y-76990000D01*
X197321666Y-76973333D01*
X197338333Y-76940000D01*
X197338333Y-76873333D01*
X197321666Y-76840000D01*
X197305000Y-76823333D01*
X197271666Y-76806666D01*
X196988333Y-76806666D01*
X196988333Y-76490000D02*
X196988333Y-76556666D01*
X197005000Y-76590000D01*
X197021666Y-76606666D01*
X197071666Y-76640000D01*
X197138333Y-76656666D01*
X197271666Y-76656666D01*
X197305000Y-76640000D01*
X197321666Y-76623333D01*
X197338333Y-76590000D01*
X197338333Y-76523333D01*
X197321666Y-76490000D01*
X197305000Y-76473333D01*
X197271666Y-76456666D01*
X197188333Y-76456666D01*
X197155000Y-76473333D01*
X197138333Y-76490000D01*
X197121666Y-76523333D01*
X197121666Y-76590000D01*
X197138333Y-76623333D01*
X197155000Y-76640000D01*
X197188333Y-76656666D01*
%TO.C,D4*%
X184491666Y-99548333D02*
X184491666Y-99198333D01*
X184575000Y-99198333D01*
X184625000Y-99215000D01*
X184658333Y-99248333D01*
X184675000Y-99281666D01*
X184691666Y-99348333D01*
X184691666Y-99398333D01*
X184675000Y-99465000D01*
X184658333Y-99498333D01*
X184625000Y-99531666D01*
X184575000Y-99548333D01*
X184491666Y-99548333D01*
X184991666Y-99315000D02*
X184991666Y-99548333D01*
X184908333Y-99181666D02*
X184825000Y-99431666D01*
X185041666Y-99431666D01*
D10*
%TO.C,C13*%
X190445000Y-63335000D02*
X190461666Y-63351666D01*
X190478333Y-63401666D01*
X190478333Y-63435000D01*
X190461666Y-63485000D01*
X190428333Y-63518333D01*
X190395000Y-63535000D01*
X190328333Y-63551666D01*
X190278333Y-63551666D01*
X190211666Y-63535000D01*
X190178333Y-63518333D01*
X190145000Y-63485000D01*
X190128333Y-63435000D01*
X190128333Y-63401666D01*
X190145000Y-63351666D01*
X190161666Y-63335000D01*
X190478333Y-63001666D02*
X190478333Y-63201666D01*
X190478333Y-63101666D02*
X190128333Y-63101666D01*
X190178333Y-63135000D01*
X190211666Y-63168333D01*
X190228333Y-63201666D01*
X190128333Y-62885000D02*
X190128333Y-62668333D01*
X190261666Y-62785000D01*
X190261666Y-62735000D01*
X190278333Y-62701666D01*
X190295000Y-62685000D01*
X190328333Y-62668333D01*
X190411666Y-62668333D01*
X190445000Y-62685000D01*
X190461666Y-62701666D01*
X190478333Y-62735000D01*
X190478333Y-62835000D01*
X190461666Y-62868333D01*
X190445000Y-62885000D01*
D12*
%TO.C,R21*%
X201508333Y-73525000D02*
X201341666Y-73641666D01*
X201508333Y-73725000D02*
X201158333Y-73725000D01*
X201158333Y-73591666D01*
X201175000Y-73558333D01*
X201191666Y-73541666D01*
X201225000Y-73525000D01*
X201275000Y-73525000D01*
X201308333Y-73541666D01*
X201325000Y-73558333D01*
X201341666Y-73591666D01*
X201341666Y-73725000D01*
X201191666Y-73391666D02*
X201175000Y-73375000D01*
X201158333Y-73341666D01*
X201158333Y-73258333D01*
X201175000Y-73225000D01*
X201191666Y-73208333D01*
X201225000Y-73191666D01*
X201258333Y-73191666D01*
X201308333Y-73208333D01*
X201508333Y-73408333D01*
X201508333Y-73191666D01*
X201508333Y-72858333D02*
X201508333Y-73058333D01*
X201508333Y-72958333D02*
X201158333Y-72958333D01*
X201208333Y-72991666D01*
X201241666Y-73025000D01*
X201258333Y-73058333D01*
%TO.C,R27*%
X202598333Y-77545000D02*
X202431666Y-77661666D01*
X202598333Y-77745000D02*
X202248333Y-77745000D01*
X202248333Y-77611666D01*
X202265000Y-77578333D01*
X202281666Y-77561666D01*
X202315000Y-77545000D01*
X202365000Y-77545000D01*
X202398333Y-77561666D01*
X202415000Y-77578333D01*
X202431666Y-77611666D01*
X202431666Y-77745000D01*
X202281666Y-77411666D02*
X202265000Y-77395000D01*
X202248333Y-77361666D01*
X202248333Y-77278333D01*
X202265000Y-77245000D01*
X202281666Y-77228333D01*
X202315000Y-77211666D01*
X202348333Y-77211666D01*
X202398333Y-77228333D01*
X202598333Y-77428333D01*
X202598333Y-77211666D01*
X202248333Y-77095000D02*
X202248333Y-76861666D01*
X202598333Y-77011666D01*
%TO.C,C15*%
X193895000Y-90915000D02*
X193878333Y-90931666D01*
X193828333Y-90948333D01*
X193795000Y-90948333D01*
X193745000Y-90931666D01*
X193711666Y-90898333D01*
X193695000Y-90865000D01*
X193678333Y-90798333D01*
X193678333Y-90748333D01*
X193695000Y-90681666D01*
X193711666Y-90648333D01*
X193745000Y-90615000D01*
X193795000Y-90598333D01*
X193828333Y-90598333D01*
X193878333Y-90615000D01*
X193895000Y-90631666D01*
X194228333Y-90948333D02*
X194028333Y-90948333D01*
X194128333Y-90948333D02*
X194128333Y-90598333D01*
X194095000Y-90648333D01*
X194061666Y-90681666D01*
X194028333Y-90698333D01*
X194545000Y-90598333D02*
X194378333Y-90598333D01*
X194361666Y-90765000D01*
X194378333Y-90748333D01*
X194411666Y-90731666D01*
X194495000Y-90731666D01*
X194528333Y-90748333D01*
X194545000Y-90765000D01*
X194561666Y-90798333D01*
X194561666Y-90881666D01*
X194545000Y-90915000D01*
X194528333Y-90931666D01*
X194495000Y-90948333D01*
X194411666Y-90948333D01*
X194378333Y-90931666D01*
X194361666Y-90915000D01*
%TO.C,J2*%
X203803333Y-62858333D02*
X203803333Y-63108333D01*
X203786666Y-63158333D01*
X203753333Y-63191666D01*
X203703333Y-63208333D01*
X203670000Y-63208333D01*
X203953333Y-62891666D02*
X203970000Y-62875000D01*
X204003333Y-62858333D01*
X204086666Y-62858333D01*
X204120000Y-62875000D01*
X204136666Y-62891666D01*
X204153333Y-62925000D01*
X204153333Y-62958333D01*
X204136666Y-63008333D01*
X203936666Y-63208333D01*
X204153333Y-63208333D01*
%TO.C,C9*%
X209055000Y-105868333D02*
X209071666Y-105885000D01*
X209088333Y-105935000D01*
X209088333Y-105968333D01*
X209071666Y-106018333D01*
X209038333Y-106051666D01*
X209005000Y-106068333D01*
X208938333Y-106085000D01*
X208888333Y-106085000D01*
X208821666Y-106068333D01*
X208788333Y-106051666D01*
X208755000Y-106018333D01*
X208738333Y-105968333D01*
X208738333Y-105935000D01*
X208755000Y-105885000D01*
X208771666Y-105868333D01*
X209088333Y-105701666D02*
X209088333Y-105635000D01*
X209071666Y-105601666D01*
X209055000Y-105585000D01*
X209005000Y-105551666D01*
X208938333Y-105535000D01*
X208805000Y-105535000D01*
X208771666Y-105551666D01*
X208755000Y-105568333D01*
X208738333Y-105601666D01*
X208738333Y-105668333D01*
X208755000Y-105701666D01*
X208771666Y-105718333D01*
X208805000Y-105735000D01*
X208888333Y-105735000D01*
X208921666Y-105718333D01*
X208938333Y-105701666D01*
X208955000Y-105668333D01*
X208955000Y-105601666D01*
X208938333Y-105568333D01*
X208921666Y-105551666D01*
X208888333Y-105535000D01*
%TO.C,D8*%
X216508333Y-94783333D02*
X216158333Y-94783333D01*
X216158333Y-94700000D01*
X216175000Y-94650000D01*
X216208333Y-94616666D01*
X216241666Y-94600000D01*
X216308333Y-94583333D01*
X216358333Y-94583333D01*
X216425000Y-94600000D01*
X216458333Y-94616666D01*
X216491666Y-94650000D01*
X216508333Y-94700000D01*
X216508333Y-94783333D01*
X216308333Y-94383333D02*
X216291666Y-94416666D01*
X216275000Y-94433333D01*
X216241666Y-94450000D01*
X216225000Y-94450000D01*
X216191666Y-94433333D01*
X216175000Y-94416666D01*
X216158333Y-94383333D01*
X216158333Y-94316666D01*
X216175000Y-94283333D01*
X216191666Y-94266666D01*
X216225000Y-94250000D01*
X216241666Y-94250000D01*
X216275000Y-94266666D01*
X216291666Y-94283333D01*
X216308333Y-94316666D01*
X216308333Y-94383333D01*
X216325000Y-94416666D01*
X216341666Y-94433333D01*
X216375000Y-94450000D01*
X216441666Y-94450000D01*
X216475000Y-94433333D01*
X216491666Y-94416666D01*
X216508333Y-94383333D01*
X216508333Y-94316666D01*
X216491666Y-94283333D01*
X216475000Y-94266666D01*
X216441666Y-94250000D01*
X216375000Y-94250000D01*
X216341666Y-94266666D01*
X216325000Y-94283333D01*
X216308333Y-94316666D01*
%TO.C,C10*%
X187352500Y-63435000D02*
X187335833Y-63451666D01*
X187285833Y-63468333D01*
X187252500Y-63468333D01*
X187202500Y-63451666D01*
X187169166Y-63418333D01*
X187152500Y-63385000D01*
X187135833Y-63318333D01*
X187135833Y-63268333D01*
X187152500Y-63201666D01*
X187169166Y-63168333D01*
X187202500Y-63135000D01*
X187252500Y-63118333D01*
X187285833Y-63118333D01*
X187335833Y-63135000D01*
X187352500Y-63151666D01*
X187685833Y-63468333D02*
X187485833Y-63468333D01*
X187585833Y-63468333D02*
X187585833Y-63118333D01*
X187552500Y-63168333D01*
X187519166Y-63201666D01*
X187485833Y-63218333D01*
X187902500Y-63118333D02*
X187935833Y-63118333D01*
X187969166Y-63135000D01*
X187985833Y-63151666D01*
X188002500Y-63185000D01*
X188019166Y-63251666D01*
X188019166Y-63335000D01*
X188002500Y-63401666D01*
X187985833Y-63435000D01*
X187969166Y-63451666D01*
X187935833Y-63468333D01*
X187902500Y-63468333D01*
X187869166Y-63451666D01*
X187852500Y-63435000D01*
X187835833Y-63401666D01*
X187819166Y-63335000D01*
X187819166Y-63251666D01*
X187835833Y-63185000D01*
X187852500Y-63151666D01*
X187869166Y-63135000D01*
X187902500Y-63118333D01*
%TO.C,U7*%
X182663333Y-87328333D02*
X182663333Y-87611666D01*
X182680000Y-87645000D01*
X182696666Y-87661666D01*
X182730000Y-87678333D01*
X182796666Y-87678333D01*
X182830000Y-87661666D01*
X182846666Y-87645000D01*
X182863333Y-87611666D01*
X182863333Y-87328333D01*
X182996666Y-87328333D02*
X183230000Y-87328333D01*
X183080000Y-87678333D01*
%TO.C,C1*%
X176581666Y-93025000D02*
X176565000Y-93041666D01*
X176515000Y-93058333D01*
X176481666Y-93058333D01*
X176431666Y-93041666D01*
X176398333Y-93008333D01*
X176381666Y-92975000D01*
X176365000Y-92908333D01*
X176365000Y-92858333D01*
X176381666Y-92791666D01*
X176398333Y-92758333D01*
X176431666Y-92725000D01*
X176481666Y-92708333D01*
X176515000Y-92708333D01*
X176565000Y-92725000D01*
X176581666Y-92741666D01*
X176915000Y-93058333D02*
X176715000Y-93058333D01*
X176815000Y-93058333D02*
X176815000Y-92708333D01*
X176781666Y-92758333D01*
X176748333Y-92791666D01*
X176715000Y-92808333D01*
D13*
%TO.C,U4*%
X207402380Y-100911904D02*
X208211904Y-100911904D01*
X208307142Y-100864285D01*
X208354761Y-100816666D01*
X208402380Y-100721428D01*
X208402380Y-100530952D01*
X208354761Y-100435714D01*
X208307142Y-100388095D01*
X208211904Y-100340476D01*
X207402380Y-100340476D01*
X207735714Y-99435714D02*
X208402380Y-99435714D01*
X207354761Y-99673809D02*
X208069047Y-99911904D01*
X208069047Y-99292857D01*
D12*
%TO.C,C31*%
X198155000Y-85205000D02*
X198171666Y-85221666D01*
X198188333Y-85271666D01*
X198188333Y-85305000D01*
X198171666Y-85355000D01*
X198138333Y-85388333D01*
X198105000Y-85405000D01*
X198038333Y-85421666D01*
X197988333Y-85421666D01*
X197921666Y-85405000D01*
X197888333Y-85388333D01*
X197855000Y-85355000D01*
X197838333Y-85305000D01*
X197838333Y-85271666D01*
X197855000Y-85221666D01*
X197871666Y-85205000D01*
X197838333Y-85088333D02*
X197838333Y-84871666D01*
X197971666Y-84988333D01*
X197971666Y-84938333D01*
X197988333Y-84905000D01*
X198005000Y-84888333D01*
X198038333Y-84871666D01*
X198121666Y-84871666D01*
X198155000Y-84888333D01*
X198171666Y-84905000D01*
X198188333Y-84938333D01*
X198188333Y-85038333D01*
X198171666Y-85071666D01*
X198155000Y-85088333D01*
X198188333Y-84538333D02*
X198188333Y-84738333D01*
X198188333Y-84638333D02*
X197838333Y-84638333D01*
X197888333Y-84671666D01*
X197921666Y-84705000D01*
X197938333Y-84738333D01*
%TO.C,R8*%
X187541666Y-63213333D02*
X187425000Y-63046666D01*
X187341666Y-63213333D02*
X187341666Y-62863333D01*
X187475000Y-62863333D01*
X187508333Y-62880000D01*
X187525000Y-62896666D01*
X187541666Y-62930000D01*
X187541666Y-62980000D01*
X187525000Y-63013333D01*
X187508333Y-63030000D01*
X187475000Y-63046666D01*
X187341666Y-63046666D01*
X187741666Y-63013333D02*
X187708333Y-62996666D01*
X187691666Y-62980000D01*
X187675000Y-62946666D01*
X187675000Y-62930000D01*
X187691666Y-62896666D01*
X187708333Y-62880000D01*
X187741666Y-62863333D01*
X187808333Y-62863333D01*
X187841666Y-62880000D01*
X187858333Y-62896666D01*
X187875000Y-62930000D01*
X187875000Y-62946666D01*
X187858333Y-62980000D01*
X187841666Y-62996666D01*
X187808333Y-63013333D01*
X187741666Y-63013333D01*
X187708333Y-63030000D01*
X187691666Y-63046666D01*
X187675000Y-63080000D01*
X187675000Y-63146666D01*
X187691666Y-63180000D01*
X187708333Y-63196666D01*
X187741666Y-63213333D01*
X187808333Y-63213333D01*
X187841666Y-63196666D01*
X187858333Y-63180000D01*
X187875000Y-63146666D01*
X187875000Y-63080000D01*
X187858333Y-63046666D01*
X187841666Y-63030000D01*
X187808333Y-63013333D01*
%TO.C,D2*%
X205291666Y-79008333D02*
X205291666Y-78658333D01*
X205375000Y-78658333D01*
X205425000Y-78675000D01*
X205458333Y-78708333D01*
X205475000Y-78741666D01*
X205491666Y-78808333D01*
X205491666Y-78858333D01*
X205475000Y-78925000D01*
X205458333Y-78958333D01*
X205425000Y-78991666D01*
X205375000Y-79008333D01*
X205291666Y-79008333D01*
X205625000Y-78691666D02*
X205641666Y-78675000D01*
X205675000Y-78658333D01*
X205758333Y-78658333D01*
X205791666Y-78675000D01*
X205808333Y-78691666D01*
X205825000Y-78725000D01*
X205825000Y-78758333D01*
X205808333Y-78808333D01*
X205608333Y-79008333D01*
X205825000Y-79008333D01*
%TO.C,U10*%
X215458333Y-101183333D02*
X215741666Y-101183333D01*
X215775000Y-101166666D01*
X215791666Y-101150000D01*
X215808333Y-101116666D01*
X215808333Y-101050000D01*
X215791666Y-101016666D01*
X215775000Y-101000000D01*
X215741666Y-100983333D01*
X215458333Y-100983333D01*
X215808333Y-100633333D02*
X215808333Y-100833333D01*
X215808333Y-100733333D02*
X215458333Y-100733333D01*
X215508333Y-100766666D01*
X215541666Y-100800000D01*
X215558333Y-100833333D01*
X215458333Y-100416666D02*
X215458333Y-100383333D01*
X215475000Y-100350000D01*
X215491666Y-100333333D01*
X215525000Y-100316666D01*
X215591666Y-100300000D01*
X215675000Y-100300000D01*
X215741666Y-100316666D01*
X215775000Y-100333333D01*
X215791666Y-100350000D01*
X215808333Y-100383333D01*
X215808333Y-100416666D01*
X215791666Y-100450000D01*
X215775000Y-100466666D01*
X215741666Y-100483333D01*
X215675000Y-100500000D01*
X215591666Y-100500000D01*
X215525000Y-100483333D01*
X215491666Y-100466666D01*
X215475000Y-100450000D01*
X215458333Y-100416666D01*
%TO.C,C18*%
X189000000Y-76425000D02*
X188983333Y-76441666D01*
X188933333Y-76458333D01*
X188900000Y-76458333D01*
X188850000Y-76441666D01*
X188816666Y-76408333D01*
X188800000Y-76375000D01*
X188783333Y-76308333D01*
X188783333Y-76258333D01*
X188800000Y-76191666D01*
X188816666Y-76158333D01*
X188850000Y-76125000D01*
X188900000Y-76108333D01*
X188933333Y-76108333D01*
X188983333Y-76125000D01*
X189000000Y-76141666D01*
X189333333Y-76458333D02*
X189133333Y-76458333D01*
X189233333Y-76458333D02*
X189233333Y-76108333D01*
X189200000Y-76158333D01*
X189166666Y-76191666D01*
X189133333Y-76208333D01*
X189533333Y-76258333D02*
X189500000Y-76241666D01*
X189483333Y-76225000D01*
X189466666Y-76191666D01*
X189466666Y-76175000D01*
X189483333Y-76141666D01*
X189500000Y-76125000D01*
X189533333Y-76108333D01*
X189600000Y-76108333D01*
X189633333Y-76125000D01*
X189650000Y-76141666D01*
X189666666Y-76175000D01*
X189666666Y-76191666D01*
X189650000Y-76225000D01*
X189633333Y-76241666D01*
X189600000Y-76258333D01*
X189533333Y-76258333D01*
X189500000Y-76275000D01*
X189483333Y-76291666D01*
X189466666Y-76325000D01*
X189466666Y-76391666D01*
X189483333Y-76425000D01*
X189500000Y-76441666D01*
X189533333Y-76458333D01*
X189600000Y-76458333D01*
X189633333Y-76441666D01*
X189650000Y-76425000D01*
X189666666Y-76391666D01*
X189666666Y-76325000D01*
X189650000Y-76291666D01*
X189633333Y-76275000D01*
X189600000Y-76258333D01*
%TO.C,C16*%
X173125000Y-71925000D02*
X173141666Y-71941666D01*
X173158333Y-71991666D01*
X173158333Y-72025000D01*
X173141666Y-72075000D01*
X173108333Y-72108333D01*
X173075000Y-72125000D01*
X173008333Y-72141666D01*
X172958333Y-72141666D01*
X172891666Y-72125000D01*
X172858333Y-72108333D01*
X172825000Y-72075000D01*
X172808333Y-72025000D01*
X172808333Y-71991666D01*
X172825000Y-71941666D01*
X172841666Y-71925000D01*
X173158333Y-71591666D02*
X173158333Y-71791666D01*
X173158333Y-71691666D02*
X172808333Y-71691666D01*
X172858333Y-71725000D01*
X172891666Y-71758333D01*
X172908333Y-71791666D01*
X172808333Y-71291666D02*
X172808333Y-71358333D01*
X172825000Y-71391666D01*
X172841666Y-71408333D01*
X172891666Y-71441666D01*
X172958333Y-71458333D01*
X173091666Y-71458333D01*
X173125000Y-71441666D01*
X173141666Y-71425000D01*
X173158333Y-71391666D01*
X173158333Y-71325000D01*
X173141666Y-71291666D01*
X173125000Y-71275000D01*
X173091666Y-71258333D01*
X173008333Y-71258333D01*
X172975000Y-71275000D01*
X172958333Y-71291666D01*
X172941666Y-71325000D01*
X172941666Y-71391666D01*
X172958333Y-71425000D01*
X172975000Y-71441666D01*
X173008333Y-71458333D01*
%TO.C,R13*%
X203795000Y-78838333D02*
X203678333Y-78671666D01*
X203595000Y-78838333D02*
X203595000Y-78488333D01*
X203728333Y-78488333D01*
X203761666Y-78505000D01*
X203778333Y-78521666D01*
X203795000Y-78555000D01*
X203795000Y-78605000D01*
X203778333Y-78638333D01*
X203761666Y-78655000D01*
X203728333Y-78671666D01*
X203595000Y-78671666D01*
X204128333Y-78838333D02*
X203928333Y-78838333D01*
X204028333Y-78838333D02*
X204028333Y-78488333D01*
X203995000Y-78538333D01*
X203961666Y-78571666D01*
X203928333Y-78588333D01*
X204245000Y-78488333D02*
X204461666Y-78488333D01*
X204345000Y-78621666D01*
X204395000Y-78621666D01*
X204428333Y-78638333D01*
X204445000Y-78655000D01*
X204461666Y-78688333D01*
X204461666Y-78771666D01*
X204445000Y-78805000D01*
X204428333Y-78821666D01*
X204395000Y-78838333D01*
X204295000Y-78838333D01*
X204261666Y-78821666D01*
X204245000Y-78805000D01*
%TO.C,U11*%
X210758333Y-101383333D02*
X211041666Y-101383333D01*
X211075000Y-101366666D01*
X211091666Y-101350000D01*
X211108333Y-101316666D01*
X211108333Y-101250000D01*
X211091666Y-101216666D01*
X211075000Y-101200000D01*
X211041666Y-101183333D01*
X210758333Y-101183333D01*
X211108333Y-100833333D02*
X211108333Y-101033333D01*
X211108333Y-100933333D02*
X210758333Y-100933333D01*
X210808333Y-100966666D01*
X210841666Y-101000000D01*
X210858333Y-101033333D01*
X211108333Y-100500000D02*
X211108333Y-100700000D01*
X211108333Y-100600000D02*
X210758333Y-100600000D01*
X210808333Y-100633333D01*
X210841666Y-100666666D01*
X210858333Y-100700000D01*
%TO.C,R15*%
X175475000Y-88008333D02*
X175358333Y-87841666D01*
X175275000Y-88008333D02*
X175275000Y-87658333D01*
X175408333Y-87658333D01*
X175441666Y-87675000D01*
X175458333Y-87691666D01*
X175475000Y-87725000D01*
X175475000Y-87775000D01*
X175458333Y-87808333D01*
X175441666Y-87825000D01*
X175408333Y-87841666D01*
X175275000Y-87841666D01*
X175808333Y-88008333D02*
X175608333Y-88008333D01*
X175708333Y-88008333D02*
X175708333Y-87658333D01*
X175675000Y-87708333D01*
X175641666Y-87741666D01*
X175608333Y-87758333D01*
X176125000Y-87658333D02*
X175958333Y-87658333D01*
X175941666Y-87825000D01*
X175958333Y-87808333D01*
X175991666Y-87791666D01*
X176075000Y-87791666D01*
X176108333Y-87808333D01*
X176125000Y-87825000D01*
X176141666Y-87858333D01*
X176141666Y-87941666D01*
X176125000Y-87975000D01*
X176108333Y-87991666D01*
X176075000Y-88008333D01*
X175991666Y-88008333D01*
X175958333Y-87991666D01*
X175941666Y-87975000D01*
%TO.C,R1*%
X207328333Y-80858333D02*
X207161666Y-80975000D01*
X207328333Y-81058333D02*
X206978333Y-81058333D01*
X206978333Y-80925000D01*
X206995000Y-80891666D01*
X207011666Y-80875000D01*
X207045000Y-80858333D01*
X207095000Y-80858333D01*
X207128333Y-80875000D01*
X207145000Y-80891666D01*
X207161666Y-80925000D01*
X207161666Y-81058333D01*
X207328333Y-80525000D02*
X207328333Y-80725000D01*
X207328333Y-80625000D02*
X206978333Y-80625000D01*
X207028333Y-80658333D01*
X207061666Y-80691666D01*
X207078333Y-80725000D01*
%TO.C,R22*%
X175470000Y-88618333D02*
X175353333Y-88451666D01*
X175270000Y-88618333D02*
X175270000Y-88268333D01*
X175403333Y-88268333D01*
X175436666Y-88285000D01*
X175453333Y-88301666D01*
X175470000Y-88335000D01*
X175470000Y-88385000D01*
X175453333Y-88418333D01*
X175436666Y-88435000D01*
X175403333Y-88451666D01*
X175270000Y-88451666D01*
X175603333Y-88301666D02*
X175620000Y-88285000D01*
X175653333Y-88268333D01*
X175736666Y-88268333D01*
X175770000Y-88285000D01*
X175786666Y-88301666D01*
X175803333Y-88335000D01*
X175803333Y-88368333D01*
X175786666Y-88418333D01*
X175586666Y-88618333D01*
X175803333Y-88618333D01*
X175936666Y-88301666D02*
X175953333Y-88285000D01*
X175986666Y-88268333D01*
X176070000Y-88268333D01*
X176103333Y-88285000D01*
X176120000Y-88301666D01*
X176136666Y-88335000D01*
X176136666Y-88368333D01*
X176120000Y-88418333D01*
X175920000Y-88618333D01*
X176136666Y-88618333D01*
%TO.C,R20*%
X199158333Y-73675000D02*
X198991666Y-73791666D01*
X199158333Y-73875000D02*
X198808333Y-73875000D01*
X198808333Y-73741666D01*
X198825000Y-73708333D01*
X198841666Y-73691666D01*
X198875000Y-73675000D01*
X198925000Y-73675000D01*
X198958333Y-73691666D01*
X198975000Y-73708333D01*
X198991666Y-73741666D01*
X198991666Y-73875000D01*
X198841666Y-73541666D02*
X198825000Y-73525000D01*
X198808333Y-73491666D01*
X198808333Y-73408333D01*
X198825000Y-73375000D01*
X198841666Y-73358333D01*
X198875000Y-73341666D01*
X198908333Y-73341666D01*
X198958333Y-73358333D01*
X199158333Y-73558333D01*
X199158333Y-73341666D01*
X198808333Y-73125000D02*
X198808333Y-73091666D01*
X198825000Y-73058333D01*
X198841666Y-73041666D01*
X198875000Y-73025000D01*
X198941666Y-73008333D01*
X199025000Y-73008333D01*
X199091666Y-73025000D01*
X199125000Y-73041666D01*
X199141666Y-73058333D01*
X199158333Y-73091666D01*
X199158333Y-73125000D01*
X199141666Y-73158333D01*
X199125000Y-73175000D01*
X199091666Y-73191666D01*
X199025000Y-73208333D01*
X198941666Y-73208333D01*
X198875000Y-73191666D01*
X198841666Y-73175000D01*
X198825000Y-73158333D01*
X198808333Y-73125000D01*
%TO.C,C2*%
X175065000Y-84378333D02*
X175081666Y-84395000D01*
X175098333Y-84445000D01*
X175098333Y-84478333D01*
X175081666Y-84528333D01*
X175048333Y-84561666D01*
X175015000Y-84578333D01*
X174948333Y-84595000D01*
X174898333Y-84595000D01*
X174831666Y-84578333D01*
X174798333Y-84561666D01*
X174765000Y-84528333D01*
X174748333Y-84478333D01*
X174748333Y-84445000D01*
X174765000Y-84395000D01*
X174781666Y-84378333D01*
X174781666Y-84245000D02*
X174765000Y-84228333D01*
X174748333Y-84195000D01*
X174748333Y-84111666D01*
X174765000Y-84078333D01*
X174781666Y-84061666D01*
X174815000Y-84045000D01*
X174848333Y-84045000D01*
X174898333Y-84061666D01*
X175098333Y-84261666D01*
X175098333Y-84045000D01*
D10*
%TO.C,R12*%
X189300000Y-70308333D02*
X189183333Y-70141666D01*
X189100000Y-70308333D02*
X189100000Y-69958333D01*
X189233333Y-69958333D01*
X189266666Y-69975000D01*
X189283333Y-69991666D01*
X189300000Y-70025000D01*
X189300000Y-70075000D01*
X189283333Y-70108333D01*
X189266666Y-70125000D01*
X189233333Y-70141666D01*
X189100000Y-70141666D01*
X189633333Y-70308333D02*
X189433333Y-70308333D01*
X189533333Y-70308333D02*
X189533333Y-69958333D01*
X189500000Y-70008333D01*
X189466666Y-70041666D01*
X189433333Y-70058333D01*
X189766666Y-69991666D02*
X189783333Y-69975000D01*
X189816666Y-69958333D01*
X189900000Y-69958333D01*
X189933333Y-69975000D01*
X189950000Y-69991666D01*
X189966666Y-70025000D01*
X189966666Y-70058333D01*
X189950000Y-70108333D01*
X189750000Y-70308333D01*
X189966666Y-70308333D01*
D12*
%TO.C,C5*%
X188061666Y-92745000D02*
X188045000Y-92761666D01*
X187995000Y-92778333D01*
X187961666Y-92778333D01*
X187911666Y-92761666D01*
X187878333Y-92728333D01*
X187861666Y-92695000D01*
X187845000Y-92628333D01*
X187845000Y-92578333D01*
X187861666Y-92511666D01*
X187878333Y-92478333D01*
X187911666Y-92445000D01*
X187961666Y-92428333D01*
X187995000Y-92428333D01*
X188045000Y-92445000D01*
X188061666Y-92461666D01*
X188378333Y-92428333D02*
X188211666Y-92428333D01*
X188195000Y-92595000D01*
X188211666Y-92578333D01*
X188245000Y-92561666D01*
X188328333Y-92561666D01*
X188361666Y-92578333D01*
X188378333Y-92595000D01*
X188395000Y-92628333D01*
X188395000Y-92711666D01*
X188378333Y-92745000D01*
X188361666Y-92761666D01*
X188328333Y-92778333D01*
X188245000Y-92778333D01*
X188211666Y-92761666D01*
X188195000Y-92745000D01*
%TO.C,C26*%
X202475000Y-93075000D02*
X202458333Y-93091666D01*
X202408333Y-93108333D01*
X202375000Y-93108333D01*
X202325000Y-93091666D01*
X202291666Y-93058333D01*
X202275000Y-93025000D01*
X202258333Y-92958333D01*
X202258333Y-92908333D01*
X202275000Y-92841666D01*
X202291666Y-92808333D01*
X202325000Y-92775000D01*
X202375000Y-92758333D01*
X202408333Y-92758333D01*
X202458333Y-92775000D01*
X202475000Y-92791666D01*
X202608333Y-92791666D02*
X202625000Y-92775000D01*
X202658333Y-92758333D01*
X202741666Y-92758333D01*
X202775000Y-92775000D01*
X202791666Y-92791666D01*
X202808333Y-92825000D01*
X202808333Y-92858333D01*
X202791666Y-92908333D01*
X202591666Y-93108333D01*
X202808333Y-93108333D01*
X203108333Y-92758333D02*
X203041666Y-92758333D01*
X203008333Y-92775000D01*
X202991666Y-92791666D01*
X202958333Y-92841666D01*
X202941666Y-92908333D01*
X202941666Y-93041666D01*
X202958333Y-93075000D01*
X202975000Y-93091666D01*
X203008333Y-93108333D01*
X203075000Y-93108333D01*
X203108333Y-93091666D01*
X203125000Y-93075000D01*
X203141666Y-93041666D01*
X203141666Y-92958333D01*
X203125000Y-92925000D01*
X203108333Y-92908333D01*
X203075000Y-92891666D01*
X203008333Y-92891666D01*
X202975000Y-92908333D01*
X202958333Y-92925000D01*
X202941666Y-92958333D01*
%TO.C,C4*%
X181500000Y-62383333D02*
X181516666Y-62400000D01*
X181533333Y-62450000D01*
X181533333Y-62483333D01*
X181516666Y-62533333D01*
X181483333Y-62566666D01*
X181450000Y-62583333D01*
X181383333Y-62600000D01*
X181333333Y-62600000D01*
X181266666Y-62583333D01*
X181233333Y-62566666D01*
X181200000Y-62533333D01*
X181183333Y-62483333D01*
X181183333Y-62450000D01*
X181200000Y-62400000D01*
X181216666Y-62383333D01*
X181300000Y-62083333D02*
X181533333Y-62083333D01*
X181166666Y-62166666D02*
X181416666Y-62250000D01*
X181416666Y-62033333D01*
%TO.C,C33*%
X208545000Y-102985000D02*
X208528333Y-103001666D01*
X208478333Y-103018333D01*
X208445000Y-103018333D01*
X208395000Y-103001666D01*
X208361666Y-102968333D01*
X208345000Y-102935000D01*
X208328333Y-102868333D01*
X208328333Y-102818333D01*
X208345000Y-102751666D01*
X208361666Y-102718333D01*
X208395000Y-102685000D01*
X208445000Y-102668333D01*
X208478333Y-102668333D01*
X208528333Y-102685000D01*
X208545000Y-102701666D01*
X208661666Y-102668333D02*
X208878333Y-102668333D01*
X208761666Y-102801666D01*
X208811666Y-102801666D01*
X208845000Y-102818333D01*
X208861666Y-102835000D01*
X208878333Y-102868333D01*
X208878333Y-102951666D01*
X208861666Y-102985000D01*
X208845000Y-103001666D01*
X208811666Y-103018333D01*
X208711666Y-103018333D01*
X208678333Y-103001666D01*
X208661666Y-102985000D01*
X208995000Y-102668333D02*
X209211666Y-102668333D01*
X209095000Y-102801666D01*
X209145000Y-102801666D01*
X209178333Y-102818333D01*
X209195000Y-102835000D01*
X209211666Y-102868333D01*
X209211666Y-102951666D01*
X209195000Y-102985000D01*
X209178333Y-103001666D01*
X209145000Y-103018333D01*
X209045000Y-103018333D01*
X209011666Y-103001666D01*
X208995000Y-102985000D01*
%TO.C,R10*%
X196098333Y-92095000D02*
X195931666Y-92211666D01*
X196098333Y-92295000D02*
X195748333Y-92295000D01*
X195748333Y-92161666D01*
X195765000Y-92128333D01*
X195781666Y-92111666D01*
X195815000Y-92095000D01*
X195865000Y-92095000D01*
X195898333Y-92111666D01*
X195915000Y-92128333D01*
X195931666Y-92161666D01*
X195931666Y-92295000D01*
X196098333Y-91761666D02*
X196098333Y-91961666D01*
X196098333Y-91861666D02*
X195748333Y-91861666D01*
X195798333Y-91895000D01*
X195831666Y-91928333D01*
X195848333Y-91961666D01*
X195748333Y-91545000D02*
X195748333Y-91511666D01*
X195765000Y-91478333D01*
X195781666Y-91461666D01*
X195815000Y-91445000D01*
X195881666Y-91428333D01*
X195965000Y-91428333D01*
X196031666Y-91445000D01*
X196065000Y-91461666D01*
X196081666Y-91478333D01*
X196098333Y-91511666D01*
X196098333Y-91545000D01*
X196081666Y-91578333D01*
X196065000Y-91595000D01*
X196031666Y-91611666D01*
X195965000Y-91628333D01*
X195881666Y-91628333D01*
X195815000Y-91611666D01*
X195781666Y-91595000D01*
X195765000Y-91578333D01*
X195748333Y-91545000D01*
%TO.C,R14*%
X190975000Y-85228333D02*
X190858333Y-85061666D01*
X190775000Y-85228333D02*
X190775000Y-84878333D01*
X190908333Y-84878333D01*
X190941666Y-84895000D01*
X190958333Y-84911666D01*
X190975000Y-84945000D01*
X190975000Y-84995000D01*
X190958333Y-85028333D01*
X190941666Y-85045000D01*
X190908333Y-85061666D01*
X190775000Y-85061666D01*
X191308333Y-85228333D02*
X191108333Y-85228333D01*
X191208333Y-85228333D02*
X191208333Y-84878333D01*
X191175000Y-84928333D01*
X191141666Y-84961666D01*
X191108333Y-84978333D01*
X191608333Y-84995000D02*
X191608333Y-85228333D01*
X191525000Y-84861666D02*
X191441666Y-85111666D01*
X191658333Y-85111666D01*
%TO.C,R3*%
X180908333Y-77108333D02*
X180741666Y-77225000D01*
X180908333Y-77308333D02*
X180558333Y-77308333D01*
X180558333Y-77175000D01*
X180575000Y-77141666D01*
X180591666Y-77125000D01*
X180625000Y-77108333D01*
X180675000Y-77108333D01*
X180708333Y-77125000D01*
X180725000Y-77141666D01*
X180741666Y-77175000D01*
X180741666Y-77308333D01*
X180558333Y-76991666D02*
X180558333Y-76775000D01*
X180691666Y-76891666D01*
X180691666Y-76841666D01*
X180708333Y-76808333D01*
X180725000Y-76791666D01*
X180758333Y-76775000D01*
X180841666Y-76775000D01*
X180875000Y-76791666D01*
X180891666Y-76808333D01*
X180908333Y-76841666D01*
X180908333Y-76941666D01*
X180891666Y-76975000D01*
X180875000Y-76991666D01*
%TO.C,R6*%
X182958333Y-69533333D02*
X182791666Y-69650000D01*
X182958333Y-69733333D02*
X182608333Y-69733333D01*
X182608333Y-69600000D01*
X182625000Y-69566666D01*
X182641666Y-69550000D01*
X182675000Y-69533333D01*
X182725000Y-69533333D01*
X182758333Y-69550000D01*
X182775000Y-69566666D01*
X182791666Y-69600000D01*
X182791666Y-69733333D01*
X182608333Y-69233333D02*
X182608333Y-69300000D01*
X182625000Y-69333333D01*
X182641666Y-69350000D01*
X182691666Y-69383333D01*
X182758333Y-69400000D01*
X182891666Y-69400000D01*
X182925000Y-69383333D01*
X182941666Y-69366666D01*
X182958333Y-69333333D01*
X182958333Y-69266666D01*
X182941666Y-69233333D01*
X182925000Y-69216666D01*
X182891666Y-69200000D01*
X182808333Y-69200000D01*
X182775000Y-69216666D01*
X182758333Y-69233333D01*
X182741666Y-69266666D01*
X182741666Y-69333333D01*
X182758333Y-69366666D01*
X182775000Y-69383333D01*
X182808333Y-69400000D01*
%TO.C,U1*%
X213563333Y-81218333D02*
X213563333Y-81501666D01*
X213580000Y-81535000D01*
X213596666Y-81551666D01*
X213630000Y-81568333D01*
X213696666Y-81568333D01*
X213730000Y-81551666D01*
X213746666Y-81535000D01*
X213763333Y-81501666D01*
X213763333Y-81218333D01*
X214113333Y-81568333D02*
X213913333Y-81568333D01*
X214013333Y-81568333D02*
X214013333Y-81218333D01*
X213980000Y-81268333D01*
X213946666Y-81301666D01*
X213913333Y-81318333D01*
D14*
X210884285Y-80920952D02*
X210912857Y-80930476D01*
X210960476Y-80930476D01*
X210979523Y-80920952D01*
X210989047Y-80911428D01*
X210998571Y-80892380D01*
X210998571Y-80873333D01*
X210989047Y-80854285D01*
X210979523Y-80844761D01*
X210960476Y-80835238D01*
X210922380Y-80825714D01*
X210903333Y-80816190D01*
X210893809Y-80806666D01*
X210884285Y-80787619D01*
X210884285Y-80768571D01*
X210893809Y-80749523D01*
X210903333Y-80740000D01*
X210922380Y-80730476D01*
X210970000Y-80730476D01*
X210998571Y-80740000D01*
X211084285Y-80930476D02*
X211084285Y-80730476D01*
X211170000Y-80920952D02*
X211198571Y-80930476D01*
X211246190Y-80930476D01*
X211265238Y-80920952D01*
X211274761Y-80911428D01*
X211284285Y-80892380D01*
X211284285Y-80873333D01*
X211274761Y-80854285D01*
X211265238Y-80844761D01*
X211246190Y-80835238D01*
X211208095Y-80825714D01*
X211189047Y-80816190D01*
X211179523Y-80806666D01*
X211170000Y-80787619D01*
X211170000Y-80768571D01*
X211179523Y-80749523D01*
X211189047Y-80740000D01*
X211208095Y-80730476D01*
X211255714Y-80730476D01*
X211284285Y-80740000D01*
X211455714Y-80797142D02*
X211455714Y-80930476D01*
X211408095Y-80720952D02*
X211360476Y-80863809D01*
X211484285Y-80863809D01*
X211550952Y-80749523D02*
X211560476Y-80740000D01*
X211579523Y-80730476D01*
X211627142Y-80730476D01*
X211646190Y-80740000D01*
X211655714Y-80749523D01*
X211665238Y-80768571D01*
X211665238Y-80787619D01*
X211655714Y-80816190D01*
X211541428Y-80930476D01*
X211665238Y-80930476D01*
X211731904Y-80730476D02*
X211865238Y-80730476D01*
X211779523Y-80930476D01*
X211941428Y-80825714D02*
X212008095Y-80825714D01*
X212036666Y-80930476D02*
X211941428Y-80930476D01*
X211941428Y-80730476D01*
X212036666Y-80730476D01*
X212122380Y-80930476D02*
X212122380Y-80730476D01*
X212170000Y-80730476D01*
X212198571Y-80740000D01*
X212217619Y-80759047D01*
X212227142Y-80778095D01*
X212236666Y-80816190D01*
X212236666Y-80844761D01*
X212227142Y-80882857D01*
X212217619Y-80901904D01*
X212198571Y-80920952D01*
X212170000Y-80930476D01*
X212122380Y-80930476D01*
X212322380Y-80930476D02*
X212322380Y-80730476D01*
X212436666Y-80930476D01*
X212436666Y-80730476D01*
X212531904Y-80854285D02*
X212684285Y-80854285D01*
X212750952Y-80730476D02*
X212865238Y-80730476D01*
X212808095Y-80930476D02*
X212808095Y-80730476D01*
X213036666Y-80930476D02*
X212922380Y-80930476D01*
X212979523Y-80930476D02*
X212979523Y-80730476D01*
X212960476Y-80759047D01*
X212941428Y-80778095D01*
X212922380Y-80787619D01*
X213122380Y-80854285D02*
X213274761Y-80854285D01*
X213474761Y-80740000D02*
X213455714Y-80730476D01*
X213427142Y-80730476D01*
X213398571Y-80740000D01*
X213379523Y-80759047D01*
X213370000Y-80778095D01*
X213360476Y-80816190D01*
X213360476Y-80844761D01*
X213370000Y-80882857D01*
X213379523Y-80901904D01*
X213398571Y-80920952D01*
X213427142Y-80930476D01*
X213446190Y-80930476D01*
X213474761Y-80920952D01*
X213484285Y-80911428D01*
X213484285Y-80844761D01*
X213446190Y-80844761D01*
X213570000Y-80825714D02*
X213636666Y-80825714D01*
X213665238Y-80930476D02*
X213570000Y-80930476D01*
X213570000Y-80730476D01*
X213665238Y-80730476D01*
X213731904Y-80730476D02*
X213855714Y-80730476D01*
X213789047Y-80806666D01*
X213817619Y-80806666D01*
X213836666Y-80816190D01*
X213846190Y-80825714D01*
X213855714Y-80844761D01*
X213855714Y-80892380D01*
X213846190Y-80911428D01*
X213836666Y-80920952D01*
X213817619Y-80930476D01*
X213760476Y-80930476D01*
X213741428Y-80920952D01*
X213731904Y-80911428D01*
D13*
X212310000Y-78842380D02*
X212310000Y-79080476D01*
X212071904Y-78985238D02*
X212310000Y-79080476D01*
X212548095Y-78985238D01*
X212167142Y-79270952D02*
X212310000Y-79080476D01*
X212452857Y-79270952D01*
D12*
%TO.C,Y1*%
X187208333Y-80291666D02*
X187208333Y-80458333D01*
X187091666Y-80108333D02*
X187208333Y-80291666D01*
X187325000Y-80108333D01*
X187625000Y-80458333D02*
X187425000Y-80458333D01*
X187525000Y-80458333D02*
X187525000Y-80108333D01*
X187491666Y-80158333D01*
X187458333Y-80191666D01*
X187425000Y-80208333D01*
D13*
%TO.C,D11*%
X180951428Y-72791428D02*
X180951428Y-72191428D01*
X181094285Y-72191428D01*
X181180000Y-72220000D01*
X181237142Y-72277142D01*
X181265714Y-72334285D01*
X181294285Y-72448571D01*
X181294285Y-72534285D01*
X181265714Y-72648571D01*
X181237142Y-72705714D01*
X181180000Y-72762857D01*
X181094285Y-72791428D01*
X180951428Y-72791428D01*
X181865714Y-72791428D02*
X181522857Y-72791428D01*
X181694285Y-72791428D02*
X181694285Y-72191428D01*
X181637142Y-72277142D01*
X181580000Y-72334285D01*
X181522857Y-72362857D01*
X182437142Y-72791428D02*
X182094285Y-72791428D01*
X182265714Y-72791428D02*
X182265714Y-72191428D01*
X182208571Y-72277142D01*
X182151428Y-72334285D01*
X182094285Y-72362857D01*
D12*
%TO.C,D10*%
X194233333Y-73725000D02*
X193883333Y-73725000D01*
X193883333Y-73641666D01*
X193900000Y-73591666D01*
X193933333Y-73558333D01*
X193966666Y-73541666D01*
X194033333Y-73525000D01*
X194083333Y-73525000D01*
X194150000Y-73541666D01*
X194183333Y-73558333D01*
X194216666Y-73591666D01*
X194233333Y-73641666D01*
X194233333Y-73725000D01*
X194233333Y-73191666D02*
X194233333Y-73391666D01*
X194233333Y-73291666D02*
X193883333Y-73291666D01*
X193933333Y-73325000D01*
X193966666Y-73358333D01*
X193983333Y-73391666D01*
X193883333Y-72975000D02*
X193883333Y-72941666D01*
X193900000Y-72908333D01*
X193916666Y-72891666D01*
X193950000Y-72875000D01*
X194016666Y-72858333D01*
X194100000Y-72858333D01*
X194166666Y-72875000D01*
X194200000Y-72891666D01*
X194216666Y-72908333D01*
X194233333Y-72941666D01*
X194233333Y-72975000D01*
X194216666Y-73008333D01*
X194200000Y-73025000D01*
X194166666Y-73041666D01*
X194100000Y-73058333D01*
X194016666Y-73058333D01*
X193950000Y-73041666D01*
X193916666Y-73025000D01*
X193900000Y-73008333D01*
X193883333Y-72975000D01*
%TO.C,C22*%
X184295000Y-63575000D02*
X184278333Y-63591666D01*
X184228333Y-63608333D01*
X184195000Y-63608333D01*
X184145000Y-63591666D01*
X184111666Y-63558333D01*
X184095000Y-63525000D01*
X184078333Y-63458333D01*
X184078333Y-63408333D01*
X184095000Y-63341666D01*
X184111666Y-63308333D01*
X184145000Y-63275000D01*
X184195000Y-63258333D01*
X184228333Y-63258333D01*
X184278333Y-63275000D01*
X184295000Y-63291666D01*
X184428333Y-63291666D02*
X184445000Y-63275000D01*
X184478333Y-63258333D01*
X184561666Y-63258333D01*
X184595000Y-63275000D01*
X184611666Y-63291666D01*
X184628333Y-63325000D01*
X184628333Y-63358333D01*
X184611666Y-63408333D01*
X184411666Y-63608333D01*
X184628333Y-63608333D01*
X184761666Y-63291666D02*
X184778333Y-63275000D01*
X184811666Y-63258333D01*
X184895000Y-63258333D01*
X184928333Y-63275000D01*
X184945000Y-63291666D01*
X184961666Y-63325000D01*
X184961666Y-63358333D01*
X184945000Y-63408333D01*
X184745000Y-63608333D01*
X184961666Y-63608333D01*
%TO.C,L3*%
X176966666Y-62383333D02*
X176800000Y-62383333D01*
X176800000Y-62033333D01*
X177050000Y-62033333D02*
X177266666Y-62033333D01*
X177150000Y-62166666D01*
X177200000Y-62166666D01*
X177233333Y-62183333D01*
X177250000Y-62200000D01*
X177266666Y-62233333D01*
X177266666Y-62316666D01*
X177250000Y-62350000D01*
X177233333Y-62366666D01*
X177200000Y-62383333D01*
X177100000Y-62383333D01*
X177066666Y-62366666D01*
X177050000Y-62350000D01*
D15*
%TO.C,C8*%
X197727836Y-81260000D02*
X197512164Y-81260000D01*
X197727836Y-80540000D02*
X197512164Y-80540000D01*
%TO.C,C14*%
X181030000Y-79857836D02*
X181030000Y-79642164D01*
X180310000Y-79857836D02*
X180310000Y-79642164D01*
D13*
%TO.C,U12*%
X178525000Y-72425000D02*
X178525000Y-76575000D01*
X178525000Y-72425000D02*
X178325000Y-72425000D01*
X173375000Y-76575000D02*
X173575000Y-76575000D01*
X178525000Y-76575000D02*
X178325000Y-76575000D01*
X173375000Y-72425000D02*
X173575000Y-72425000D01*
X173375000Y-72425000D02*
X173375000Y-76575000D01*
X178325000Y-72425000D02*
X178325000Y-71125000D01*
D14*
%TO.C,D7*%
X207091419Y-86400000D02*
G75*
G03*
X207091419Y-86400000I-141419J0D01*
G01*
X207091419Y-86400000D02*
G75*
G03*
X207091419Y-86400000I-141419J0D01*
G01*
D15*
%TO.C,R23*%
X172845000Y-100371359D02*
X172845000Y-100678641D01*
X173605000Y-100371359D02*
X173605000Y-100678641D01*
%TO.C,R24*%
X178570000Y-100696359D02*
X178570000Y-101003641D01*
X179330000Y-100696359D02*
X179330000Y-101003641D01*
%TO.C,R5*%
X181820000Y-67153641D02*
X181820000Y-66846359D01*
X182580000Y-67153641D02*
X182580000Y-66846359D01*
%TO.C,R26*%
X196830000Y-78503641D02*
X196830000Y-78196359D01*
X196070000Y-78503641D02*
X196070000Y-78196359D01*
%TO.C,R4*%
X185937258Y-71472500D02*
X185462742Y-71472500D01*
X185937258Y-70427500D02*
X185462742Y-70427500D01*
%TO.C,R11*%
X189136359Y-72630000D02*
X189443641Y-72630000D01*
X189136359Y-71870000D02*
X189443641Y-71870000D01*
%TO.C,C7*%
X179861252Y-67135000D02*
X179338748Y-67135000D01*
X179861252Y-65665000D02*
X179338748Y-65665000D01*
%TO.C,R2*%
X182003641Y-78530000D02*
X181696359Y-78530000D01*
X182003641Y-77770000D02*
X181696359Y-77770000D01*
%TO.C,U5*%
X188220584Y-64790000D02*
X188460000Y-64790000D01*
X188220584Y-69910000D02*
X188460000Y-69910000D01*
X184799416Y-69910000D02*
X184560000Y-69910000D01*
X184799416Y-64790000D02*
X183060000Y-64790000D01*
%TO.C,C25*%
X175307836Y-89890000D02*
X175092164Y-89890000D01*
X175307836Y-90610000D02*
X175092164Y-90610000D01*
%TO.C,R16*%
X175046359Y-86720000D02*
X175353641Y-86720000D01*
X175046359Y-87480000D02*
X175353641Y-87480000D01*
%TO.C,C28*%
X216060000Y-98357836D02*
X216060000Y-98142164D01*
X215340000Y-98357836D02*
X215340000Y-98142164D01*
%TO.C,U9*%
X199840000Y-86600000D02*
X199840000Y-86450000D01*
X199840000Y-86600000D02*
X202960000Y-86600000D01*
X202960000Y-86600000D02*
X202960000Y-86450000D01*
X202960000Y-83480000D02*
X202960000Y-83630000D01*
X201400000Y-83480000D02*
X202960000Y-83480000D01*
%TO.C,Q3*%
X201440000Y-79730000D02*
X201440000Y-81760000D01*
X201440000Y-79730000D02*
X202100000Y-79730000D01*
X203760000Y-81140000D02*
X203760000Y-79730000D01*
X203100000Y-79730000D02*
X203760000Y-79730000D01*
D16*
%TO.C,ANT1*%
X212470000Y-104610000D02*
X213070000Y-104610000D01*
X213070000Y-107180000D02*
X213070000Y-107210000D01*
X210470000Y-107210000D02*
X210470000Y-107180000D01*
X213070000Y-107210000D02*
X210470000Y-107210000D01*
X211070000Y-104610000D02*
X210470000Y-104610000D01*
X213070000Y-104610000D02*
X213070000Y-104640000D01*
X210470000Y-104610000D02*
X210470000Y-104640000D01*
D15*
%TO.C,R19*%
X182680000Y-95393641D02*
X182680000Y-95086359D01*
X183440000Y-95393641D02*
X183440000Y-95086359D01*
%TO.C,C23*%
X188140000Y-77972164D02*
X188140000Y-78187836D01*
X187420000Y-77972164D02*
X187420000Y-78187836D01*
%TO.C,R7*%
X183580000Y-71353641D02*
X183580000Y-71046359D01*
X182820000Y-71353641D02*
X182820000Y-71046359D01*
%TO.C,C12*%
X179861252Y-67715000D02*
X179338748Y-67715000D01*
X179861252Y-69185000D02*
X179338748Y-69185000D01*
%TO.C,C27*%
X202567836Y-86970000D02*
X202352164Y-86970000D01*
X202567836Y-87690000D02*
X202352164Y-87690000D01*
%TO.C,C11*%
X190610000Y-83542164D02*
X190610000Y-83757836D01*
X189890000Y-83542164D02*
X189890000Y-83757836D01*
%TO.C,U8*%
X202750000Y-88530000D02*
X202750000Y-88680000D01*
X199630000Y-91650000D02*
X202750000Y-91650000D01*
X201190000Y-88530000D02*
X202750000Y-88530000D01*
X202750000Y-91650000D02*
X202750000Y-91500000D01*
X199630000Y-91650000D02*
X199630000Y-91500000D01*
%TO.C,C20*%
X186365000Y-74761252D02*
X186365000Y-74238748D01*
X187835000Y-74761252D02*
X187835000Y-74238748D01*
%TO.C,C29*%
X211015000Y-98617164D02*
X211015000Y-98832836D01*
X211735000Y-98617164D02*
X211735000Y-98832836D01*
%TO.C,P1*%
X208000000Y-92690000D02*
X208000000Y-91190000D01*
X208000000Y-84690000D02*
X208000000Y-83190000D01*
X208000000Y-83190000D02*
X213770000Y-83190000D01*
X216370000Y-92540000D02*
X216370000Y-83340000D01*
X208000000Y-92690000D02*
X213770000Y-92690000D01*
%TO.C,C3*%
X180785000Y-71461252D02*
X180785000Y-70938748D01*
X179315000Y-71461252D02*
X179315000Y-70938748D01*
%TO.C,C24*%
X181990000Y-79757836D02*
X181990000Y-79542164D01*
X182710000Y-79757836D02*
X182710000Y-79542164D01*
%TO.C,R18*%
X181370000Y-95373641D02*
X181370000Y-95066359D01*
X182130000Y-95373641D02*
X182130000Y-95066359D01*
%TO.C,L2*%
X192040000Y-61670000D02*
X193440000Y-61670000D01*
X193440000Y-72070000D02*
X190640000Y-72070000D01*
X201040000Y-61670000D02*
X201040000Y-72070000D01*
X201040000Y-72070000D02*
X198240000Y-72070000D01*
X198240000Y-61670000D02*
X201040000Y-61670000D01*
X190640000Y-63070000D02*
X192040000Y-61670000D01*
X190640000Y-72070000D02*
X190640000Y-63070000D01*
%TO.C,C21*%
X192515000Y-74711252D02*
X192515000Y-74188748D01*
X193985000Y-74711252D02*
X193985000Y-74188748D01*
%TO.C,C30*%
X198160000Y-90022164D02*
X198160000Y-90237836D01*
X198880000Y-90022164D02*
X198880000Y-90237836D01*
D14*
%TO.C,D9*%
X212741419Y-93950000D02*
G75*
G03*
X212741419Y-93950000I-141419J0D01*
G01*
X212741419Y-93950000D02*
G75*
G03*
X212741419Y-93950000I-141419J0D01*
G01*
D15*
%TO.C,J1*%
X174655000Y-82810000D02*
X174655000Y-81810000D01*
X176045000Y-82810000D02*
X176045000Y-82810000D01*
X174655000Y-80690000D02*
X174655000Y-79810000D01*
X176045000Y-79690000D02*
X176045000Y-78690000D01*
X174655000Y-78690000D02*
X174655000Y-78690000D01*
X176045000Y-81690000D02*
X176045000Y-80810000D01*
X176045000Y-82810000D02*
X177040000Y-82810000D01*
X176045000Y-82810000D02*
X174655000Y-82810000D01*
X176045000Y-78690000D02*
X174655000Y-78690000D01*
%TO.C,U2*%
X190410000Y-105200000D02*
X190410000Y-103800000D01*
X188090000Y-103800000D02*
X188090000Y-105700000D01*
%TO.C,C32*%
X213652164Y-102660000D02*
X213867836Y-102660000D01*
X213652164Y-101940000D02*
X213867836Y-101940000D01*
%TO.C,C19*%
X190465000Y-74761252D02*
X190465000Y-74238748D01*
X191935000Y-74761252D02*
X191935000Y-74238748D01*
D14*
%TO.C,D5*%
X177341419Y-97450000D02*
G75*
G03*
X177341419Y-97450000I-141419J0D01*
G01*
X177341419Y-97450000D02*
G75*
G03*
X177341419Y-97450000I-141419J0D01*
G01*
D15*
%TO.C,L1*%
X193320000Y-91147221D02*
X193320000Y-91472779D01*
X192300000Y-91147221D02*
X192300000Y-91472779D01*
%TO.C,R17*%
X180960000Y-95383641D02*
X180960000Y-95076359D01*
X180200000Y-95383641D02*
X180200000Y-95076359D01*
%TO.C,C6*%
X179861252Y-63615000D02*
X179338748Y-63615000D01*
X179861252Y-65085000D02*
X179338748Y-65085000D01*
D14*
%TO.C,D6*%
X206941419Y-92450000D02*
G75*
G03*
X206941419Y-92450000I-141419J0D01*
G01*
X206941419Y-92450000D02*
G75*
G03*
X206941419Y-92450000I-141419J0D01*
G01*
D15*
%TO.C,U6*%
X200700000Y-76620000D02*
X200225000Y-76620000D01*
X200700000Y-79365000D02*
X200700000Y-79840000D01*
X197480000Y-77095000D02*
X197480000Y-76620000D01*
X200700000Y-79840000D02*
X200225000Y-79840000D01*
X197480000Y-79365000D02*
X197480000Y-79840000D01*
X200700000Y-77095000D02*
X200700000Y-76620000D01*
X197480000Y-76620000D02*
X197955000Y-76620000D01*
%TO.C,D4*%
X179460000Y-99500000D02*
X184060000Y-99500000D01*
X179260000Y-97290000D02*
X179260000Y-96480000D01*
X179260000Y-96480000D02*
X184060000Y-96480000D01*
%TO.C,C13*%
X190010000Y-62959420D02*
X190010000Y-63240580D01*
X188990000Y-62959420D02*
X188990000Y-63240580D01*
%TO.C,R21*%
X201080000Y-73956359D02*
X201080000Y-74263641D01*
X200320000Y-73956359D02*
X200320000Y-74263641D01*
%TO.C,R27*%
X201370000Y-77196359D02*
X201370000Y-77503641D01*
X202130000Y-77196359D02*
X202130000Y-77503641D01*
%TO.C,C15*%
X193740000Y-91792164D02*
X193740000Y-92007836D01*
X194460000Y-91792164D02*
X194460000Y-92007836D01*
%TO.C,J2*%
X203200000Y-77000000D02*
X203200000Y-74690000D01*
X203200000Y-63680000D02*
X205270000Y-63680000D01*
X216900000Y-77000000D02*
X216900000Y-77770000D01*
X217420000Y-62910000D02*
X216900000Y-62910000D01*
X208790000Y-63680000D02*
X216900000Y-63680000D01*
X203200000Y-77000000D02*
X205270000Y-77000000D01*
X201910000Y-74690000D02*
X203200000Y-74690000D01*
X203200000Y-65990000D02*
X203200000Y-63680000D01*
X217420000Y-77770000D02*
X217420000Y-62910000D01*
X216900000Y-62910000D02*
X216900000Y-63680000D01*
X216900000Y-77000000D02*
X208790000Y-77000000D01*
X203210000Y-73010000D02*
X203210000Y-72190000D01*
X203210000Y-70510000D02*
X203210000Y-70170000D01*
X203210000Y-68490000D02*
X203210000Y-67670000D01*
X216900000Y-77770000D02*
X217420000Y-77770000D01*
%TO.C,C9*%
X207550000Y-105654420D02*
X207550000Y-105935580D01*
X208570000Y-105654420D02*
X208570000Y-105935580D01*
D14*
%TO.C,D8*%
X216521419Y-93950000D02*
G75*
G03*
X216521419Y-93950000I-141419J0D01*
G01*
X216521419Y-93950000D02*
G75*
G03*
X216521419Y-93950000I-141419J0D01*
G01*
D15*
%TO.C,C10*%
X187682836Y-62265000D02*
X187467164Y-62265000D01*
X187682836Y-62985000D02*
X187467164Y-62985000D01*
%TO.C,U7*%
X188060000Y-82380000D02*
X187110000Y-82380000D01*
X188060000Y-92600000D02*
X187110000Y-92600000D01*
X177840000Y-92600000D02*
X178790000Y-92600000D01*
X177840000Y-82380000D02*
X178790000Y-82380000D01*
X177840000Y-91650000D02*
X177840000Y-92600000D01*
X188060000Y-83330000D02*
X188060000Y-82380000D01*
X177840000Y-83330000D02*
X177840000Y-82380000D01*
X188060000Y-91650000D02*
X188060000Y-92600000D01*
X187110000Y-82380000D02*
X187110000Y-81040000D01*
%TO.C,C1*%
X176757836Y-92560000D02*
X176542164Y-92560000D01*
X176757836Y-91840000D02*
X176542164Y-91840000D01*
%TO.C,U4*%
X191290000Y-106360000D02*
X190850000Y-106360000D01*
X207060000Y-93940000D02*
X207060000Y-106360000D01*
X191290000Y-93940000D02*
X190840000Y-93940000D01*
X190840000Y-93940000D02*
X190840000Y-106360000D01*
X207060000Y-106360000D02*
X206610000Y-106360000D01*
X207060000Y-93940000D02*
X206610000Y-93940000D01*
X206610000Y-93250000D02*
X206610000Y-93940000D01*
X198690000Y-106360000D02*
X197010000Y-106360000D01*
X198690000Y-93940000D02*
X197010000Y-93940000D01*
%TO.C,C31*%
X199070000Y-84902164D02*
X199070000Y-85117836D01*
X198350000Y-84902164D02*
X198350000Y-85117836D01*
%TO.C,R8*%
X187446359Y-63320000D02*
X187753641Y-63320000D01*
X187446359Y-64080000D02*
X187753641Y-64080000D01*
%TO.C,D2*%
X204140000Y-79130000D02*
X204140000Y-81680000D01*
X205840000Y-79130000D02*
X205840000Y-81680000D01*
X205840000Y-79130000D02*
X204140000Y-79130000D01*
%TO.C,U10*%
X212155000Y-99568000D02*
X212155000Y-98008000D01*
X215275000Y-101128000D02*
X215125000Y-101128000D01*
X212155000Y-98008000D02*
X212305000Y-98008000D01*
X215275000Y-98008000D02*
X215125000Y-98008000D01*
X215275000Y-101128000D02*
X215275000Y-98008000D01*
%TO.C,C18*%
X188415000Y-74761252D02*
X188415000Y-74238748D01*
X189885000Y-74761252D02*
X189885000Y-74238748D01*
%TO.C,C16*%
X171265000Y-72238748D02*
X171265000Y-72761252D01*
X172735000Y-72238748D02*
X172735000Y-72761252D01*
%TO.C,R13*%
X204153641Y-77620000D02*
X203846359Y-77620000D01*
X204153641Y-78380000D02*
X203846359Y-78380000D01*
%TO.C,U11*%
X210610000Y-97980000D02*
X210460000Y-97980000D01*
X207490000Y-99540000D02*
X207490000Y-97980000D01*
X210610000Y-101100000D02*
X210460000Y-101100000D01*
X210610000Y-101100000D02*
X210610000Y-97980000D01*
X207490000Y-97980000D02*
X207640000Y-97980000D01*
%TO.C,R15*%
X175353641Y-85700000D02*
X175046359Y-85700000D01*
X175353641Y-86460000D02*
X175046359Y-86460000D01*
%TO.C,R1*%
X206120000Y-81146359D02*
X206120000Y-81453641D01*
X206880000Y-81146359D02*
X206880000Y-81453641D01*
%TO.C,R22*%
X175328641Y-88820000D02*
X175021359Y-88820000D01*
X175328641Y-89580000D02*
X175021359Y-89580000D01*
%TO.C,R20*%
X199220000Y-74253641D02*
X199220000Y-73946359D01*
X199980000Y-74253641D02*
X199980000Y-73946359D01*
%TO.C,C2*%
X175290000Y-84407836D02*
X175290000Y-84192164D01*
X176010000Y-84407836D02*
X176010000Y-84192164D01*
%TO.C,R12*%
X188987258Y-71472500D02*
X188512742Y-71472500D01*
X188987258Y-70427500D02*
X188512742Y-70427500D01*
%TO.C,C5*%
X187992164Y-93660000D02*
X188207836Y-93660000D01*
X187992164Y-92940000D02*
X188207836Y-92940000D01*
%TO.C,C26*%
X202147836Y-92740000D02*
X201932164Y-92740000D01*
X202147836Y-92020000D02*
X201932164Y-92020000D01*
%TO.C,C4*%
X179861252Y-61565000D02*
X179338748Y-61565000D01*
X179861252Y-63035000D02*
X179338748Y-63035000D01*
%TO.C,C33*%
X208692164Y-101740000D02*
X208907836Y-101740000D01*
X208692164Y-102460000D02*
X208907836Y-102460000D01*
%TO.C,R10*%
X194820000Y-92053641D02*
X194820000Y-91746359D01*
X195580000Y-92053641D02*
X195580000Y-91746359D01*
%TO.C,R14*%
X191096359Y-85470000D02*
X191403641Y-85470000D01*
X191096359Y-86230000D02*
X191403641Y-86230000D01*
%TO.C,R3*%
X181696359Y-76720000D02*
X182003641Y-76720000D01*
X181696359Y-77480000D02*
X182003641Y-77480000D01*
%TO.C,R6*%
X181820000Y-69103641D02*
X181820000Y-68796359D01*
X182580000Y-69103641D02*
X182580000Y-68796359D01*
%TO.C,U1*%
X214011800Y-77879081D02*
X214011800Y-77688200D01*
X210608200Y-77688200D02*
X210608200Y-77879081D01*
X214011800Y-77688200D02*
X210608200Y-77688200D01*
X214011800Y-81091800D02*
X214011800Y-80900919D01*
X210608200Y-81091800D02*
X214011800Y-81091800D01*
X210608200Y-80900919D02*
X210608200Y-81091800D01*
X209864107Y-78415021D02*
G75*
G03*
X209864107Y-78415021I-127000J0D01*
G01*
%TO.C,Y1*%
X183000000Y-77100000D02*
X183000000Y-80400000D01*
X183000000Y-80400000D02*
X187000000Y-80400000D01*
%TO.C,D11*%
X178950000Y-73100000D02*
X184350000Y-73100000D01*
X178950000Y-76400000D02*
X184350000Y-76400000D01*
X178950000Y-73100000D02*
X178950000Y-76400000D01*
%TO.C,D10*%
X194400000Y-72900000D02*
X198250000Y-72900000D01*
X194400000Y-74900000D02*
X198250000Y-74900000D01*
X194400000Y-72900000D02*
X194400000Y-74900000D01*
%TO.C,C22*%
X184607836Y-63740000D02*
X184392164Y-63740000D01*
X184607836Y-64460000D02*
X184392164Y-64460000D01*
%TO.C,L3*%
X176400000Y-62600000D02*
X177600000Y-62600000D01*
X177600000Y-62600000D02*
X177600000Y-69600000D01*
X172400000Y-69600000D02*
X171200000Y-69600000D01*
X171200000Y-69600000D02*
X171200000Y-62600000D01*
X177600000Y-69600000D02*
X176400000Y-69600000D01*
X171200000Y-62600000D02*
X172400000Y-62600000D01*
%TD*%
%LPC*%
%TO.C,U1*%
G36*
X213501489Y-80507600D02*
G01*
X211774289Y-80507600D01*
X211774289Y-78272400D01*
X213501489Y-78272400D01*
X213501489Y-80507600D01*
G37*
D11*
X213501489Y-80507600D02*
X211774289Y-80507600D01*
X211774289Y-78272400D01*
X213501489Y-78272400D01*
X213501489Y-80507600D01*
G36*
X213501489Y-80507600D02*
G01*
X211774289Y-80507600D01*
X211774289Y-78272400D01*
X213501489Y-78272400D01*
X213501489Y-80507600D01*
G37*
X213501489Y-80507600D02*
X211774289Y-80507600D01*
X211774289Y-78272400D01*
X213501489Y-78272400D01*
X213501489Y-80507600D01*
%TD*%
D17*
%TO.C,C8*%
X198100000Y-80900000D03*
X197140000Y-80900000D03*
%TD*%
D18*
%TO.C,C14*%
X180670000Y-80230000D03*
X180670000Y-79270000D03*
%TD*%
D19*
%TO.C,U12*%
X177855000Y-71800000D03*
X176585000Y-71800000D03*
X175315000Y-71800000D03*
X174045000Y-71800000D03*
X174045000Y-77200000D03*
X175315000Y-77200000D03*
X176585000Y-77200000D03*
X177855000Y-77200000D03*
D20*
X176850000Y-73825000D03*
X175050000Y-73825000D03*
X175050000Y-75175000D03*
X176850000Y-75175000D03*
%TD*%
D21*
%TO.C,D7*%
X206700000Y-85750000D03*
X206700000Y-83850000D03*
X204400000Y-84800000D03*
%TD*%
D22*
%TO.C,R23*%
X173225000Y-100015000D03*
X173225000Y-101035000D03*
%TD*%
%TO.C,R24*%
X178950000Y-100340000D03*
X178950000Y-101360000D03*
%TD*%
D23*
%TO.C,R5*%
X182200000Y-67510000D03*
X182200000Y-66490000D03*
%TD*%
%TO.C,R26*%
X196450000Y-78860000D03*
X196450000Y-77840000D03*
%TD*%
D24*
%TO.C,R4*%
X186525000Y-70950000D03*
X184875000Y-70950000D03*
%TD*%
D25*
%TO.C,R11*%
X188780000Y-72250000D03*
X189800000Y-72250000D03*
%TD*%
D26*
%TO.C,C7*%
X180550000Y-66400000D03*
X178650000Y-66400000D03*
%TD*%
D27*
%TO.C,R2*%
X182360000Y-78150000D03*
X181340000Y-78150000D03*
%TD*%
D28*
%TO.C,U5*%
X186510000Y-67350000D03*
D29*
X183947500Y-65445000D03*
X183947500Y-66715000D03*
X183947500Y-67985000D03*
X183947500Y-69255000D03*
X189072500Y-69255000D03*
X189072500Y-67985000D03*
X189072500Y-66715000D03*
X189072500Y-65445000D03*
%TD*%
D17*
%TO.C,C25*%
X175680000Y-90250000D03*
X174720000Y-90250000D03*
%TD*%
D25*
%TO.C,R16*%
X174690000Y-87100000D03*
X175710000Y-87100000D03*
%TD*%
D18*
%TO.C,C28*%
X215700000Y-98730000D03*
X215700000Y-97770000D03*
%TD*%
D30*
%TO.C,U9*%
X199850000Y-84065000D03*
X199850000Y-84715000D03*
X199850000Y-85365000D03*
X199850000Y-86015000D03*
X202950000Y-86015000D03*
X202950000Y-85365000D03*
X202950000Y-84715000D03*
X202950000Y-84065000D03*
D31*
X201400000Y-85040000D03*
%TD*%
D32*
%TO.C,Q3*%
X201950000Y-81460000D03*
X203250000Y-81460000D03*
X202600000Y-79460000D03*
%TD*%
D33*
%TO.C,ANT1*%
X213245000Y-105910000D03*
X210295000Y-105910000D03*
D34*
X211770000Y-104385000D03*
%TD*%
D23*
%TO.C,R19*%
X183060000Y-95750000D03*
X183060000Y-94730000D03*
%TD*%
D35*
%TO.C,C23*%
X187780000Y-77600000D03*
X187780000Y-78560000D03*
%TD*%
D23*
%TO.C,R7*%
X183200000Y-71710000D03*
X183200000Y-70690000D03*
%TD*%
D26*
%TO.C,C12*%
X180550000Y-68450000D03*
X178650000Y-68450000D03*
%TD*%
D17*
%TO.C,C27*%
X202940000Y-87330000D03*
X201980000Y-87330000D03*
%TD*%
D35*
%TO.C,C11*%
X190250000Y-83170000D03*
X190250000Y-84130000D03*
%TD*%
D30*
%TO.C,U8*%
X199640000Y-89115000D03*
X199640000Y-89765000D03*
X199640000Y-90415000D03*
X199640000Y-91065000D03*
X202740000Y-91065000D03*
X202740000Y-90415000D03*
X202740000Y-89765000D03*
X202740000Y-89115000D03*
D31*
X201190000Y-90090000D03*
%TD*%
D36*
%TO.C,C20*%
X187100000Y-75450000D03*
X187100000Y-73550000D03*
%TD*%
D35*
%TO.C,C29*%
X211375000Y-98245000D03*
X211375000Y-99205000D03*
%TD*%
D37*
%TO.C,P1*%
X209010000Y-84340000D03*
D38*
X209010000Y-91540000D03*
D39*
X214770000Y-83450000D03*
D40*
X210260000Y-83810000D03*
X210260000Y-92070000D03*
D39*
X214770000Y-92430000D03*
D41*
X208300000Y-90690000D03*
X208300000Y-90190000D03*
X208300000Y-89690000D03*
X208300000Y-89190000D03*
X208300000Y-88690000D03*
X208300000Y-88190000D03*
X208300000Y-87690000D03*
X208300000Y-87190000D03*
X208300000Y-86690000D03*
X208300000Y-86190000D03*
X208300000Y-85690000D03*
X208300000Y-85190000D03*
D38*
X209660000Y-85140000D03*
X210360000Y-85540000D03*
X210360000Y-86340000D03*
X209660000Y-86740000D03*
X210360000Y-87140000D03*
X209660000Y-87540000D03*
X209660000Y-88340000D03*
X210360000Y-88740000D03*
X209660000Y-89140000D03*
X210360000Y-89540000D03*
X210360000Y-90340000D03*
X209660000Y-90740000D03*
%TD*%
D36*
%TO.C,C3*%
X180050000Y-72150000D03*
X180050000Y-70250000D03*
%TD*%
D18*
%TO.C,C24*%
X182350000Y-80130000D03*
X182350000Y-79170000D03*
%TD*%
D23*
%TO.C,R18*%
X181750000Y-95730000D03*
X181750000Y-94710000D03*
%TD*%
D42*
%TO.C,L2*%
X195840000Y-62770000D03*
X195840000Y-70970000D03*
%TD*%
D36*
%TO.C,C21*%
X193250000Y-75400000D03*
X193250000Y-73500000D03*
%TD*%
D35*
%TO.C,C30*%
X198520000Y-89650000D03*
X198520000Y-90610000D03*
%TD*%
D43*
%TO.C,D9*%
X211950000Y-94200000D03*
X210050000Y-94200000D03*
X211000000Y-96500000D03*
%TD*%
D44*
%TO.C,J1*%
X176225000Y-82250000D03*
X174475000Y-81250000D03*
X176225000Y-80250000D03*
X174475000Y-79250000D03*
%TD*%
D45*
%TO.C,Q1*%
X173536000Y-103566000D03*
X175314000Y-103566000D03*
X174425000Y-101549240D03*
%TD*%
D46*
%TO.C,U2*%
X188600000Y-105450000D03*
X189250000Y-105450000D03*
X189900000Y-105450000D03*
X189900000Y-103550000D03*
X189250000Y-103550000D03*
X188600000Y-103550000D03*
%TD*%
D47*
%TO.C,C32*%
X213280000Y-102300000D03*
X214240000Y-102300000D03*
%TD*%
D36*
%TO.C,C19*%
X191200000Y-75450000D03*
X191200000Y-73550000D03*
%TD*%
D43*
%TO.C,D5*%
X176550000Y-97700000D03*
X174650000Y-97700000D03*
X175600000Y-100000000D03*
%TD*%
D48*
%TO.C,L1*%
X192810000Y-90522500D03*
X192810000Y-92097500D03*
%TD*%
D23*
%TO.C,R17*%
X180580000Y-95740000D03*
X180580000Y-94720000D03*
%TD*%
D26*
%TO.C,C6*%
X180550000Y-64350000D03*
X178650000Y-64350000D03*
%TD*%
D21*
%TO.C,D6*%
X206550000Y-91800000D03*
X206550000Y-89900000D03*
X204250000Y-90850000D03*
%TD*%
D49*
%TO.C,U6*%
X198340000Y-79705000D03*
X198840000Y-79705000D03*
X199340000Y-79705000D03*
X199840000Y-79705000D03*
D50*
X200565000Y-78980000D03*
X200565000Y-78480000D03*
X200565000Y-77980000D03*
X200565000Y-77480000D03*
D49*
X199840000Y-76755000D03*
X199340000Y-76755000D03*
X198840000Y-76755000D03*
X198340000Y-76755000D03*
D50*
X197615000Y-77480000D03*
X197615000Y-77980000D03*
X197615000Y-78480000D03*
X197615000Y-78980000D03*
D51*
X199090000Y-78230000D03*
%TD*%
D45*
%TO.C,Q2*%
X176786000Y-103566000D03*
X178564000Y-103566000D03*
X177675000Y-101549240D03*
%TD*%
D52*
%TO.C,D4*%
X183310000Y-97290000D03*
X183310000Y-98690000D03*
X180210000Y-98690000D03*
X180210000Y-97290000D03*
%TD*%
D53*
%TO.C,C13*%
X189500000Y-62325000D03*
X189500000Y-63875000D03*
%TD*%
D22*
%TO.C,R21*%
X200700000Y-73600000D03*
X200700000Y-74620000D03*
%TD*%
%TO.C,R27*%
X201750000Y-76840000D03*
X201750000Y-77860000D03*
%TD*%
D35*
%TO.C,C15*%
X194100000Y-91420000D03*
X194100000Y-92380000D03*
%TD*%
D54*
%TO.C,J2*%
X203350000Y-73840000D03*
X203350000Y-71340000D03*
X203350000Y-69340000D03*
X203350000Y-66840000D03*
D55*
X207030000Y-63770000D03*
X207030000Y-76910000D03*
%TD*%
D53*
%TO.C,C9*%
X208060000Y-105020000D03*
X208060000Y-106570000D03*
%TD*%
D43*
%TO.C,D8*%
X215730000Y-94200000D03*
X213830000Y-94200000D03*
X214780000Y-96500000D03*
%TD*%
D17*
%TO.C,C10*%
X188055000Y-62625000D03*
X187095000Y-62625000D03*
%TD*%
D56*
%TO.C,U7*%
X186700000Y-81815000D03*
X186200000Y-81815000D03*
X185700000Y-81815000D03*
X185200000Y-81815000D03*
X184700000Y-81815000D03*
X184200000Y-81815000D03*
X183700000Y-81815000D03*
X183200000Y-81815000D03*
X182700000Y-81815000D03*
X182200000Y-81815000D03*
X181700000Y-81815000D03*
X181200000Y-81815000D03*
X180700000Y-81815000D03*
X180200000Y-81815000D03*
X179700000Y-81815000D03*
X179200000Y-81815000D03*
D57*
X177275000Y-83740000D03*
X177275000Y-84240000D03*
X177275000Y-84740000D03*
X177275000Y-85240000D03*
X177275000Y-85740000D03*
X177275000Y-86240000D03*
X177275000Y-86740000D03*
X177275000Y-87240000D03*
X177275000Y-87740000D03*
X177275000Y-88240000D03*
X177275000Y-88740000D03*
X177275000Y-89240000D03*
X177275000Y-89740000D03*
X177275000Y-90240000D03*
X177275000Y-90740000D03*
X177275000Y-91240000D03*
D56*
X179200000Y-93165000D03*
X179700000Y-93165000D03*
X180200000Y-93165000D03*
X180700000Y-93165000D03*
X181200000Y-93165000D03*
X181700000Y-93165000D03*
X182200000Y-93165000D03*
X182700000Y-93165000D03*
X183200000Y-93165000D03*
X183700000Y-93165000D03*
X184200000Y-93165000D03*
X184700000Y-93165000D03*
X185200000Y-93165000D03*
X185700000Y-93165000D03*
X186200000Y-93165000D03*
X186700000Y-93165000D03*
D57*
X188625000Y-91240000D03*
X188625000Y-90740000D03*
X188625000Y-90240000D03*
X188625000Y-89740000D03*
X188625000Y-89240000D03*
X188625000Y-88740000D03*
X188625000Y-88240000D03*
X188625000Y-87740000D03*
X188625000Y-87240000D03*
X188625000Y-86740000D03*
X188625000Y-86240000D03*
X188625000Y-85740000D03*
X188625000Y-85240000D03*
X188625000Y-84740000D03*
X188625000Y-84240000D03*
X188625000Y-83740000D03*
%TD*%
D17*
%TO.C,C1*%
X177130000Y-92200000D03*
X176170000Y-92200000D03*
%TD*%
D58*
%TO.C,U4*%
X205950000Y-94150000D03*
X204850000Y-94150000D03*
X203750000Y-94150000D03*
X202650000Y-94150000D03*
X201550000Y-94150000D03*
X200450000Y-94150000D03*
X199350000Y-94150000D03*
X196350000Y-94150000D03*
X195250000Y-94150000D03*
X194150000Y-94150000D03*
X193050000Y-94150000D03*
X191950000Y-94150000D03*
X191950000Y-106150000D03*
X193050000Y-106150000D03*
X194150000Y-106150000D03*
X195250000Y-106150000D03*
X196350000Y-106150000D03*
X199350000Y-106150000D03*
X200450000Y-106150000D03*
X201550000Y-106150000D03*
X202650000Y-106150000D03*
X203750000Y-106150000D03*
X204850000Y-106150000D03*
X205950000Y-106150000D03*
%TD*%
D35*
%TO.C,C31*%
X198710000Y-84530000D03*
X198710000Y-85490000D03*
%TD*%
D25*
%TO.C,R8*%
X187090000Y-63700000D03*
X188110000Y-63700000D03*
%TD*%
D59*
%TO.C,D2*%
X204990000Y-79580000D03*
X204990000Y-81680000D03*
%TD*%
D60*
%TO.C,U10*%
X212740000Y-101118000D03*
X213390000Y-101118000D03*
X214040000Y-101118000D03*
X214690000Y-101118000D03*
X214690000Y-98018000D03*
X214040000Y-98018000D03*
X213390000Y-98018000D03*
X212740000Y-98018000D03*
D61*
X213715000Y-99568000D03*
%TD*%
D36*
%TO.C,C18*%
X189150000Y-75450000D03*
X189150000Y-73550000D03*
%TD*%
D62*
%TO.C,C16*%
X172000000Y-71550000D03*
X172000000Y-73450000D03*
%TD*%
D27*
%TO.C,R13*%
X204510000Y-78000000D03*
X203490000Y-78000000D03*
%TD*%
D60*
%TO.C,U11*%
X208075000Y-101090000D03*
X208725000Y-101090000D03*
X209375000Y-101090000D03*
X210025000Y-101090000D03*
X210025000Y-97990000D03*
X209375000Y-97990000D03*
X208725000Y-97990000D03*
X208075000Y-97990000D03*
D61*
X209050000Y-99540000D03*
%TD*%
D27*
%TO.C,R15*%
X175710000Y-86080000D03*
X174690000Y-86080000D03*
%TD*%
D22*
%TO.C,R1*%
X206500000Y-80790000D03*
X206500000Y-81810000D03*
%TD*%
D27*
%TO.C,R22*%
X175685000Y-89200000D03*
X174665000Y-89200000D03*
%TD*%
D23*
%TO.C,R20*%
X199600000Y-74610000D03*
X199600000Y-73590000D03*
%TD*%
D18*
%TO.C,C2*%
X175650000Y-84780000D03*
X175650000Y-83820000D03*
%TD*%
D24*
%TO.C,R12*%
X189575000Y-70950000D03*
X187925000Y-70950000D03*
%TD*%
D47*
%TO.C,C5*%
X187620000Y-93300000D03*
X188580000Y-93300000D03*
%TD*%
D17*
%TO.C,C26*%
X202520000Y-92380000D03*
X201560000Y-92380000D03*
%TD*%
D26*
%TO.C,C4*%
X180550000Y-62300000D03*
X178650000Y-62300000D03*
%TD*%
D47*
%TO.C,C33*%
X208320000Y-102100000D03*
X209280000Y-102100000D03*
%TD*%
D23*
%TO.C,R10*%
X195200000Y-92410000D03*
X195200000Y-91390000D03*
%TD*%
D25*
%TO.C,R14*%
X190740000Y-85850000D03*
X191760000Y-85850000D03*
%TD*%
%TO.C,R3*%
X181340000Y-77100000D03*
X182360000Y-77100000D03*
%TD*%
D23*
%TO.C,R6*%
X182200000Y-69460000D03*
X182200000Y-68440000D03*
%TD*%
D63*
%TO.C,U1*%
X210889500Y-78415021D03*
X210889500Y-79065007D03*
X210889500Y-79714993D03*
X210889500Y-80364979D03*
D64*
X213755500Y-80364979D03*
X213755500Y-79714993D03*
X213755500Y-79065007D03*
X213755500Y-78415021D03*
%TD*%
D65*
%TO.C,Y1*%
X183900000Y-79600000D03*
X186100000Y-79600000D03*
X186100000Y-77900000D03*
X183900000Y-77900000D03*
%TD*%
D66*
%TO.C,D11*%
X180350000Y-74750000D03*
X184350000Y-74750000D03*
%TD*%
D67*
%TO.C,D10*%
X195200000Y-73900000D03*
X198000000Y-73900000D03*
%TD*%
D17*
%TO.C,C22*%
X184980000Y-64100000D03*
X184020000Y-64100000D03*
%TD*%
D68*
%TO.C,L3*%
X174400000Y-63050000D03*
X174400000Y-69150000D03*
%TD*%
M02*
